<?xml version="1.0" standalone="no"?>
<!DOCTYPE svg PUBLIC "-//W3C//DTD SVG 1.1//EN" "http://www.w3.org/Graphics/SVG/1.1/DTD/svg11.dtd" >
<svg xmlns="http://www.w3.org/2000/svg">
<metadata>
Created by FontPrep 20130207 at Tue Aug 23 14:39:27 2016
 By Callum Flack
Copyright (c) 2014 by Ryoichi Tsunekawa. All rights reserved.
</metadata>
<defs>
<font id="583f4c3fb26fb8f2716bebfa01980623" horiz-adv-x='1024' >
  <font-face 
    font-family="Graphie-Bold"
    font-weight="700"
    font-stretch="normal"
    units-per-em="2048"
    panose-1="2 11 8 3 2 2 4 2 2 4"
    ascent="1536"
    descent="-512"
    x-height="963"
    cap-height="1360"
    bbox="-381 -430 2204 1894"
    underline-thickness="151"
    underline-position="-58"
    unicode-range="U+0020-FB03"
  />
<missing-glyph horiz-adv-x="1269" 
d="M1010 84l-375 520l-375 -520h750zM690 680l377 -524v1048zM580 680l-377 524v-1048zM1010 1276h-750l375 -520zM1159 0h-1048v1360h1048v-1360z" />
    <glyph glyph-name="ff" unicode="ff" horiz-adv-x="1419" 
d="M1214 1454q125 0 201 -33v-245h-10q-61 41 -139 41q-150 0 -150 -148v-106h277v-228h-277v-735h-268v735h-393v-735h-269v735h-159v228h159v94q0 182 94 279t273 98q125 0 201 -33v-246h-11q-61 41 -138 41t-113 -39t-37 -108v-86h393v114q0 181 94 279t272 98z" />
    <glyph glyph-name="fi" unicode="fi" horiz-adv-x="1245" 
d="M991 1096q-72 0 -119 46t-47 119t47 119t119 45q72 0 119 -46q47 -47 47 -119t-47 -118t-119 -46zM1124 0h-268v735h-401v-735h-269v735h-159v228h159v114q0 181 94 279t263 98q115 0 190 -33v-245h-10q-61 41 -129 41t-104 -39t-35 -109v-106h669v-963z" />
    <glyph glyph-name="ffi" unicode="ffi" horiz-adv-x="1906" 
d="M1653 1096q-72 0 -119 46t-47 119t47 119t119 45q72 0 119 -46q47 -47 47 -119t-47 -118t-119 -46zM1786 963v-963h-268v735h-402v-735h-268v735h-393v-735h-269v735h-159v228h159v94q0 182 94 279t273 98q125 0 201 -33v-246h-11q-61 41 -138 41t-113 -39t-37 -108v-86
h393v114q0 181 93 279t263 98q115 0 191 -33v-245h-11q-62 41 -130 41t-103 -39t-35 -109v-106h670z" />
    <glyph glyph-name="f_j" unicode="fj" horiz-adv-x="1245" 
d="M991 1096q-72 0 -119 46t-47 119t47 119t119 45q72 0 119 -46q47 -47 47 -119t-47 -118t-119 -46zM1124 963v-1053q0 -156 -76 -238t-219 -82q-74 0 -137 21v242h13q31 -25 71 -25q80 0 80 104v803h-401v-735h-269v735h-159v228h159v114q0 181 94 279t263 98
q115 0 190 -33v-245h-10q-61 41 -129 41t-104 -39t-35 -109v-106h669z" />
    <glyph glyph-name="f_f_j" unicode="ffj" horiz-adv-x="1906" 
d="M1653 1096q-72 0 -119 46t-47 119t47 119t119 45q72 0 119 -46q47 -47 47 -119t-47 -118t-119 -46zM1786 963v-1053q0 -156 -77 -238t-218 -82q-74 0 -137 21v242h12q31 -25 72 -25q80 0 80 104v803h-402v-735h-268v735h-393v-735h-269v735h-159v228h159v94q0 182 94 279
t273 98q125 0 201 -33v-246h-11q-61 41 -138 41t-113 -39t-37 -108v-86h393v114q0 181 93 279t263 98q115 0 191 -33v-245h-11q-62 41 -130 41t-103 -39t-35 -109v-106h670z" />
    <glyph glyph-name=".notdef" horiz-adv-x="1269" 
d="M1010 84l-375 520l-375 -520h750zM690 680l377 -524v1048zM580 680l-377 524v-1048zM1010 1276h-750l375 -520zM1159 0h-1048v1360h1048v-1360z" />
    <glyph glyph-name=".null" horiz-adv-x="0" 
 />
    <glyph glyph-name="nonmarkingreturn" horiz-adv-x="681" 
 />
    <glyph glyph-name="space" unicode=" " horiz-adv-x="450" 
 />
    <glyph glyph-name="exclam" unicode="!" horiz-adv-x="563" 
d="M282 317q72 0 120 -49t48 -121q0 -71 -48 -119t-120 -48t-121 48q-48 48 -48 120t48 120q48 49 121 49zM156 438l-33 922h317l-32 -922h-252z" />
    <glyph glyph-name="quotedbl" unicode="&#x22;" horiz-adv-x="923" 
d="M563 748l-24 612h258l-25 -612h-209zM152 748l-25 612h258l-25 -612h-208z" />
    <glyph glyph-name="numbersign" unicode="#" horiz-adv-x="1331" 
d="M565 836l-41 -291h242l41 291h-242zM969 545h245l-26 -185h-246l-51 -360h-203l51 360h-241l-52 -360h-202l51 360h-246l27 185h246l40 291h-245l26 184h246l47 340h203l-47 -340h242l47 340h202l-47 -340h246l-27 -184h-245z" />
    <glyph glyph-name="dollar" unicode="$" horiz-adv-x="1331" 
d="M913 432q0 92 -178 111v-234q178 18 178 123zM430 928q0 -45 41 -70t131 -35v228q-172 -19 -172 -123zM735 -123h-133v178q-268 8 -426 109v287h14q145 -131 412 -144v248q-225 14 -328 99q-102 85 -102 254q0 170 112 272t318 120v162h133v-157q244 -10 363 -91v-286
h-15q-106 113 -348 125v-242q229 -18 332 -105q102 -88 103 -262q2 -174 -110 -272t-325 -115v-180z" />
    <glyph glyph-name="percent" unicode="%" horiz-adv-x="1560" 
d="M1182 492q-57 0 -91 -48t-34 -128q0 -81 34 -128t91 -47t91 47t34 128q0 80 -34 128t-91 48zM1182 653q145 0 227 -92t82 -245q0 -152 -82 -244t-227 -92t-228 92q-82 92 -82 244t82 245q83 92 228 92zM379 1219q-57 1 -91 -47t-34 -129t34 -128t91 -47t91 47t34 128
t-34 129t-91 47zM238 0l876 1360h209l-877 -1360h-208zM379 1380q145 0 227 -92t82 -245t-82 -245t-227 -91q-145 0 -227 92q-82 93 -82 245t82 244t227 92z" />
    <glyph glyph-name="ampersand" unicode="&#x26;" horiz-adv-x="1320" 
d="M548 217q95 0 175 31l-268 313q-105 -70 -105 -162t52 -137t146 -45zM743 1030q0 55 -42 88q-43 33 -109 33t-107 -34q-41 -33 -41 -99t88 -160l17 -18q106 47 150 91t44 99zM529 -20q-209 0 -329 100t-120 278q0 236 229 371q-131 157 -131 309t108 247t290 95t288 -90
t106 -226t-67 -225q-68 -89 -213 -159l230 -262q51 90 51 225q0 23 -4 68h258q2 -20 2 -60q0 -250 -148 -415l207 -236h-348l-66 76q-133 -96 -343 -96z" />
    <glyph glyph-name="quotesingle" unicode="'" horiz-adv-x="512" 
d="M152 748l-25 612h258l-25 -612h-208z" />
    <glyph glyph-name="parenleft" unicode="(" horiz-adv-x="825" 
d="M442 576q0 -442 299 -785h-272q-150 162 -230 365q-81 204 -81 420t81 419q80 203 230 365h272q-299 -342 -299 -784z" />
    <glyph glyph-name="parenright" unicode=")" horiz-adv-x="825" 
d="M383 575q0 442 -299 785h272q150 -162 231 -365t81 -420t-81 -419t-231 -365h-272q299 342 299 784z" />
    <glyph glyph-name="asterisk" unicode="*" horiz-adv-x="954" 
d="M807 778l-193 -137l-137 272l-137 -272l-193 137l220 219l-306 50l74 221l271 -138l-48 304h238l-47 -304l270 138l74 -221l-305 -50z" />
    <glyph glyph-name="plus" unicode="+" horiz-adv-x="1331" 
d="M784 496v-463h-237v463h-463v237h463v463h237v-463h463v-237h-463z" />
    <glyph glyph-name="comma" unicode="," horiz-adv-x="563" 
d="M-14 -217l188 514h277l-248 -514h-217z" />
    <glyph glyph-name="hyphen" unicode="-" horiz-adv-x="757" 
d="M86 426v270h586v-270h-586z" />
    <glyph glyph-name="period" unicode="." horiz-adv-x="563" 
d="M282 317q72 0 120 -49t48 -121q0 -71 -48 -119t-120 -48t-121 48q-48 48 -48 120t48 120q48 49 121 49z" />
    <glyph glyph-name="slash" unicode="/" horiz-adv-x="870" 
d="M51 -164l531 1585h237l-528 -1585h-240z" />
    <glyph glyph-name="zero" unicode="0" horiz-adv-x="1331" 
d="M666 1126q-133 0 -205 -116t-72 -330q0 -215 72 -331t205 -116q132 0 204 116t72 331q0 214 -72 330t-204 116zM666 1380q268 0 416 -183t148 -517t-148 -517t-416 -183t-417 183q-148 183 -149 517q0 334 149 517t417 183z" />
    <glyph glyph-name="one" unicode="1" horiz-adv-x="1331" 
d="M1008 0h-285v1036l-420 -235v295l471 264h234v-1360z" />
    <glyph glyph-name="two" unicode="2" horiz-adv-x="1331" 
d="M1153 254v-254h-969v266l330 260q205 162 278 249t72 173q0 86 -62 132t-177 46q-246 0 -410 -168h-14v304q170 118 424 118t391 -108t137 -309q0 -164 -95 -294t-345 -309l-146 -102v-4h586z" />
    <glyph glyph-name="three" unicode="3" horiz-adv-x="1331" 
d="M1190 371q0 -183 -143 -287t-400 -104q-143 0 -267 34t-196 95v301h15q67 -82 187 -129t250 -47t197 48t67 131t-63 117q-62 34 -204 35h-187v240h162q143 0 207 33q63 32 63 114t-62 128q-64 46 -181 46t-225 -44t-181 -121h-14v301q165 118 425 118t394 -102t133 -296
q0 -194 -182 -290v-4q205 -96 205 -317z" />
    <glyph glyph-name="four" unicode="4" horiz-adv-x="1331" 
d="M809 500v518l-408 -518h408zM1094 246v-246h-285v246h-715v239l703 875h297v-860h174v-254h-174z" />
    <glyph glyph-name="five" unicode="5" horiz-adv-x="1331" 
d="M696 881q232 0 364 -118t132 -329t-146 -333q-146 -121 -432 -121t-444 112v287h14q150 -145 443 -146q131 -1 203 53t71 150q0 197 -330 197q-199 0 -346 -60h-14v787h893v-254h-645v-254q114 29 237 29z" />
    <glyph glyph-name="six" unicode="6" horiz-adv-x="1331" 
d="M696 233q114 1 174 59q61 58 62 154q0 96 -60 154t-163 57q-190 0 -289 -145q10 -129 86 -204t190 -75zM763 895q210 0 335 -122q125 -121 125 -327q-1 -206 -141 -336t-367 -130q-281 0 -435 174t-155 502q0 328 168 527q168 198 459 197q240 0 364 -88v-284h-14
q-123 119 -322 118q-154 0 -248 -91t-114 -259h4q131 119 341 119z" />
    <glyph glyph-name="seven" unicode="7" horiz-adv-x="1331" 
d="M129 1106v254h1108v-266l-688 -1094h-336l711 1106h-795z" />
    <glyph glyph-name="eight" unicode="8" horiz-adv-x="1331" 
d="M666 233q134 0 206 43t72 125q0 164 -278 164t-279 -164q0 -82 73 -125t206 -43zM666 1126q-240 0 -240 -163q0 -82 57 -121t183 -39t182 39q57 39 57 121q1 163 -239 163zM1235 371q0 -183 -151 -287q-150 -104 -418 -104t-419 103t-151 288q0 221 228 303v4
q-186 92 -187 315q1 183 141 285t388 102t388 -102t140 -294t-182 -277v-5q223 -90 223 -331z" />
    <glyph glyph-name="nine" unicode="9" horiz-adv-x="1331" 
d="M623 702q190 0 288 146q-10 129 -86 204q-76 74 -189 74q-112 0 -174 -58t-62 -154t60 -154q61 -58 163 -58zM616 1380q281 0 436 -174q154 -174 154 -502t-168 -527q-168 -198 -458 -197q-240 0 -365 88v284h14q123 -119 322 -119q154 -1 248 91t114 260h-4
q-131 -119 -341 -119t-335 122q-125 121 -125 327t141 336q140 130 367 130z" />
    <glyph glyph-name="colon" unicode=":" horiz-adv-x="563" 
d="M113 793q0 72 48 121t121 49q72 1 120 -49t48 -122t-48 -119q-48 -48 -120 -48t-121 48q-48 48 -48 120zM282 317q72 0 120 -49t48 -121q0 -71 -48 -119t-120 -48t-121 48q-48 48 -48 120t48 120q48 49 121 49z" />
    <glyph glyph-name="semicolon" unicode=";" horiz-adv-x="563" 
d="M113 793q0 72 48 121t121 49q72 1 120 -49t48 -122t-48 -119q-48 -48 -120 -48t-121 48q-48 48 -48 120zM-14 -217l188 514h277l-248 -514h-217z" />
    <glyph glyph-name="less" unicode="&#x3c;" horiz-adv-x="1331" 
d="M475 612l721 -295v-260l-1055 455v205l1055 454v-258l-721 -297v-4z" />
    <glyph glyph-name="equal" unicode="=" horiz-adv-x="1331" 
d="M117 223v238h1097v-238h-1097zM117 768v238h1097v-238h-1097z" />
    <glyph glyph-name="greater" unicode="&#x3e;" horiz-adv-x="1331" 
d="M856 616l-721 295v260l1055 -454v-205l-1055 -455v258l721 297v4z" />
    <glyph glyph-name="question" unicode="?" horiz-adv-x="1017" 
d="M430 317q72 0 120 -49t48 -121q0 -71 -48 -119t-120 -48t-121 48t-49 120t49 120q49 49 121 49zM458 1380q242 0 376 -105t133 -292q-1 -152 -97 -251t-309 -169v-125h-262v291q207 43 293 97t86 136t-55 122q-55 42 -154 42q-244 0 -406 -168h-14v304q167 118 409 118z
" />
    <glyph glyph-name="at" unicode="@" horiz-adv-x="1585" 
d="M804 371q85 0 138 57t53 147q0 91 -53 147t-138 56t-138 -56q-54 -56 -54 -146t54 -148q54 -57 138 -57zM1163 922v-463q-1 -88 61 -88q62 1 98 69t36 193q0 240 -144 385t-389 145q-247 0 -403 -169t-156 -425q0 -257 168 -417t432 -160t443 139h10v-158
q-182 -117 -457 -116q-336 1 -552 199t-216 512t206 522t521 208t503 -186t189 -483q0 -190 -87 -302t-225 -112t-177 121h-4q-76 -121 -235 -121t-255 101t-96 259q0 157 96 259t250 102t228 -107h4l4 93h147z" />
    <glyph glyph-name="A" unicode="A" horiz-adv-x="1509" 
d="M752 1012h-4l-207 -523h420zM1155 0l-92 229h-625l-92 -229h-317l579 1360h293l580 -1360h-326z" />
    <glyph glyph-name="B" unicode="B" horiz-adv-x="1327" 
d="M449 270h323q186 0 186 144t-204 143h-305v-287zM449 811h258q205 0 204 141q0 137 -184 138h-278v-279zM731 1360q485 0 485 -387q0 -197 -176 -277v-4q225 -74 226 -313q0 -379 -484 -379h-637v1360h586z" />
    <glyph glyph-name="C" unicode="C" horiz-adv-x="1304" 
d="M791 1380q260 0 417 -106v-332h-14q-133 168 -389 168q-197 0 -316 -118t-119 -312t120 -312q118 -118 315 -118q258 0 389 168h14v-332q-162 -106 -417 -106q-324 0 -526 196t-202 504t202 504t526 196z" />
    <glyph glyph-name="D" unicode="D" horiz-adv-x="1478" 
d="M449 270h225q212 0 324 104t112 306q0 201 -112 305t-324 105h-225v-820zM145 1360h547q346 0 536 -178t189 -502q0 -324 -189 -502t-536 -178h-547v1360z" />
    <glyph glyph-name="E" unicode="E" horiz-adv-x="1261" 
d="M1016 809v-254h-567v-285h714v-270h-1018v1360h1018v-270h-714v-281h567z" />
    <glyph glyph-name="F" unicode="F" horiz-adv-x="1224" 
d="M449 791h567v-271h-567v-520h-304v1360h1018v-270h-714v-299z" />
    <glyph glyph-name="G" unicode="G" horiz-adv-x="1433" 
d="M834 1110q-211 0 -337 -117t-126 -313t126 -314q126 -116 337 -116q92 0 176 18v232h-299v254h592v-668q-186 -106 -482 -106q-348 0 -553 189t-205 511t205 511t553 189q295 0 482 -106v-332h-15q-173 168 -454 168z" />
    <glyph glyph-name="H" unicode="H" horiz-adv-x="1503" 
d="M1358 0h-305v549h-604v-549h-304v1360h304v-541h604v541h305v-1360z" />
    <glyph glyph-name="I" unicode="I" horiz-adv-x="593" 
d="M145 0v1360h304v-1360h-304z" />
    <glyph glyph-name="J" unicode="J" horiz-adv-x="1048" 
d="M934 1360v-871q0 -510 -510 -509q-221 0 -371 106v320h15q49 -70 137 -113t184 -43q242 0 242 270v840h303z" />
    <glyph glyph-name="K" unicode="K" horiz-adv-x="1378" 
d="M449 0h-304v1360h304v-572l499 572h383l-608 -668l629 -692h-400l-503 578v-578z" />
    <glyph glyph-name="L" unicode="L" horiz-adv-x="1187" 
d="M1135 0h-990v1360h304v-1090h686v-270z" />
    <glyph glyph-name="M" unicode="M" horiz-adv-x="1943" 
d="M1798 0h-303v1024h-4l-393 -1024h-275l-381 995h-4v-995h-293v1360h455l365 -948h4l364 948h465v-1360z" />
    <glyph glyph-name="N" unicode="N" horiz-adv-x="1517" 
d="M438 1010v-1010h-293v1360h416l514 -914h4v914h293v-1360h-364l-566 1010h-4z" />
    <glyph glyph-name="O" unicode="O" horiz-adv-x="1556" 
d="M778 1110q-180 0 -294 -120t-114 -310t114 -310t294 -120t294 120t114 310t-114 310t-294 120zM778 1380q315 0 515 -196t200 -504q0 -307 -200 -504q-200 -196 -515 -196t-515 196t-200 504t200 504t515 196z" />
    <glyph glyph-name="P" unicode="P" horiz-adv-x="1314" 
d="M449 727h282q221 0 221 181t-221 182h-282v-363zM145 1360h600q514 0 515 -453q0 -451 -515 -450h-296v-457h-304v1360z" />
    <glyph glyph-name="Q" unicode="Q" horiz-adv-x="1552" 
d="M778 250q51 0 86 8l-225 295h330l123 -162q94 117 94 298t-114 301t-294 120t-294 -120t-114 -310t114 -310t294 -120zM778 -20q-315 0 -515 196t-200 504q0 307 200 504q200 196 515 196t515 -196t200 -514q0 -316 -221 -514l239 -312h-331l-136 179q-123 -43 -266 -43z
" />
    <glyph glyph-name="R" unicode="R" horiz-adv-x="1370" 
d="M449 743h294q219 0 220 172q0 174 -220 175h-294v-347zM449 473v-473h-304v1360h611q514 0 514 -445q0 -328 -285 -411l326 -504h-357l-276 473h-229z" />
    <glyph glyph-name="S" unicode="S" horiz-adv-x="1208" 
d="M635 1380q127 0 245 -28t181 -72v-313h-14q-141 145 -416 145q-113 0 -179 -40t-65 -104q0 -64 56 -94t206 -47q266 -29 380 -127t114 -298q1 -200 -141 -312q-142 -111 -404 -110q-340 0 -506 118v314h14q195 -164 482 -164q254 0 254 149q0 61 -58 93t-213 49
q-261 29 -373 123t-112 290t145 313q146 115 404 115z" />
    <glyph glyph-name="T" unicode="T" horiz-adv-x="1218" 
d="M762 1090v-1090h-303v1090h-406v270h1112v-270h-403z" />
    <glyph glyph-name="U" unicode="U" horiz-adv-x="1413" 
d="M1298 1360v-780q0 -600 -596 -600q-588 0 -587 600v780h303v-760q0 -350 294 -350t294 350v760h292z" />
    <glyph glyph-name="V" unicode="V" horiz-adv-x="1427" 
d="M862 0h-297l-536 1360h325l363 -969h4l360 969h318z" />
    <glyph glyph-name="W" unicode="W" horiz-adv-x="2068" 
d="M1614 0h-309l-269 866h-4l-270 -866h-307l-420 1360h319l267 -907h4l282 907h260l283 -914h4l268 914h312z" />
    <glyph glyph-name="X" unicode="X" horiz-adv-x="1476" 
d="M406 0h-355l481 694l-460 666h366l305 -463l306 463h356l-463 -666l483 -694h-366l-326 496z" />
    <glyph glyph-name="Y" unicode="Y" horiz-adv-x="1431" 
d="M868 0h-303v557l-557 803h367l346 -526l346 526h356l-555 -803v-557z" />
    <glyph glyph-name="Z" unicode="Z" horiz-adv-x="1325" 
d="M1231 0h-1135v258l723 832h-682v270h1084v-258l-723 -832h733v-270z" />
    <glyph glyph-name="bracketleft" unicode="[" horiz-adv-x="825" 
d="M717 -2v-207h-557v1569h557v-209h-297v-1153h297z" />
    <glyph glyph-name="backslash" unicode="\" horiz-adv-x="870" 
d="M582 -164l-531 1585h240l528 -1585h-237z" />
    <glyph glyph-name="bracketright" unicode="]" horiz-adv-x="825" 
d="M109 1153v207h557v-1569h-557v209h297v1153h-297z" />
    <glyph glyph-name="asciicircum" unicode="^" horiz-adv-x="1331" 
d="M358 565h-274l479 795h205l479 -795h-276l-305 527z" />
    <glyph glyph-name="underscore" unicode="_" horiz-adv-x="1024" 
d="M0 -293v174h1024v-174h-1024z" />
    <glyph glyph-name="grave" unicode="`" horiz-adv-x="1024" 
d="M412 1102l-265 348h283l227 -348h-245z" />
    <glyph glyph-name="a" unicode="a" horiz-adv-x="1202" 
d="M580 217q108 0 176 74q68 75 68 191t-68 190t-176 74t-178 -74q-68 -74 -68 -191t68 -191t178 -73zM1083 0h-223l-8 129h-4q-100 -149 -309 -149t-342 142t-134 359t133 359t344 143q210 0 306 -145h4l10 125h223v-963z" />
    <glyph glyph-name="b" unicode="b" horiz-adv-x="1204" 
d="M381 481q-1 -117 67 -191t178 -73q110 0 178 74q68 75 66 191q0 116 -67 190t-177 74t-178 -74t-67 -191zM684 983q192 0 324 -142q133 -141 133 -359t-133 -360t-343 -142t-309 147h-4l-10 -127h-223v1434h268v-555h4q101 104 293 104z" />
    <glyph glyph-name="c" unicode="c" horiz-adv-x="974" 
d="M588 983q190 0 299 -72v-286h-10q-94 121 -261 120q-130 -1 -206 -71t-76 -192t76 -194t206 -71q168 0 261 123h10v-289q-102 -72 -299 -71q-233 0 -379 140q-145 140 -146 361q0 221 146 361t379 141z" />
    <glyph glyph-name="d" unicode="d" horiz-adv-x="1202" 
d="M580 217q108 0 176 74q68 75 68 191t-68 190t-176 74t-178 -74q-68 -74 -68 -191t68 -191t178 -73zM1083 0h-223l-8 129h-4q-100 -149 -309 -149t-342 142t-134 359t133 359t324 143q190 0 291 -102h4v553h268v-1434z" />
    <glyph glyph-name="e" unicode="e" horiz-adv-x="1114" 
d="M577 752q-91 0 -157 -47t-86 -130h475q-14 85 -77 131t-155 46zM1051 414h-717q20 -96 104 -150t209 -53q215 0 336 117h10v-258q-125 -90 -369 -90t-402 139q-159 139 -159 361q-1 222 141 362t363 141q221 0 353 -124t131 -337v-108z" />
    <glyph glyph-name="f" unicode="f" horiz-adv-x="757" 
d="M553 1454q125 0 201 -33v-245h-11q-61 41 -138 41q-150 0 -150 -148v-106h276v-228h-276v-735h-269v735h-159v228h159v114q0 181 94 279t273 98z" />
    <glyph glyph-name="g" unicode="g" horiz-adv-x="1202" 
d="M579 233q109 0 177 70q68 71 68 187t-68 186t-178 70t-177 -70t-67 -187t68 -187t177 -69zM170 -35q115 -137 362 -137q125 0 204 70t79 196v6h-4q-101 -104 -291 -104t-323 138t-134 355t133 355t343 139q209 0 309 -147h4l8 127h223v-885q0 -224 -143 -356t-393 -132
t-387 105v270h10z" />
    <glyph glyph-name="h" unicode="h" horiz-adv-x="1132" 
d="M658 983q174 0 274 -109t100 -303v-571h-268v539q0 100 -47 153t-136 53t-141 -60t-53 -173v-512h-268v1434h268v-560h4q92 109 267 109z" />
    <glyph glyph-name="i" unicode="i" horiz-adv-x="507" 
d="M119 0v963h268v-963h-268zM254 1425q72 0 119 -46q47 -47 47 -119t-47 -118t-119 -46t-119 46t-47 119t47 119t119 45z" />
    <glyph glyph-name="j" unicode="j" horiz-adv-x="507" 
d="M387 963v-1053q0 -156 -77 -238t-218 -82q-74 0 -137 21v242h12q31 -25 72 -25q80 0 80 104v1031h268zM254 1425q72 0 119 -46q47 -47 47 -119t-47 -118t-119 -46t-119 46t-47 119t47 119t119 45z" />
    <glyph glyph-name="k" unicode="k" horiz-adv-x="1093" 
d="M387 0h-268v1434h268v-865l332 394h332l-418 -469l438 -494h-346l-338 403v-403z" />
    <glyph glyph-name="l" unicode="l" horiz-adv-x="505" 
d="M119 0v1434h268v-1434h-268z" />
    <glyph glyph-name="m" unicode="m" horiz-adv-x="1714" 
d="M1255 983q171 0 265 -106t94 -304v-573h-268v543q0 203 -162 202q-180 0 -180 -249v-496h-269v543q0 203 -164 202q-180 0 -180 -229v-516h-268v963h223l10 -129h4q86 150 285 150t291 -159h4q88 158 315 158z" />
    <glyph glyph-name="n" unicode="n" horiz-adv-x="1132" 
d="M657 983q175 0 275 -109t100 -303v-571h-268v539q0 100 -47 153t-136 53t-141 -60t-53 -173v-512h-268v963h223l10 -138h4q90 158 301 158z" />
    <glyph glyph-name="o" unicode="o" horiz-adv-x="1157" 
d="M580 745q-109 1 -178 -73q-68 -74 -68 -191t68 -191t178 -73q108 0 176 74q68 75 68 191t-68 190q-67 74 -176 73zM579 983q226 0 370 -140q145 -141 145 -361t-144 -361t-371 -141q-226 0 -371 141q-144 141 -144 361t144 360q145 140 371 141z" />
    <glyph glyph-name="p" unicode="p" horiz-adv-x="1204" 
d="M381 481q-1 -117 67 -191t178 -73q110 0 178 74q68 75 66 191q0 116 -67 190t-177 74t-178 -74t-67 -191zM664 983q211 0 344 -142q133 -141 133 -359t-133 -360q-132 -142 -324 -142t-293 104h-4v-473h-268v1352h223l10 -127h4q97 147 308 147z" />
    <glyph glyph-name="q" unicode="q" horiz-adv-x="1202" 
d="M580 217q108 0 176 74q68 75 68 191t-68 190t-176 74t-178 -74q-68 -74 -68 -191t68 -191t178 -73zM1083 -389h-268v473h-4q-101 -104 -291 -104t-323 142t-134 359t133 359t343 143q209 0 309 -147h4l8 127h223v-1352z" />
    <glyph glyph-name="r" unicode="r" horiz-adv-x="808" 
d="M645 983q94 0 141 -37v-262h-10q-63 45 -151 45q-123 0 -181 -77t-57 -238v-414h-268v963h223l12 -150h4q80 170 287 170z" />
    <glyph glyph-name="s" unicode="s" horiz-adv-x="897" 
d="M478 983q183 0 302 -61v-256h-10q-96 96 -287 96q-156 0 -155 -90q0 -33 34 -48t125 -22q189 -12 273 -84t84 -222t-104 -234t-291 -82q-242 0 -365 86v258h12q113 -123 340 -123q156 0 156 92q0 39 -38 57t-138 27q-184 16 -262 81t-78 208t109 230q110 87 293 87z" />
    <glyph glyph-name="t" unicode="t" horiz-adv-x="800" 
d="M455 360q0 -143 142 -143q73 0 126 55h10v-260q-68 -33 -188 -32q-176 0 -267 94t-92 276v385h-159v228h168l34 270h226v-270h276v-228h-276v-375z" />
    <glyph glyph-name="u" unicode="u" horiz-adv-x="1130" 
d="M1012 0h-224l-10 137h-4q-90 -158 -299 -157q-176 0 -275 110t-100 303v570h269v-539q0 -100 47 -154t135 -53q88 -1 140 61t52 173v512h269v-963z" />
    <glyph glyph-name="v" unicode="v" horiz-adv-x="1040" 
d="M657 0h-272l-373 963h287l223 -666h4l226 666h276z" />
    <glyph glyph-name="w" unicode="w" horiz-adv-x="1572" 
d="M1561 963l-322 -963h-256l-192 582h-5l-194 -582h-256l-324 963h285l180 -621h4l207 621h211l205 -621h4l180 621h273z" />
    <glyph glyph-name="x" unicode="x" horiz-adv-x="1122" 
d="M555 324l-217 -324h-311l364 496l-344 467h324l198 -293l197 293h309l-342 -467l363 -496h-324z" />
    <glyph glyph-name="y" unicode="y" horiz-adv-x="1040" 
d="M477 -389h-276l182 420l-371 932h287l225 -635h4l224 635h276z" />
    <glyph glyph-name="z" unicode="z" horiz-adv-x="1017" 
d="M84 0v215l485 520h-454v228h809v-215l-486 -521h496v-227h-850z" />
    <glyph glyph-name="braceleft" unicode="{" horiz-adv-x="858" 
d="M520 1049v-146q0 -266 -166 -325v-5q166 -59 166 -325v-146q0 -102 103 -102h125v-209h-175q-161 0 -237 76t-76 235v187q0 98 -39 140t-125 42h-47v209h47q86 0 125 42t39 140v187q0 159 76 235t237 76h175v-209h-125q-103 0 -103 -102z" />
    <glyph glyph-name="bar" unicode="|" horiz-adv-x="686" 
d="M244 -389v1823h198v-1823h-198z" />
    <glyph glyph-name="braceright" unicode="}" horiz-adv-x="858" 
d="M338 102v146q0 266 166 325v5q-166 59 -166 325v146q0 102 -102 102h-125v209h174q161 0 237 -76t76 -235v-187q0 -98 39 -140t125 -42h47v-209h-47q-86 0 -125 -42t-39 -140v-187q0 -160 -76 -236t-237 -75h-174v209h125q102 0 102 102z" />
    <glyph glyph-name="asciitilde" unicode="~" horiz-adv-x="1331" 
d="M434 829q76 -1 143 -27t161 -96t148 -69q54 0 99 44t102 148l195 -114q-162 -315 -385 -316q-77 0 -143 27q-66 26 -161 96t-149 70t-98 -44q-45 -44 -102 -149l-195 115q162 315 385 315z" />
    <glyph glyph-name="uni00A0" unicode="&#xa0;" horiz-adv-x="450" 
 />
    <glyph glyph-name="exclamdown" unicode="&#xa1;" horiz-adv-x="563" 
d="M282 1380q72 0 120 -48t48 -120t-47 -121q-48 -49 -121 -49t-121 50t-48 120q0 72 48 120t121 48zM408 922l32 -922h-317l33 922h252z" />
    <glyph glyph-name="cent" unicode="&#xa2;" horiz-adv-x="1331" 
d="M489 583q-1 -110 61 -180t175 -88v533q-113 -16 -175 -86t-61 -179zM1108 729h-14q-90 109 -236 123v-541q147 18 236 125h14v-307q-78 -59 -250 -72v-180h-133v180q-238 15 -381 157t-143 368t143 367q143 142 381 157v180h133v-180q160 -12 250 -74v-303z" />
    <glyph glyph-name="sterling" unicode="&#xa3;" horiz-adv-x="1331" 
d="M817 1126q-101 0 -157 -60t-56 -173v-109h397v-223h-397q-8 -211 -143 -303v-4h696v-254h-975v266q74 44 106 102t31 154v39h-137v223h137v140q0 219 118 338q118 118 340 118t380 -98v-301h-14q-140 145 -326 145z" />
    <glyph glyph-name="currency" unicode="&#xa4;" horiz-adv-x="1331" 
d="M666 485q82 -1 136 55t54 140t-54 139t-136 55t-136 -55t-55 -139q1 -84 55 -140t136 -55zM1069 680q0 -109 -51 -201l147 -141l-157 -158l-142 148q-92 -52 -200 -52t-201 52l-141 -148l-158 158l147 141q-51 92 -51 201t51 201l-147 141l158 158l141 -148q92 51 201 51
t200 -51l142 148l157 -158l-147 -141q51 -92 51 -201z" />
    <glyph glyph-name="yen" unicode="&#xa5;" horiz-adv-x="1331" 
d="M1190 727v-182h-381v-137h381v-183h-381v-225h-285v225h-383v183h383v137h-383v182h367l-440 633h344l260 -408l260 408h332l-441 -633h367z" />
    <glyph glyph-name="brokenbar" unicode="&#xa6;" horiz-adv-x="686" 
d="M244 -389v799h198v-799h-198zM244 635v799h198v-799h-198z" />
    <glyph glyph-name="section" unicode="&#xa7;" horiz-adv-x="1130" 
d="M766 627q0 69 -54 101t-200 50q-68 -10 -108 -53t-40 -105t51 -93q50 -30 185 -48l45 -6q121 33 121 154zM525 -209q-226 0 -365 86v244h10q133 -115 369 -115q92 0 144 34t52 89t-49 83t-174 42q-211 28 -302 106t-91 239t147 253v4q-114 76 -114 244t115 261
q116 93 320 93t331 -68v-239h-11q-106 94 -315 94q-92 0 -144 -35t-53 -88q0 -53 46 -77t165 -37q218 -27 312 -110t94 -247t-140 -252v-4q106 -82 106 -250t-113 -259q-114 -91 -340 -91z" />
    <glyph glyph-name="dieresis" unicode="&#xa8;" horiz-adv-x="1024" 
d="M729 1413q68 0 109 -43q41 -44 41 -110t-41 -109t-109 -43t-111 44t-43 110t43 108t111 43zM295 1413q68 0 111 -43q43 -42 43 -108t-43 -110t-111 -44t-109 43t-41 110t41 109t109 43z" />
    <glyph glyph-name="copyright" unicode="&#xa9;" horiz-adv-x="1589" 
d="M798 1049q152 0 236 -52v-196h-10q-68 88 -199 88q-94 1 -151 -57q-58 -58 -58 -152t58 -152t151 -57q133 0 199 88h10v-197q-84 -51 -236 -51q-152 -1 -257 103q-106 104 -107 266q0 162 106 266t258 103zM795 1223q-229 0 -379 -153q-150 -152 -150 -390t150 -390
t379 -153q229 0 379 153q150 152 150 390t-150 390t-379 153zM795 1380q301 0 501 -200t199 -500q0 -301 -200 -501q-201 -199 -501 -199t-500 200t-200 500t200 500t501 200z" />
    <glyph glyph-name="ordfeminine" unicode="&#xaa;" horiz-adv-x="901" 
d="M434 1194q-68 0 -110 -45t-41 -120q-1 -75 41 -121t110 -46t110 46t42 121t-42 120t-110 45zM791 692h-177l-4 72h-4q-72 -88 -209 -88t-231 100t-94 253t94 252t232 99t208 -88h4l4 70h177v-670z" />
    <glyph glyph-name="guillemotleft" unicode="&#xab;" horiz-adv-x="1058" 
d="M961 299v-274l-445 448v16l445 451v-274l-199 -185zM500 299v-274l-445 448v16l445 451v-274l-199 -185z" />
    <glyph glyph-name="logicalnot" unicode="&#xac;" horiz-adv-x="1331" 
d="M1225 188h-238v451h-881v238h1119v-689z" />
    <glyph glyph-name="uni00AD" unicode="&#xad;" horiz-adv-x="757" 
d="M86 426v270h586v-270h-586z" />
    <glyph glyph-name="registered" unicode="&#xae;" horiz-adv-x="1589" 
d="M694 715h135q102 0 103 80q0 84 -103 84h-135v-164zM1114 801q0 -174 -147 -221l170 -258h-213l-133 239h-97v-239h-178v716h324q274 1 274 -237zM795 137q229 0 379 153q150 152 150 390t-150 390t-379 153q-229 0 -379 -153q-150 -152 -150 -390t150 -390t379 -153z
M795 1380q301 0 501 -200t199 -500q0 -301 -200 -501q-201 -199 -501 -199t-500 200t-200 500t200 500t501 200z" />
    <glyph glyph-name="macron" unicode="&#xaf;" horiz-adv-x="1024" 
d="M176 1155v211h672v-211h-672z" />
    <glyph glyph-name="degree" unicode="&#xb0;" horiz-adv-x="796" 
d="M399 1217q-61 0 -100 -41t-39 -106q0 -66 39 -106t100 -40t101 41q39 41 39 105t-39 106q-40 41 -101 41zM399 1380q133 0 221 -88t89 -221q0 -133 -88 -222q-87 -89 -221 -89t-223 89t-89 222t89 221t222 88z" />
    <glyph glyph-name="plusminus" unicode="&#xb1;" horiz-adv-x="1331" 
d="M784 238h441v-238h-1119v238h441v356h-441v237h441v414h237v-414h441v-237h-441v-356z" />
    <glyph glyph-name="twosuperior" unicode="&#xb2;" 
d="M715 971v-176h-588v184l207 160q110 86 148 132t38 97q0 102 -137 102t-236 -102h-10v209q100 70 254 70t239 -68t85 -193q0 -92 -50 -162t-196 -184l-86 -65v-4h332z" />
    <glyph glyph-name="threesuperior" unicode="&#xb3;" 
d="M392 782q-172 0 -261 76v209h10q88 -109 262 -109q139 0 140 95q0 86 -148 86h-108v159h94q152 0 151 82q0 90 -140 90t-234 -100h-11v207q102 70 260 70q158 1 238 -63t80 -182t-104 -177v-4q117 -59 117 -185t-88 -190q-86 -64 -258 -64z" />
    <glyph glyph-name="acute" unicode="&#xb4;" horiz-adv-x="1024" 
d="M369 1102l227 348h283l-265 -348h-245z" />
    <glyph glyph-name="uni00B5" unicode="&#xb5;" horiz-adv-x="1163" 
d="M1038 0h-223l-10 137h-4q-88 -158 -301 -157q-57 0 -107 12v-381h-268v1352h268v-539q0 -100 47 -154t137 -53q89 1 141 61t52 173v512h268v-963z" />
    <glyph glyph-name="paragraph" unicode="&#xb6;" horiz-adv-x="1216" 
d="M1032 1264v-1653h-176v1653h-207v-1653h-176v926q-408 47 -407 444q0 453 514 453h561v-170h-109z" />
    <glyph glyph-name="periodcentered" unicode="&#xb7;" horiz-adv-x="563" 
d="M282 850q72 0 120 -49t48 -121t-48 -120t-120 -48t-121 48q-48 48 -48 120t48 121t121 49z" />
    <glyph glyph-name="cedilla" unicode="&#xb8;" horiz-adv-x="1024" 
d="M532 -100q203 0 203 -152q0 -158 -252 -158q-115 0 -184 29v137h10q72 -39 164 -39q33 -1 51 13t19 34q0 49 -76 50q-47 0 -96 -13v31l96 168h121l-56 -96v-4z" />
    <glyph glyph-name="onesuperior" unicode="&#xb9;" 
d="M639 795h-193v612l-210 -127v193l247 161h156v-839z" />
    <glyph glyph-name="ordmasculine" unicode="&#xba;" horiz-adv-x="868" 
d="M434 1194q-68 0 -110 -45t-41 -120q0 -75 42 -121q41 -46 109 -46t110 46t42 121t-42 120t-110 45zM434 1380q160 0 261 -98t101 -254t-100 -254q-102 -98 -262 -98t-261 99t-101 254t101 253t261 98z" />
    <glyph glyph-name="guillemotright" unicode="&#xbb;" horiz-adv-x="1058" 
d="M98 664v274l445 -449v-16l-445 -450v274l199 184zM559 664v274l445 -449v-16l-445 -450v274l199 184z" />
    <glyph glyph-name="onequarter" unicode="&#xbc;" horiz-adv-x="2002" 
d="M639 520h-193v613l-210 -127v192l247 162h156v-840zM1653 322v280l-217 -280h217zM1845 145v-145h-192v145h-410v168l404 527h198v-518h103v-177h-103zM543 0l880 1360h205l-880 -1360h-205z" />
    <glyph glyph-name="onehalf" unicode="&#xbd;" horiz-adv-x="2002" 
d="M639 520h-193v613l-210 -127v192l247 162h156v-840zM1878 176v-176h-588v184l207 160q111 86 149 132t37 97q0 103 -137 103t-235 -103h-11v209q100 70 254 70t239 -68t85 -176t-50 -179t-196 -183l-86 -66v-4h332zM459 0l880 1360h205l-880 -1360h-205z" />
    <glyph glyph-name="threequarters" unicode="&#xbe;" horiz-adv-x="2002" 
d="M131 793h10q88 -109 262 -109q139 0 140 94q0 86 -148 86h-108v160h94q152 0 151 82q0 90 -140 90t-234 -100h-11v207q102 69 260 69t238 -63t80 -181t-104 -178v-4q117 -59 117 -184t-88 -190q-86 -64 -258 -64t-261 76v209zM1653 322v280l-217 -280h217zM1845 145v-145
h-192v145h-410v168l404 527h198v-518h103v-177h-103zM547 0l880 1360h205l-880 -1360h-205z" />
    <glyph glyph-name="questiondown" unicode="&#xbf;" horiz-adv-x="1017" 
d="M588 1042q-72 0 -120 50t-48 120q0 72 48 120t120 48t121 -48t49 -120t-49 -121t-121 -49zM560 -20q-242 0 -376 105q-133 105 -133 292q0 152 96 251t310 169v125h262v-291q-207 -43 -293 -97t-86 -136t55 -123q55 -42 154 -42q244 0 405 168h15v-303
q-167 -118 -409 -118z" />
    <glyph glyph-name="Agrave" unicode="&#xc0;" horiz-adv-x="1509" 
d="M645 1483l-264 348h283l227 -348h-246zM752 1012h-4l-207 -523h420zM1155 0l-92 229h-625l-92 -229h-317l579 1360h293l580 -1360h-326z" />
    <glyph glyph-name="Aacute" unicode="&#xc1;" horiz-adv-x="1509" 
d="M618 1483l228 348h282l-264 -348h-246zM752 1012h-4l-207 -523h420zM1155 0l-92 229h-625l-92 -229h-317l579 1360h293l580 -1360h-326z" />
    <glyph glyph-name="Acircumflex" unicode="&#xc2;" horiz-adv-x="1509" 
d="M756 1647l-131 -164h-246l252 348h248l251 -348h-245zM752 1012h-4l-207 -523h420zM1155 0l-92 229h-625l-92 -229h-317l579 1360h293l580 -1360h-326z" />
    <glyph glyph-name="Atilde" unicode="&#xc3;" horiz-adv-x="1509" 
d="M1092 1812v-206q-70 -115 -191 -115q-78 0 -161 46t-144 46q-106 0 -166 -113h-10v207q66 115 190 115q78 0 161 -46t144 -46q102 0 166 112h11zM752 1012h-4l-207 -523h420zM1155 0l-92 229h-625l-92 -229h-317l579 1360h293l580 -1360h-326z" />
    <glyph glyph-name="Adieresis" unicode="&#xc4;" horiz-adv-x="1509" 
d="M973 1794q69 0 109 -43t40 -110t-41 -109t-109 -43q-68 0 -110 44q-43 43 -43 109t43 109t111 43zM539 1794q69 0 111 -43t42 -109t-43 -110t-111 -43q-68 0 -108 43q-41 44 -41 110t41 109t109 43zM752 1012h-4l-207 -523h420zM1155 0l-92 229h-625l-92 -229h-317
l579 1360h293l580 -1360h-326z" />
    <glyph glyph-name="Aring" unicode="&#xc5;" horiz-adv-x="1509" 
d="M756 1741q-37 0 -61 -23q-23 -24 -23 -62t24 -61t60 -23t60 24q24 22 24 61t-24 61t-60 23zM756 1880q98 0 160 -62t62 -160t-62 -162q-62 -62 -160 -62t-161 62t-63 160t63 162q63 62 161 62zM752 1012h-4l-207 -523h420zM1155 0l-92 229h-625l-92 -229h-317l579 1360
h293l580 -1360h-326z" />
    <glyph glyph-name="AE" unicode="&#xc6;" horiz-adv-x="2150" 
d="M1034 1059h-4l-364 -570h368v570zM1337 809h568v-254h-568v-285h715v-270h-1018v229h-534l-148 -229h-344l903 1360h1141v-270h-715v-281z" />
    <glyph glyph-name="Ccedilla" unicode="&#xc7;" horiz-adv-x="1304" 
d="M805 1110q-197 0 -316 -118t-119 -312t120 -312q118 -118 315 -118q258 0 389 168h14v-332q-156 -104 -399 -106l-43 -76v-4q203 0 203 -152q0 -158 -252 -158q-115 0 -185 29v137h11q72 -39 164 -39q33 -1 51 13t18 34q0 49 -76 50q-47 0 -96 -13v31l88 154
q-284 29 -456 220t-172 487t201 492q202 196 526 195q260 0 417 -106v-332h-14q-133 168 -389 168z" />
    <glyph glyph-name="Egrave" unicode="&#xc8;" horiz-adv-x="1261" 
d="M543 1483l-264 348h282l227 -348h-245zM1016 809v-254h-567v-285h714v-270h-1018v1360h1018v-270h-714v-281h567z" />
    <glyph glyph-name="Eacute" unicode="&#xc9;" horiz-adv-x="1261" 
d="M516 1483l227 348h283l-264 -348h-246zM1016 809v-254h-567v-285h714v-270h-1018v1360h1018v-270h-714v-281h567z" />
    <glyph glyph-name="Ecircumflex" unicode="&#xca;" horiz-adv-x="1261" 
d="M653 1647l-131 -164h-246l252 348h248l252 -348h-246zM1016 809v-254h-567v-285h714v-270h-1018v1360h1018v-270h-714v-281h567z" />
    <glyph glyph-name="Edieresis" unicode="&#xcb;" horiz-adv-x="1261" 
d="M870 1794q68 0 109 -43t41 -110t-41 -109t-109 -43q-68 0 -110 44q-42 43 -43 109q1 66 43 109t110 43zM436 1794q68 0 111 -43t43 -109t-43 -110t-111 -43q-68 0 -108 43q-40 44 -41 110q1 66 41 109t108 43zM1016 809v-254h-567v-285h714v-270h-1018v1360h1018v-270
h-714v-281h567z" />
    <glyph glyph-name="Igrave" unicode="&#xcc;" horiz-adv-x="593" 
d="M186 1483l-264 348h283l227 -348h-246zM145 0v1360h304v-1360h-304z" />
    <glyph glyph-name="Iacute" unicode="&#xcd;" horiz-adv-x="593" 
d="M160 1483l227 348h283l-264 -348h-246zM145 0v1360h304v-1360h-304z" />
    <glyph glyph-name="Icircumflex" unicode="&#xce;" horiz-adv-x="593" 
d="M297 1647l-131 -164h-246l252 348h248l252 -348h-246zM145 0v1360h304v-1360h-304z" />
    <glyph glyph-name="Idieresis" unicode="&#xcf;" horiz-adv-x="593" 
d="M514 1794q68 0 109 -43t41 -110t-41 -109t-109 -43q-68 0 -111 44q-43 43 -43 109t43 109t111 43zM80 1794q68 0 110 -43t43 -109q0 -66 -43 -110q-42 -44 -110 -43q-68 0 -109 43q-41 44 -41 110t41 109t109 43zM145 0v1360h304v-1360h-304z" />
    <glyph glyph-name="Eth" unicode="&#xd0;" horiz-adv-x="1513" 
d="M483 270h226q213 0 325 104t111 306q0 201 -112 305t-324 105h-226v-287h295v-236h-295v-297zM180 1360h547q345 0 535 -178t190 -502t-189 -502t-536 -178h-547v567h-141v236h141v557z" />
    <glyph glyph-name="Ntilde" unicode="&#xd1;" horiz-adv-x="1517" 
d="M1094 1812v-206q-70 -115 -191 -115q-78 0 -161 46t-144 46q-106 0 -166 -113h-10v207q66 115 190 115q78 0 161 -46t145 -46q102 0 165 112h11zM438 1010v-1010h-293v1360h416l514 -914h4v914h293v-1360h-364l-566 1010h-4z" />
    <glyph glyph-name="Ograve" unicode="&#xd2;" horiz-adv-x="1556" 
d="M668 1483l-265 348h283l227 -348h-245zM778 1110q-180 0 -294 -120t-114 -310t114 -310t294 -120t294 120t114 310t-114 310t-294 120zM778 1380q315 0 515 -196t200 -504q0 -307 -200 -504q-200 -196 -515 -196t-515 196t-200 504t200 504t515 196z" />
    <glyph glyph-name="Oacute" unicode="&#xd3;" horiz-adv-x="1556" 
d="M641 1483l227 348h283l-264 -348h-246zM778 1110q-180 0 -294 -120t-114 -310t114 -310t294 -120t294 120t114 310t-114 310t-294 120zM778 1380q315 0 515 -196t200 -504q0 -307 -200 -504q-200 -196 -515 -196t-515 196t-200 504t200 504t515 196z" />
    <glyph glyph-name="Ocircumflex" unicode="&#xd4;" horiz-adv-x="1556" 
d="M778 1647l-131 -164h-246l252 348h248l252 -348h-246zM778 1110q-180 0 -294 -120t-114 -310t114 -310t294 -120t294 120t114 310t-114 310t-294 120zM778 1380q315 0 515 -196t200 -504q0 -307 -200 -504q-200 -196 -515 -196t-515 196t-200 504t200 504t515 196z" />
    <glyph glyph-name="Otilde" unicode="&#xd5;" horiz-adv-x="1556" 
d="M1114 1812v-206q-70 -115 -190 -115q-78 0 -161 46t-145 46q-106 0 -165 -113h-11v207q66 115 191 115q78 0 161 -46t144 -46q102 0 166 112h10zM778 1110q-180 0 -294 -120t-114 -310t114 -310t294 -120t294 120t114 310t-114 310t-294 120zM778 1380q315 0 515 -196
t200 -504q0 -307 -200 -504q-200 -196 -515 -196t-515 196t-200 504t200 504t515 196z" />
    <glyph glyph-name="Odieresis" unicode="&#xd6;" horiz-adv-x="1556" 
d="M995 1794q68 0 109 -43t41 -110t-41 -109t-109 -43q-69 0 -111 44q-42 43 -42 109t42 109t111 43zM561 1794q68 0 111 -43t43 -109t-43 -110t-111 -43q-69 0 -109 43q-40 44 -40 110t40 109t109 43zM778 1110q-180 0 -294 -120t-114 -310t114 -310t294 -120t294 120
t114 310t-114 310t-294 120zM778 1380q315 0 515 -196t200 -504q0 -307 -200 -504q-200 -196 -515 -196t-515 196t-200 504t200 504t515 196z" />
    <glyph glyph-name="multiply" unicode="&#xd7;" horiz-adv-x="1331" 
d="M1219 229l-168 -168l-385 385l-385 -385l-168 168l385 385l-385 385l168 168l385 -385l385 385l168 -168l-385 -385z" />
    <glyph glyph-name="Oslash" unicode="&#xd8;" horiz-adv-x="1556" 
d="M1186 680q0 135 -62 240l-528 -631q84 -39 182 -39q180 0 294 120t114 310zM371 680q0 -135 61 -240l529 631q-84 39 -183 39q-180 0 -294 -120t-113 -310zM1493 666q0 -294 -200 -490q-200 -197 -515 -196q-207 0 -366 88l-58 -68h-291l173 205q-172 195 -172 489
t199 490q200 197 515 196q207 0 367 -88l57 68h291l-172 -205q172 -195 172 -489z" />
    <glyph glyph-name="Ugrave" unicode="&#xd9;" horiz-adv-x="1413" 
d="M596 1483l-264 348h282l228 -348h-246zM1298 1360v-780q0 -600 -596 -600q-588 0 -587 600v780h303v-760q0 -350 294 -350t294 350v760h292z" />
    <glyph glyph-name="Uacute" unicode="&#xda;" horiz-adv-x="1413" 
d="M569 1483l228 348h282l-264 -348h-246zM1298 1360v-780q0 -600 -596 -600q-588 0 -587 600v780h303v-760q0 -350 294 -350t294 350v760h292z" />
    <glyph glyph-name="Ucircumflex" unicode="&#xdb;" horiz-adv-x="1413" 
d="M707 1647l-132 -164h-245l252 348h247l252 -348h-245zM1298 1360v-780q0 -600 -596 -600q-588 0 -587 600v780h303v-760q0 -350 294 -350t294 350v760h292z" />
    <glyph glyph-name="Udieresis" unicode="&#xdc;" horiz-adv-x="1413" 
d="M924 1794q68 0 108 -43t41 -110q0 -67 -41 -109q-40 -42 -108 -43q-68 0 -111 44q-43 43 -43 109t43 109t111 43zM489 1794q68 0 111 -43t43 -109t-43 -110t-111 -43q-69 0 -109 43q-40 44 -40 110t40 109t109 43zM1298 1360v-780q0 -600 -596 -600q-588 0 -587 600v780
h303v-760q0 -350 294 -350t294 350v760h292z" />
    <glyph glyph-name="Yacute" unicode="&#xdd;" horiz-adv-x="1431" 
d="M580 1483l227 348h283l-265 -348h-245zM868 0h-303v557l-557 803h367l346 -526l346 526h356l-555 -803v-557z" />
    <glyph glyph-name="Thorn" unicode="&#xde;" horiz-adv-x="1314" 
d="M449 526h282q221 0 221 182t-221 183h-282v-365zM449 1161h296q254 -1 384 -115q131 -114 131 -337t-130 -338t-385 -115h-296v-256h-304v1360h304v-199z" />
    <glyph glyph-name="germandbls" unicode="&#xdf;" horiz-adv-x="1134" 
d="M547 1454q183 0 289 -92t106 -260t-129 -281q-55 -47 -55 -80t20 -49t80 -37q130 -43 188 -126t58 -233t-94 -233t-270 -83t-283 59v272h10q101 -94 237 -94t136 90q0 49 -28 79t-123 64t-140 96t-45 188t114 235q70 68 70 118q0 129 -139 130q-162 0 -162 -175v-1042
h-268v1055q0 399 428 399z" />
    <glyph glyph-name="agrave" unicode="&#xe0;" horiz-adv-x="1202" 
d="M463 1102l-264 348h282l228 -348h-246zM580 217q108 0 176 74q68 75 68 191t-68 190t-176 74t-178 -74q-68 -74 -68 -191t68 -191t178 -73zM1083 0h-223l-8 129h-4q-100 -149 -309 -149t-342 142t-134 359t133 359t344 143q210 0 306 -145h4l10 125h223v-963z" />
    <glyph glyph-name="aacute" unicode="&#xe1;" horiz-adv-x="1202" 
d="M436 1102l228 348h282l-264 -348h-246zM580 217q108 0 176 74q68 75 68 191t-68 190t-176 74t-178 -74q-68 -74 -68 -191t68 -191t178 -73zM1083 0h-223l-8 129h-4q-100 -149 -309 -149t-342 142t-134 359t133 359t344 143q210 0 306 -145h4l10 125h223v-963z" />
    <glyph glyph-name="acircumflex" unicode="&#xe2;" horiz-adv-x="1202" 
d="M573 1266l-131 -164h-245l252 348h247l252 -348h-246zM580 217q108 0 176 74q68 75 68 191t-68 190t-176 74t-178 -74q-68 -74 -68 -191t68 -191t178 -73zM1083 0h-223l-8 129h-4q-100 -149 -309 -149t-342 142t-134 359t133 359t344 143q210 0 306 -145h4l10 125h223
v-963z" />
    <glyph glyph-name="atilde" unicode="&#xe3;" horiz-adv-x="1202" 
d="M909 1432v-207q-70 -115 -190 -115q-78 0 -161 46t-144 46q-106 0 -166 -112h-10v206q66 115 190 115q78 0 161 -46t144 -46q102 0 166 113h10zM580 217q108 0 176 74q68 75 68 191t-68 190t-176 74t-178 -74q-68 -74 -68 -191t68 -191t178 -73zM1083 0h-223l-8 129h-4
q-100 -149 -309 -149t-342 142t-134 359t133 359t344 143q210 0 306 -145h4l10 125h223v-963z" />
    <glyph glyph-name="adieresis" unicode="&#xe4;" horiz-adv-x="1202" 
d="M791 1413q69 0 109 -43q40 -44 40 -110t-41 -109t-109 -43t-110 44q-43 44 -43 110t43 108t111 43zM356 1413q68 0 111 -43q43 -42 43 -108t-43 -110t-111 -44t-108 43t-41 110q1 67 41 109t108 43zM580 217q108 0 176 74q68 75 68 191t-68 190t-176 74t-178 -74
q-68 -74 -68 -191t68 -191t178 -73zM1083 0h-223l-8 129h-4q-100 -149 -309 -149t-342 142t-134 359t133 359t344 143q210 0 306 -145h4l10 125h223v-963z" />
    <glyph glyph-name="aring" unicode="&#xe5;" horiz-adv-x="1202" 
d="M573 1360q-37 0 -61 -23t-23 -61q0 -38 24 -62q25 -22 61 -22t60 22t23 62q1 40 -23 62t-61 22zM573 1499q99 0 161 -62q62 -63 62 -161t-62 -160t-160 -63q-98 0 -161 62q-63 63 -63 161t62 160t161 63zM580 217q108 0 176 74q68 75 68 191t-68 190t-176 74t-178 -74
q-68 -74 -68 -191t68 -191t178 -73zM1083 0h-223l-8 129h-4q-100 -149 -309 -149t-342 142t-134 359t133 359t344 143q210 0 306 -145h4l10 125h223v-963z" />
    <glyph glyph-name="ae" unicode="&#xe6;" horiz-adv-x="1878" 
d="M1336 752q-96 0 -162 -48q-64 -48 -87 -129h488q-15 81 -79 129t-160 48zM580 217q108 0 176 74q68 75 68 191t-68 190t-176 74t-178 -74q-68 -74 -68 -191t68 -191t178 -73zM1817 414h-730q19 -96 105 -150t215 -53q221 0 342 117h10v-258q-127 -90 -325 -90
q-260 0 -373 145h-4l-4 -125h-199l-4 125h-4q-100 -145 -308 -145t-341 142t-134 359t133 359t341 143q207 0 307 -141h4l6 121h199l4 -121h4q102 141 315 141t327 -121t114 -340v-108z" />
    <glyph glyph-name="ccedilla" unicode="&#xe7;" horiz-adv-x="974" 
d="M616 745q-130 -1 -206 -71t-76 -192t76 -194t206 -71q168 0 261 123h10v-289q-92 -66 -271 -71l-43 -76v-4q203 0 203 -152q0 -158 -252 -158q-115 0 -184 29v137h10q72 -39 164 -39q33 -1 51 13t19 34q0 49 -76 50q-47 0 -96 -13v31l88 154q-199 28 -318 162t-119 344
q-1 210 145 350t380 141q190 0 299 -72v-286h-10q-95 120 -261 120z" />
    <glyph glyph-name="egrave" unicode="&#xe8;" horiz-adv-x="1114" 
d="M459 1102l-264 348h282l228 -348h-246zM577 752q-91 0 -157 -47t-86 -130h475q-14 85 -77 131t-155 46zM1051 414h-717q20 -96 104 -150t209 -53q215 0 336 117h10v-258q-125 -90 -369 -90t-402 139q-159 139 -159 361q-1 222 141 362t363 141q221 0 353 -124t131 -337
v-108z" />
    <glyph glyph-name="eacute" unicode="&#xe9;" horiz-adv-x="1114" 
d="M432 1102l227 348h283l-264 -348h-246zM577 752q-91 0 -157 -47t-86 -130h475q-14 85 -77 131t-155 46zM1051 414h-717q20 -96 104 -150t209 -53q215 0 336 117h10v-258q-125 -90 -369 -90t-402 139q-159 139 -159 361q-1 222 141 362t363 141q221 0 353 -124t131 -337
v-108z" />
    <glyph glyph-name="ecircumflex" unicode="&#xea;" horiz-adv-x="1114" 
d="M569 1266l-131 -164h-245l251 348h248l252 -348h-246zM577 752q-91 0 -157 -47t-86 -130h475q-14 85 -77 131t-155 46zM1051 414h-717q20 -96 104 -150t209 -53q215 0 336 117h10v-258q-125 -90 -369 -90t-402 139q-159 139 -159 361q-1 222 141 362t363 141
q221 0 353 -124t131 -337v-108z" />
    <glyph glyph-name="edieresis" unicode="&#xeb;" horiz-adv-x="1114" 
d="M786 1413q68 0 109 -43q41 -44 41 -110t-41 -109t-109 -43t-110 44t-43 110q1 66 43 108t110 43zM352 1413q68 0 111 -43q43 -42 43 -108t-43 -110t-111 -44t-108 43t-41 110q1 67 41 109t108 43zM577 752q-91 0 -157 -47t-86 -130h475q-14 85 -77 131t-155 46zM1051 414
h-717q20 -96 104 -150t209 -53q215 0 336 117h10v-258q-125 -90 -369 -90t-402 139q-159 139 -159 361q-1 222 141 362t363 141q221 0 353 -124t131 -337v-108z" />
    <glyph glyph-name="igrave" unicode="&#xec;" horiz-adv-x="507" 
d="M143 1102l-264 348h283l227 -348h-246zM387 963v-963h-268v963h268z" />
    <glyph glyph-name="iacute" unicode="&#xed;" horiz-adv-x="507" 
d="M117 1102l227 348h283l-265 -348h-245zM387 963v-963h-268v963h268z" />
    <glyph glyph-name="icircumflex" unicode="&#xee;" horiz-adv-x="507" 
d="M254 1266l-131 -164h-246l252 348h248l252 -348h-246zM387 963v-963h-268v963h268z" />
    <glyph glyph-name="idieresis" unicode="&#xef;" horiz-adv-x="507" 
d="M471 1413q68 0 109 -43q41 -44 41 -110t-41 -109t-109 -43t-111 44t-43 110t43 108t111 43zM37 1413q69 0 111 -43q42 -42 42 -108t-43 -110t-111 -44t-108 43q-41 43 -41 110t41 109t109 43zM387 963v-963h-268v963h268z" />
    <glyph glyph-name="eth" unicode="&#xf0;" horiz-adv-x="1157" 
d="M580 217q108 0 176 74q68 75 68 191t-68 190t-176 74t-178 -74q-68 -74 -68 -191t68 -191t178 -73zM1094 516q0 -244 -144 -390t-370 -146q-227 0 -372 141q-144 141 -144 359t132 360q134 142 339 143q106 0 182 -41l4 2q-49 86 -123 166l-313 -106v153l192 66
q-121 109 -301 200v11h406q41 -25 155 -121l211 71v-155l-96 -33q242 -285 242 -680z" />
    <glyph glyph-name="ntilde" unicode="&#xf1;" horiz-adv-x="1132" 
d="M903 1432v-207q-70 -115 -190 -115q-78 0 -161 46t-144 46q-106 0 -166 -112h-11v206q66 115 191 115q78 0 161 -46t144 -46q102 0 166 113h10zM657 983q175 0 275 -109t100 -303v-571h-268v539q0 100 -47 153t-136 53t-141 -60t-53 -173v-512h-268v963h223l10 -138h4
q90 158 301 158z" />
    <glyph glyph-name="ograve" unicode="&#xf2;" horiz-adv-x="1157" 
d="M469 1102l-264 348h282l228 -348h-246zM580 745q-109 1 -178 -73q-68 -74 -68 -191t68 -191t178 -73q108 0 176 74q68 75 68 191t-68 190q-67 74 -176 73zM579 983q226 0 370 -140q145 -141 145 -361t-144 -361t-371 -141q-226 0 -371 141q-144 141 -144 361t144 360
q145 140 371 141z" />
    <glyph glyph-name="oacute" unicode="&#xf3;" horiz-adv-x="1157" 
d="M442 1102l228 348h282l-264 -348h-246zM580 745q-109 1 -178 -73q-68 -74 -68 -191t68 -191t178 -73q108 0 176 74q68 75 68 191t-68 190q-67 74 -176 73zM579 983q226 0 370 -140q145 -141 145 -361t-144 -361t-371 -141q-226 0 -371 141q-144 141 -144 361t144 360
q145 140 371 141z" />
    <glyph glyph-name="ocircumflex" unicode="&#xf4;" horiz-adv-x="1157" 
d="M580 1266l-131 -164h-246l252 348h247l252 -348h-245zM580 745q-109 1 -178 -73q-68 -74 -68 -191t68 -191t178 -73q108 0 176 74q68 75 68 191t-68 190q-67 74 -176 73zM579 983q226 0 370 -140q145 -141 145 -361t-144 -361t-371 -141q-226 0 -371 141
q-144 141 -144 361t144 360q145 140 371 141z" />
    <glyph glyph-name="otilde" unicode="&#xf5;" horiz-adv-x="1157" 
d="M915 1432v-207q-70 -115 -190 -115q-78 0 -161 46t-144 46q-106 0 -166 -112h-10v206q66 115 190 115q78 0 161 -46t144 -46q102 0 166 113h10zM580 745q-109 1 -178 -73q-68 -74 -68 -191t68 -191t178 -73q108 0 176 74q68 75 68 191t-68 190q-67 74 -176 73zM579 983
q226 0 370 -140q145 -141 145 -361t-144 -361t-371 -141q-226 0 -371 141q-144 141 -144 361t144 360q145 140 371 141z" />
    <glyph glyph-name="odieresis" unicode="&#xf6;" horiz-adv-x="1157" 
d="M797 1413q69 0 109 -43q40 -44 40 -110t-41 -109t-109 -43t-110 44q-43 44 -43 110t43 108t111 43zM362 1413q68 0 111 -43q43 -42 43 -108t-43 -110t-111 -44t-108 43t-41 110q1 67 41 109t108 43zM580 745q-109 1 -178 -73q-68 -74 -68 -191t68 -191t178 -73
q108 0 176 74q68 75 68 191t-68 190q-67 74 -176 73zM579 983q226 0 370 -140q145 -141 145 -361t-144 -361t-371 -141q-226 0 -371 141q-144 141 -144 361t144 360q145 140 371 141z" />
    <glyph glyph-name="divide" unicode="&#xf7;" horiz-adv-x="1331" 
d="M666 299q66 0 106 -41q40 -40 41 -106q0 -66 -42 -107t-105 -41t-106 41q-42 41 -42 107t41 106t107 41zM84 496v237h1163v-237h-1163zM666 1225q63 0 105 -41t42 -107q0 -67 -41 -107q-40 -40 -106 -40t-107 41t-41 107t42 106q43 41 106 41z" />
    <glyph glyph-name="oslash" unicode="&#xf8;" horiz-adv-x="1157" 
d="M823 481q0 57 -20 115l-293 -371q41 -8 70 -8q109 -1 176 73t67 191zM334 481q0 -57 20 -114l293 370q-41 8 -67 8q-109 0 -178 -73q-68 -74 -68 -191zM1094 471q0 -209 -144 -350t-370 -141q-123 0 -230 45l-20 -25h-267l119 150q-119 136 -119 344q1 208 145 348
t372 141q121 0 227 -45l20 25h267l-117 -148q117 -135 117 -344z" />
    <glyph glyph-name="ugrave" unicode="&#xf9;" horiz-adv-x="1130" 
d="M444 1102l-264 348h283l227 -348h-246zM1012 0h-224l-10 137h-4q-90 -158 -299 -157q-176 0 -275 110t-100 303v570h269v-539q0 -100 47 -154t135 -53q88 -1 140 61t52 173v512h269v-963z" />
    <glyph glyph-name="uacute" unicode="&#xfa;" horiz-adv-x="1130" 
d="M418 1102l227 348h283l-264 -348h-246zM1012 0h-224l-10 137h-4q-90 -158 -299 -157q-176 0 -275 110t-100 303v570h269v-539q0 -100 47 -154t135 -53q88 -1 140 61t52 173v512h269v-963z" />
    <glyph glyph-name="ucircumflex" unicode="&#xfb;" horiz-adv-x="1130" 
d="M555 1266l-131 -164h-246l252 348h248l252 -348h-246zM1012 0h-224l-10 137h-4q-90 -158 -299 -157q-176 0 -275 110t-100 303v570h269v-539q0 -100 47 -154t135 -53q88 -1 140 61t52 173v512h269v-963z" />
    <glyph glyph-name="udieresis" unicode="&#xfc;" horiz-adv-x="1130" 
d="M772 1413q68 0 109 -43q41 -44 41 -110t-41 -109t-109 -43t-110 44t-44 110q0 66 43 108t111 43zM338 1413q68 0 111 -43q43 -42 43 -108t-43 -110t-111 -44t-109 43t-41 110t41 109t109 43zM1012 0h-224l-10 137h-4q-90 -158 -299 -157q-176 0 -275 110t-100 303v570
h269v-539q0 -100 47 -154t135 -53q88 -1 140 61t52 173v512h269v-963z" />
    <glyph glyph-name="yacute" unicode="&#xfd;" horiz-adv-x="1040" 
d="M383 1102l227 348h283l-264 -348h-246zM477 -389h-276l182 420l-371 932h287l225 -635h4l224 635h276z" />
    <glyph glyph-name="thorn" unicode="&#xfe;" horiz-adv-x="1204" 
d="M381 481q-1 -117 67 -191t178 -73q110 0 178 74q68 75 66 191q0 116 -67 190t-177 74t-178 -74t-67 -191zM684 983q192 0 324 -142q133 -141 133 -359t-133 -360q-132 -142 -324 -142t-293 104h-4v-473h-268v1823h268v-555h4q101 104 293 104z" />
    <glyph glyph-name="ydieresis" unicode="&#xff;" horiz-adv-x="1040" 
d="M737 1413q68 0 109 -43q41 -44 41 -110t-41 -109t-109 -43q-69 0 -111 44t-42 110t42 108t111 43zM303 1413q68 0 111 -43q43 -42 43 -108t-43 -110t-111 -44q-69 0 -109 43t-40 110t40 109t109 43zM477 -389h-276l182 420l-371 932h287l225 -635h4l224 635h276z" />
    <glyph glyph-name="Amacron" unicode="&#x100;" horiz-adv-x="1509" 
d="M420 1536v211h672v-211h-672zM752 1012h-4l-207 -523h420zM1155 0l-92 229h-625l-92 -229h-317l579 1360h293l580 -1360h-326z" />
    <glyph glyph-name="amacron" unicode="&#x101;" horiz-adv-x="1202" 
d="M238 1155v211h671v-211h-671zM580 217q108 0 176 74q68 75 68 191t-68 190t-176 74t-178 -74q-68 -74 -68 -191t68 -191t178 -73zM1083 0h-223l-8 129h-4q-100 -149 -309 -149t-342 142t-134 359t133 359t344 143q210 0 306 -145h4l10 125h223v-963z" />
    <glyph glyph-name="Abreve" unicode="&#x102;" horiz-adv-x="1509" 
d="M756 1487q-164 0 -255 86t-100 248h191q20 -131 164 -131t164 131h190q-8 -162 -99 -248t-255 -86zM752 1012h-4l-207 -523h420zM1155 0l-92 229h-625l-92 -229h-317l579 1360h293l580 -1360h-326z" />
    <glyph glyph-name="abreve" unicode="&#x103;" horiz-adv-x="1202" 
d="M573 1106q-164 0 -255 86t-99 248h191q20 -131 164 -131t163 131h191q-8 -162 -100 -248t-255 -86zM580 217q108 0 176 74q68 75 68 191t-68 190t-176 74t-178 -74q-68 -74 -68 -191t68 -191t178 -73zM1083 0h-223l-8 129h-4q-100 -149 -309 -149t-342 142t-134 359
t133 359t344 143q210 0 306 -145h4l10 125h223v-963z" />
    <glyph glyph-name="Aogonek" unicode="&#x104;" horiz-adv-x="1509" 
d="M752 1012h-4l-207 -523h420zM1337 -236q70 0 133 56h11v-195q-73 -35 -183 -35t-172 50t-61 135q0 133 127 221v4h-37l-92 229h-625l-92 -229h-317l579 1360h293l580 -1360h-76q-143 -61 -143 -164q0 -32 21 -52t54 -20z" />
    <glyph glyph-name="aogonek" unicode="&#x105;" horiz-adv-x="1202" 
d="M580 217q108 0 176 74q68 75 68 191t-68 190t-176 74t-178 -74q-68 -74 -68 -191t68 -191t178 -73zM1083 0h-75q-143 -61 -144 -164q0 -33 22 -52t54 -20q68 0 133 56h10v-195q-74 -35 -183 -35q-108 0 -170 50t-62 135q0 164 190 258l-6 96h-4q-100 -149 -309 -149
t-342 142t-134 359t133 359t344 143q210 0 306 -145h4l10 125h223v-963z" />
    <glyph glyph-name="Cacute" unicode="&#x106;" horiz-adv-x="1304" 
d="M594 1483l227 348h283l-264 -348h-246zM791 1380q260 0 417 -106v-332h-14q-133 168 -389 168q-197 0 -316 -118t-119 -312t120 -312q118 -118 315 -118q258 0 389 168h14v-332q-162 -106 -417 -106q-324 0 -526 196t-202 504t202 504t526 196z" />
    <glyph glyph-name="cacute" unicode="&#x107;" horiz-adv-x="974" 
d="M416 1102l227 348h283l-264 -348h-246zM588 983q190 0 299 -72v-286h-10q-94 121 -261 120q-130 -1 -206 -71t-76 -192t76 -194t206 -71q168 0 261 123h10v-289q-102 -72 -299 -71q-233 0 -379 140q-145 140 -146 361q0 221 146 361t379 141z" />
    <glyph glyph-name="Ccircumflex" unicode="&#x108;" horiz-adv-x="1304" 
d="M731 1647l-131 -164h-246l252 348h248l252 -348h-246zM791 1380q260 0 417 -106v-332h-14q-133 168 -389 168q-197 0 -316 -118t-119 -312t120 -312q118 -118 315 -118q258 0 389 168h14v-332q-162 -106 -417 -106q-324 0 -526 196t-202 504t202 504t526 196z" />
    <glyph glyph-name="ccircumflex" unicode="&#x109;" horiz-adv-x="974" 
d="M553 1266l-131 -164h-246l252 348h248l252 -348h-246zM588 983q190 0 299 -72v-286h-10q-94 121 -261 120q-130 -1 -206 -71t-76 -192t76 -194t206 -71q168 0 261 123h10v-289q-102 -72 -299 -71q-233 0 -379 140q-145 140 -146 361q0 221 146 361t379 141z" />
    <glyph glyph-name="Cdotaccent" unicode="&#x10a;" horiz-adv-x="1304" 
d="M731 1808q72 0 120 -47t48 -120t-48 -119t-120 -47q-72 0 -120 47q-48 48 -48 120t48 119t120 47zM791 1380q260 0 417 -106v-332h-14q-133 168 -389 168q-197 0 -316 -118t-119 -312t120 -312q118 -118 315 -118q258 0 389 168h14v-332q-162 -106 -417 -106
q-324 0 -526 196t-202 504t202 504t526 196z" />
    <glyph glyph-name="cdotaccent" unicode="&#x10b;" horiz-adv-x="974" 
d="M553 1427q72 0 120 -47q48 -48 48 -120t-48 -119t-120 -47t-120 47t-48 120t48 119t120 47zM588 983q190 0 299 -72v-286h-10q-94 121 -261 120q-130 -1 -206 -71t-76 -192t76 -194t206 -71q168 0 261 123h10v-289q-102 -72 -299 -71q-233 0 -379 140q-145 140 -146 361
q0 221 146 361t379 141z" />
    <glyph glyph-name="Ccaron" unicode="&#x10c;" horiz-adv-x="1304" 
d="M854 1483h-248l-252 348h246l131 -164l129 164h246zM791 1380q260 0 417 -106v-332h-14q-133 168 -389 168q-197 0 -316 -118t-119 -312t120 -312q118 -118 315 -118q258 0 389 168h14v-332q-162 -106 -417 -106q-324 0 -526 196t-202 504t202 504t526 196z" />
    <glyph glyph-name="ccaron" unicode="&#x10d;" horiz-adv-x="974" 
d="M676 1102h-248l-252 348h246l131 -164l129 164h246zM588 983q190 0 299 -72v-286h-10q-94 121 -261 120q-130 -1 -206 -71t-76 -192t76 -194t206 -71q168 0 261 123h10v-289q-102 -72 -299 -71q-233 0 -379 140q-145 140 -146 361q0 221 146 361t379 141z" />
    <glyph glyph-name="Dcaron" unicode="&#x10e;" horiz-adv-x="1478" 
d="M827 1483h-247l-252 348h245l132 -164l129 164h245zM449 270h225q212 0 324 104t112 306q0 201 -112 305t-324 105h-225v-820zM145 1360h547q346 0 536 -178t189 -502q0 -324 -189 -502t-536 -178h-547v1360z" />
    <glyph glyph-name="dcaron" unicode="&#x10f;" horiz-adv-x="1202" 
d="M1149 1032l55 402h271l-123 -402h-203zM580 217q108 0 176 74q68 75 68 191t-68 190t-176 74t-178 -74q-68 -74 -68 -191t68 -191t178 -73zM1083 0h-223l-8 129h-4q-100 -149 -309 -149t-342 142t-134 359t133 359t324 143q190 0 291 -102h4v553h268v-1434z" />
    <glyph glyph-name="Dcroat" unicode="&#x110;" horiz-adv-x="1513" 
d="M483 270h226q213 0 325 104t111 306q0 201 -112 305t-324 105h-226v-287h295v-236h-295v-297zM180 1360h547q345 0 535 -178t190 -502t-189 -502t-536 -178h-547v567h-141v236h141v557z" />
    <glyph glyph-name="dcroat" unicode="&#x111;" horiz-adv-x="1228" 
d="M580 217q108 0 176 74q68 75 68 191t-68 190t-176 74t-178 -74q-68 -74 -68 -191t68 -191t178 -73zM1083 0h-223l-8 129h-4q-100 -149 -309 -149t-342 142t-134 359t133 359t324 143q190 0 291 -102h4v192h-307v187h307v174h268v-174h146v-187h-146v-1073z" />
    <glyph glyph-name="Emacron" unicode="&#x112;" horiz-adv-x="1261" 
d="M317 1536v211h672v-211h-672zM1016 809v-254h-567v-285h714v-270h-1018v1360h1018v-270h-714v-281h567z" />
    <glyph glyph-name="emacron" unicode="&#x113;" horiz-adv-x="1114" 
d="M233 1155v211h672v-211h-672zM577 752q-91 0 -157 -47t-86 -130h475q-14 85 -77 131t-155 46zM1051 414h-717q20 -96 104 -150t209 -53q215 0 336 117h10v-258q-125 -90 -369 -90t-402 139q-159 139 -159 361q-1 222 141 362t363 141q221 0 353 -124t131 -337v-108z" />
    <glyph glyph-name="Ebreve" unicode="&#x114;" horiz-adv-x="1261" 
d="M653 1487q-164 0 -255 86t-99 248h190q20 -131 164 -131t164 131h191q-8 -162 -100 -248t-255 -86zM1016 809v-254h-567v-285h714v-270h-1018v1360h1018v-270h-714v-281h567z" />
    <glyph glyph-name="ebreve" unicode="&#x115;" horiz-adv-x="1114" 
d="M569 1106q-164 0 -255 86t-99 248h191q20 -131 164 -131t163 131h191q-8 -162 -100 -248t-255 -86zM577 752q-91 0 -157 -47t-86 -130h475q-14 85 -77 131t-155 46zM1051 414h-717q20 -96 104 -150t209 -53q215 0 336 117h10v-258q-125 -90 -369 -90t-402 139
q-159 139 -159 361q-1 222 141 362t363 141q221 0 353 -124t131 -337v-108z" />
    <glyph glyph-name="Edotaccent" unicode="&#x116;" horiz-adv-x="1261" 
d="M653 1808q72 0 120 -47t48 -120t-48 -119t-120 -47q-71 0 -119 47q-48 48 -48 120t47 119q48 47 120 47zM1016 809v-254h-567v-285h714v-270h-1018v1360h1018v-270h-714v-281h567z" />
    <glyph glyph-name="edotaccent" unicode="&#x117;" horiz-adv-x="1114" 
d="M569 1427q72 0 120 -47q48 -48 48 -120t-48 -119t-120 -47q-71 0 -119 47t-48 120t47 119q48 46 120 47zM577 752q-91 0 -157 -47t-86 -130h475q-14 85 -77 131t-155 46zM1051 414h-717q20 -96 104 -150t209 -53q215 0 336 117h10v-258q-125 -90 -369 -90t-402 139
q-159 139 -159 361q-1 222 141 362t363 141q221 0 353 -124t131 -337v-108z" />
    <glyph glyph-name="Eogonek" unicode="&#x118;" horiz-adv-x="1261" 
d="M449 809h567v-254h-567v-285h714v-270h-76q-143 -61 -143 -164q0 -33 22 -52t54 -20q70 0 133 56h10v-195q-74 -35 -183 -35q-108 0 -170 50t-62 135q0 133 126 221v4h-729v1360h1018v-270h-714v-281z" />
    <glyph glyph-name="eogonek" unicode="&#x119;" horiz-adv-x="1114" 
d="M577 752q-91 0 -157 -47t-86 -130h475q-14 85 -77 131t-155 46zM1051 522v-108h-717q20 -96 104 -150t209 -53q215 0 336 117h10v-258q-39 -27 -115 -58t-112 -77q-37 -46 -37 -88t23 -62t55 -21q70 0 133 56h10v-195q-74 -35 -182 -35t-170 50t-63 137q0 123 100 198v5
q-254 0 -413 139t-159 361q-1 222 141 362t363 141q221 0 353 -124t131 -337z" />
    <glyph glyph-name="Ecaron" unicode="&#x11a;" horiz-adv-x="1261" 
d="M776 1483h-248l-252 348h246l131 -164l129 164h246zM1016 809v-254h-567v-285h714v-270h-1018v1360h1018v-270h-714v-281h567z" />
    <glyph glyph-name="ecaron" unicode="&#x11b;" horiz-adv-x="1114" 
d="M692 1102h-248l-251 348h245l131 -164l129 164h246zM577 752q-91 0 -157 -47t-86 -130h475q-14 85 -77 131t-155 46zM1051 414h-717q20 -96 104 -150t209 -53q215 0 336 117h10v-258q-125 -90 -369 -90t-402 139q-159 139 -159 361q-1 222 141 362t363 141
q221 0 353 -124t131 -337v-108z" />
    <glyph glyph-name="Gcircumflex" unicode="&#x11c;" horiz-adv-x="1433" 
d="M758 1647l-131 -164h-246l252 348h248l252 -348h-246zM834 1110q-211 0 -337 -117t-126 -313t126 -314q126 -116 337 -116q92 0 176 18v232h-299v254h592v-668q-186 -106 -482 -106q-348 0 -553 189t-205 511t205 511t553 189q295 0 482 -106v-332h-15q-173 168 -454 168
z" />
    <glyph glyph-name="gcircumflex" unicode="&#x11d;" horiz-adv-x="1202" 
d="M573 1266l-131 -164h-245l252 348h247l252 -348h-246zM579 233q109 0 177 70q68 71 68 187t-68 186t-178 70t-177 -70t-67 -187t68 -187t177 -69zM170 -35q115 -137 362 -137q125 0 204 70t79 196v6h-4q-101 -104 -291 -104t-323 138t-134 355t133 355t343 139
q209 0 309 -147h4l8 127h223v-885q0 -224 -143 -356t-393 -132t-387 105v270h10z" />
    <glyph glyph-name="Gbreve" unicode="&#x11e;" horiz-adv-x="1433" 
d="M758 1487q-164 0 -255 86t-100 248h191q20 -131 164 -131t164 131h190q-8 -162 -99 -248t-255 -86zM834 1110q-211 0 -337 -117t-126 -313t126 -314q126 -116 337 -116q92 0 176 18v232h-299v254h592v-668q-186 -106 -482 -106q-348 0 -553 189t-205 511t205 511t553 189
q295 0 482 -106v-332h-15q-173 168 -454 168z" />
    <glyph glyph-name="gbreve" unicode="&#x11f;" horiz-adv-x="1202" 
d="M573 1106q-164 0 -255 86t-99 248h191q20 -131 164 -131t163 131h191q-8 -162 -100 -248t-255 -86zM579 233q109 0 177 70q68 71 68 187t-68 186t-178 70t-177 -70t-67 -187t68 -187t177 -69zM170 -35q115 -137 362 -137q125 0 204 70t79 196v6h-4q-101 -104 -291 -104
t-323 138t-134 355t133 355t343 139q209 0 309 -147h4l8 127h223v-885q0 -224 -143 -356t-393 -132t-387 105v270h10z" />
    <glyph glyph-name="Gdotaccent" unicode="&#x120;" horiz-adv-x="1433" 
d="M758 1808q72 0 120 -47t48 -120t-48 -119t-120 -47q-72 0 -120 47q-48 48 -48 120t48 119t120 47zM834 1110q-211 0 -337 -117t-126 -313t126 -314q126 -116 337 -116q92 0 176 18v232h-299v254h592v-668q-186 -106 -482 -106q-348 0 -553 189t-205 511t205 511t553 189
q295 0 482 -106v-332h-15q-173 168 -454 168z" />
    <glyph glyph-name="gdotaccent" unicode="&#x121;" horiz-adv-x="1202" 
d="M573 1427q72 0 120 -47q48 -48 48 -120t-48 -119t-120 -47q-71 0 -119 47t-48 120t48 119t119 47zM579 233q109 0 177 70q68 71 68 187t-68 186t-178 70t-177 -70t-67 -187t68 -187t177 -69zM170 -35q115 -137 362 -137q125 0 204 70t79 196v6h-4q-101 -104 -291 -104
t-323 138t-134 355t133 355t343 139q209 0 309 -147h4l8 127h223v-885q0 -224 -143 -356t-393 -132t-387 105v270h10z" />
    <glyph glyph-name="uni0122" unicode="&#x122;" horiz-adv-x="1433" 
d="M426 -430l199 307h270l-236 -307h-233zM834 1110q-211 0 -337 -117t-126 -313t126 -314q126 -116 337 -116q92 0 176 18v232h-299v254h592v-668q-186 -106 -482 -106q-348 0 -553 189t-205 511t205 511t553 189q295 0 482 -106v-332h-15q-173 168 -454 168z" />
    <glyph glyph-name="uni0123" unicode="&#x123;" horiz-adv-x="1204" 
d="M579 233q109 0 177 70q68 71 68 187t-68 186t-178 70t-177 -70t-67 -187t68 -187t177 -69zM170 -35q115 -137 362 -137q125 0 204 70t79 196v6h-4q-101 -104 -291 -104t-323 138t-134 355t133 355t343 139q209 0 309 -147h4l8 127h223v-885q0 -224 -143 -356t-393 -132
t-387 105v270h10zM924 1450l-228 -348h-270l264 348h234z" />
    <glyph glyph-name="Hcircumflex" unicode="&#x124;" horiz-adv-x="1503" 
d="M752 1647l-131 -164h-246l252 348h247l252 -348h-245zM1358 0h-305v549h-604v-549h-304v1360h304v-541h604v541h305v-1360z" />
    <glyph glyph-name="hcircumflex" unicode="&#x125;" horiz-adv-x="1132" 
d="M254 1710l-131 -164h-246l252 348h248l252 -348h-246zM658 983q174 0 274 -109t100 -303v-571h-268v539q0 100 -47 153t-136 53t-141 -60t-53 -173v-512h-268v1434h268v-560h4q92 109 267 109z" />
    <glyph glyph-name="Hbar" unicode="&#x126;" horiz-adv-x="1509" 
d="M453 967v-148h604v148h-604zM1362 967v-967h-305v549h-604v-549h-303v967h-105v207h105v186h303v-186h604v186h305v-186h100v-207h-100z" />
    <glyph glyph-name="hbar" unicode="&#x127;" horiz-adv-x="1146" 
d="M675 983q175 0 274 -109t100 -303v-571h-269v539q0 100 -47 153t-136 53t-141 -60t-53 -173v-512h-268v1073h-135v187h135v174h268v-174h291v-187h-291v-199h5q92 109 267 109z" />
    <glyph glyph-name="Itilde" unicode="&#x128;" horiz-adv-x="593" 
d="M633 1812v-206q-70 -115 -191 -115q-78 0 -161 46t-144 46q-106 0 -166 -113h-10v207q66 115 191 115q78 0 160 -46t145 -46q102 0 166 112h10zM145 0v1360h304v-1360h-304z" />
    <glyph glyph-name="itilde" unicode="&#x129;" horiz-adv-x="507" 
d="M590 1432v-207q-70 -115 -191 -115q-78 0 -161 46t-144 46q-106 0 -166 -112h-10v206q66 115 191 115q79 0 161 -46t144 -46q102 0 166 113h10zM387 963v-963h-268v963h268z" />
    <glyph glyph-name="Imacron" unicode="&#x12a;" horiz-adv-x="593" 
d="M-39 1536v211h672v-211h-672zM145 0v1360h304v-1360h-304z" />
    <glyph glyph-name="imacron" unicode="&#x12b;" horiz-adv-x="507" 
d="M-82 1155v211h672v-211h-672zM387 963v-963h-268v963h268z" />
    <glyph glyph-name="Ibreve" unicode="&#x12c;" horiz-adv-x="593" 
d="M297 1487q-164 0 -255 86t-99 248h190q20 -131 164 -131t164 131h190q-8 -162 -99 -248t-255 -86zM145 0v1360h304v-1360h-304z" />
    <glyph glyph-name="ibreve" unicode="&#x12d;" horiz-adv-x="507" 
d="M254 1106q-164 0 -255 86t-99 248h190q20 -131 164 -131t164 131h190q-8 -162 -99 -248t-255 -86zM387 963v-963h-268v963h268z" />
    <glyph glyph-name="Iogonek" unicode="&#x12e;" horiz-adv-x="593" 
d="M465 -180v-195q-73 -35 -183 -35t-171 50t-62 135q0 133 127 221v4h-31v1360h304v-1360h-70q-135 -68 -135 -164q0 -31 22 -51t56 -21q68 0 133 56h10z" />
    <glyph glyph-name="iogonek" unicode="&#x12f;" horiz-adv-x="507" 
d="M254 1425q72 0 119 -46q47 -47 47 -119t-47 -118t-119 -46t-119 46t-47 119t47 119t119 45zM258 -236q68 0 133 56h10v-195q-74 -35 -183 -35q-110 0 -170 50t-60 135q0 137 131 225v963h268v-963h-70q-135 -68 -135 -164q0 -32 22 -52t54 -20z" />
    <glyph glyph-name="Idotaccent" unicode="&#x130;" horiz-adv-x="593" 
d="M297 1808q72 0 120 -47t48 -120t-48 -119t-120 -47q-72 0 -120 47q-48 48 -48 120t48 119t120 47zM145 0v1360h304v-1360h-304z" />
    <glyph glyph-name="dotlessi" unicode="&#x131;" horiz-adv-x="507" 
d="M387 963v-963h-268v963h268z" />
    <glyph glyph-name="IJ" unicode="&#x132;" horiz-adv-x="1642" 
d="M1528 1360v-871q0 -510 -510 -509q-221 0 -371 106v320h15q49 -70 137 -113t184 -43q242 0 242 270v840h303zM145 0v1360h304v-1360h-304z" />
    <glyph glyph-name="ij" unicode="&#x133;" horiz-adv-x="1015" 
d="M895 963v-1053q0 -156 -77 -238t-218 -82q-74 0 -137 21v242h12q31 -25 72 -25q80 0 80 104v1031h268zM762 1425q72 0 119 -46q47 -47 47 -119t-47 -118t-119 -46t-119 46t-47 119t47 119t119 45zM119 0v963h268v-963h-268zM254 1425q72 0 119 -46q47 -47 47 -119
t-47 -118t-119 -46t-119 46t-47 119t47 119t119 45z" />
    <glyph glyph-name="Jcircumflex" unicode="&#x134;" horiz-adv-x="1048" 
d="M782 1647l-131 -164h-245l251 348h248l252 -348h-246zM934 1360v-871q0 -510 -510 -509q-221 0 -371 106v320h15q49 -70 137 -113t184 -43q242 0 242 270v840h303z" />
    <glyph glyph-name="jcircumflex" unicode="&#x135;" horiz-adv-x="507" 
d="M254 1266l-131 -164h-246l252 348h248l252 -348h-246zM387 963v-1053q0 -156 -77 -238t-218 -82q-74 0 -137 21v242h12q31 -25 72 -25q80 0 80 104v1031h268z" />
    <glyph glyph-name="uni0136" unicode="&#x136;" horiz-adv-x="1378" 
d="M358 -430l199 307h270l-235 -307h-234zM449 0h-304v1360h304v-572l499 572h383l-608 -668l629 -692h-400l-503 578v-578z" />
    <glyph glyph-name="uni0137" unicode="&#x137;" horiz-adv-x="1093" 
d="M219 -430l199 307h270l-235 -307h-234zM387 0h-268v1434h268v-865l332 394h332l-418 -469l438 -494h-346l-338 403v-403z" />
    <glyph glyph-name="kgreenlandic" unicode="&#x138;" horiz-adv-x="1093" 
d="M387 0h-268v963h268v-394l332 394h332l-418 -469l438 -494h-346l-338 403v-403z" />
    <glyph glyph-name="Lacute" unicode="&#x139;" horiz-adv-x="1187" 
d="M160 1483l227 348h283l-264 -348h-246zM1135 0h-990v1360h304v-1090h686v-270z" />
    <glyph glyph-name="lacute" unicode="&#x13a;" horiz-adv-x="505" 
d="M117 1546l227 348h283l-265 -348h-245zM119 0v1434h268v-1434h-268z" />
    <glyph glyph-name="uni013B" unicode="&#x13b;" horiz-adv-x="1187" 
d="M313 -430l199 307h270l-235 -307h-234zM1135 0h-990v1360h304v-1090h686v-270z" />
    <glyph glyph-name="uni013C" unicode="&#x13c;" horiz-adv-x="505" 
d="M-78 -430l199 307h270l-235 -307h-234zM119 0v1434h268v-1434h-268z" />
    <glyph glyph-name="Lcaron" unicode="&#x13d;" horiz-adv-x="1187" 
d="M580 1032l55 402h270l-123 -402h-202zM1135 0h-990v1360h304v-1090h686v-270z" />
    <glyph glyph-name="lcaron" unicode="&#x13e;" horiz-adv-x="675" 
d="M446 1032l56 402h270l-123 -402h-203zM119 0v1434h268v-1434h-268z" />
    <glyph glyph-name="Ldot" unicode="&#x13f;" horiz-adv-x="1187" 
d="M887 846q72 0 120 -47t48 -120t-48 -120t-120 -47t-120 47t-48 120t48 120t120 47zM1135 0h-990v1360h304v-1090h686v-270z" />
    <glyph glyph-name="ldot" unicode="&#x140;" horiz-adv-x="700" 
d="M604 846q72 0 120 -47t48 -120t-48 -120t-120 -47t-120 47t-48 120t48 120t120 47zM119 0v1434h268v-1434h-268z" />
    <glyph glyph-name="Lslash" unicode="&#x141;" horiz-adv-x="1220" 
d="M1169 0h-989v383l-141 -82v274l141 82v703h303v-531l467 269v-275l-467 -268v-285h686v-270z" />
    <glyph glyph-name="lslash" unicode="&#x142;" horiz-adv-x="567" 
d="M406 0h-269v451l-135 -82v249l135 82v734h269v-570l159 99v-250l-159 -99v-614z" />
    <glyph glyph-name="Nacute" unicode="&#x143;" horiz-adv-x="1517" 
d="M621 1483l227 348h282l-264 -348h-245zM438 1010v-1010h-293v1360h416l514 -914h4v914h293v-1360h-364l-566 1010h-4z" />
    <glyph glyph-name="nacute" unicode="&#x144;" horiz-adv-x="1132" 
d="M430 1102l227 348h283l-264 -348h-246zM657 983q175 0 275 -109t100 -303v-571h-268v539q0 100 -47 153t-136 53t-141 -60t-53 -173v-512h-268v963h223l10 -138h4q90 158 301 158z" />
    <glyph glyph-name="uni0145" unicode="&#x145;" horiz-adv-x="1517" 
d="M426 -430l199 307h270l-236 -307h-233zM438 1010v-1010h-293v1360h416l514 -914h4v914h293v-1360h-364l-566 1010h-4z" />
    <glyph glyph-name="uni0146" unicode="&#x146;" horiz-adv-x="1132" 
d="M244 -430l198 307h271l-236 -307h-233zM657 983q175 0 275 -109t100 -303v-571h-268v539q0 100 -47 153t-136 53t-141 -60t-53 -173v-512h-268v963h223l10 -138h4q90 158 301 158z" />
    <glyph glyph-name="Ncaron" unicode="&#x147;" horiz-adv-x="1517" 
d="M881 1483h-248l-252 348h246l131 -164l129 164h246zM438 1010v-1010h-293v1360h416l514 -914h4v914h293v-1360h-364l-566 1010h-4z" />
    <glyph glyph-name="ncaron" unicode="&#x148;" horiz-adv-x="1132" 
d="M690 1102h-248l-252 348h246l131 -164l129 164h246zM657 983q175 0 275 -109t100 -303v-571h-268v539q0 100 -47 153t-136 53t-141 -60t-53 -173v-512h-268v963h223l10 -138h4q90 158 301 158z" />
    <glyph glyph-name="napostrophe" unicode="&#x149;" horiz-adv-x="1132" 
d="M657 983q175 0 275 -109t100 -303v-571h-268v539q0 100 -47 153t-136 53t-141 -60t-53 -173v-512h-268v963h223l10 -138h4q90 158 301 158zM272 1434q0 -242 -75 -359h-211q43 117 43 264q0 60 -4 95h247z" />
    <glyph glyph-name="Eng" unicode="&#x14a;" horiz-adv-x="1517" 
d="M1372 1360v-1450q0 -156 -83 -238t-226 -82q-88 0 -150 21v258h11q35 -25 73 -25q80 0 80 88v103l-635 1003h-4v-1038h-293v1360h420l508 -805h4v805h295z" />
    <glyph glyph-name="eng" unicode="&#x14b;" horiz-adv-x="1132" 
d="M657 983q175 0 275 -109t100 -303v-661q0 -158 -77 -239t-218 -81q-76 0 -137 21v242h10q33 -25 74 -25q80 0 80 104v607q0 100 -47 153t-136 53t-141 -60t-53 -173v-512h-268v963h223l10 -138h4q90 158 301 158z" />
    <glyph glyph-name="Omacron" unicode="&#x14c;" horiz-adv-x="1556" 
d="M442 1536v211h672v-211h-672zM778 1110q-180 0 -294 -120t-114 -310t114 -310t294 -120t294 120t114 310t-114 310t-294 120zM778 1380q315 0 515 -196t200 -504q0 -307 -200 -504q-200 -196 -515 -196t-515 196t-200 504t200 504t515 196z" />
    <glyph glyph-name="omacron" unicode="&#x14d;" horiz-adv-x="1157" 
d="M244 1155v211h671v-211h-671zM580 745q-109 1 -178 -73q-68 -74 -68 -191t68 -191t178 -73q108 0 176 74q68 75 68 191t-68 190q-67 74 -176 73zM579 983q226 0 370 -140q145 -141 145 -361t-144 -361t-371 -141q-226 0 -371 141q-144 141 -144 361t144 360
q145 140 371 141z" />
    <glyph glyph-name="Obreve" unicode="&#x14e;" horiz-adv-x="1556" 
d="M778 1487q-164 0 -255 86t-99 248h190q20 -131 164 -131t164 131h191q-7 -162 -99 -248t-256 -86zM778 1110q-180 0 -294 -120t-114 -310t114 -310t294 -120t294 120t114 310t-114 310t-294 120zM778 1380q315 0 515 -196t200 -504q0 -307 -200 -504q-200 -196 -515 -196
t-515 196t-200 504t200 504t515 196z" />
    <glyph glyph-name="obreve" unicode="&#x14f;" horiz-adv-x="1157" 
d="M580 1106q-164 0 -255 86t-100 248h191q20 -131 164 -131t163 131h191q-8 -162 -99 -248t-255 -86zM580 745q-109 1 -178 -73q-68 -74 -68 -191t68 -191t178 -73q108 0 176 74q68 75 68 191t-68 190q-67 74 -176 73zM579 983q226 0 370 -140q145 -141 145 -361t-144 -361
t-371 -141q-226 0 -371 141q-144 141 -144 361t144 360q145 140 371 141z" />
    <glyph glyph-name="Ohungarumlaut" unicode="&#x150;" horiz-adv-x="1556" 
d="M838 1483l229 348h268l-264 -348h-233zM440 1483l228 348h270l-264 -348h-234zM778 1110q-180 0 -294 -120t-114 -310t114 -310t294 -120t294 120t114 310t-114 310t-294 120zM778 1380q315 0 515 -196t200 -504q0 -307 -200 -504q-200 -196 -515 -196t-515 196t-200 504
t200 504t515 196z" />
    <glyph glyph-name="ohungarumlaut" unicode="&#x151;" horiz-adv-x="1157" 
d="M639 1102l229 348h269l-265 -348h-233zM242 1102l227 348h270l-264 -348h-233zM580 745q-109 1 -178 -73q-68 -74 -68 -191t68 -191t178 -73q108 0 176 74q68 75 68 191t-68 190q-67 74 -176 73zM579 983q226 0 370 -140q145 -141 145 -361t-144 -361t-371 -141
q-226 0 -371 141q-144 141 -144 361t144 360q145 140 371 141z" />
    <glyph glyph-name="OE" unicode="&#x152;" horiz-adv-x="2146" 
d="M1030 1090h-225q-213 0 -324 -104t-111 -306q0 -201 112 -305q110 -104 323 -105h225v820zM1901 809v-254h-566v-285h713v-270h-1262q-346 0 -534 178t-189 502q1 324 189 502t534 178h1262v-270h-713v-281h566z" />
    <glyph glyph-name="oe" unicode="&#x153;" horiz-adv-x="1873" 
d="M1337 752q-91 0 -157 -47t-86 -130h475q-14 85 -77 131t-155 46zM580 217q108 0 176 74q68 75 68 191t-68 190t-176 74t-178 -74q-68 -74 -68 -191t68 -191t178 -73zM1810 522v-108h-716q20 -96 104 -150t209 -53q215 0 336 117h10v-258q-127 -90 -342 -90
q-317 0 -450 204h-5q-125 -205 -401 -204q-217 0 -354 140t-137 362t136 362q138 140 355 139q276 0 401 -203h5q123 203 397 203q216 0 334 -121t118 -340z" />
    <glyph glyph-name="Racute" unicode="&#x154;" horiz-adv-x="1370" 
d="M530 1483l228 348h282l-264 -348h-246zM449 743h294q219 0 220 172q0 174 -220 175h-294v-347zM449 473v-473h-304v1360h611q514 0 514 -445q0 -328 -285 -411l326 -504h-357l-276 473h-229z" />
    <glyph glyph-name="racute" unicode="&#x155;" horiz-adv-x="808" 
d="M283 1102l227 348h283l-265 -348h-245zM645 983q94 0 141 -37v-262h-10q-63 45 -151 45q-123 0 -181 -77t-57 -238v-414h-268v963h223l12 -150h4q80 170 287 170z" />
    <glyph glyph-name="uni0156" unicode="&#x156;" horiz-adv-x="1370" 
d="M365 -430l198 307h271l-236 -307h-233zM449 743h294q219 0 220 172q0 174 -220 175h-294v-347zM449 473v-473h-304v1360h611q514 0 514 -445q0 -328 -285 -411l326 -504h-357l-276 473h-229z" />
    <glyph glyph-name="uni0157" unicode="&#x157;" horiz-adv-x="808" 
d="M-78 -430l199 307h270l-235 -307h-234zM645 983q94 0 141 -37v-262h-10q-63 45 -151 45q-123 0 -181 -77t-57 -238v-414h-268v963h223l12 -150h4q80 170 287 170z" />
    <glyph glyph-name="Rcaron" unicode="&#x158;" horiz-adv-x="1370" 
d="M791 1483h-248l-252 348h246l131 -164l129 164h245zM449 743h294q219 0 220 172q0 174 -220 175h-294v-347zM449 473v-473h-304v1360h611q514 0 514 -445q0 -328 -285 -411l326 -504h-357l-276 473h-229z" />
    <glyph glyph-name="rcaron" unicode="&#x159;" horiz-adv-x="808" 
d="M543 1102h-248l-252 348h246l131 -164l129 164h246zM645 983q94 0 141 -37v-262h-10q-63 45 -151 45q-123 0 -181 -77t-57 -238v-414h-268v963h223l12 -150h4q80 170 287 170z" />
    <glyph glyph-name="Sacute" unicode="&#x15a;" horiz-adv-x="1208" 
d="M469 1483l227 348h283l-264 -348h-246zM635 1380q127 0 245 -28t181 -72v-313h-14q-141 145 -416 145q-113 0 -179 -40t-65 -104q0 -64 56 -94t206 -47q266 -29 380 -127t114 -298q1 -200 -141 -312q-142 -111 -404 -110q-340 0 -506 118v314h14q195 -164 482 -164
q254 0 254 149q0 61 -58 93t-213 49q-261 29 -373 123t-112 290t145 313q146 115 404 115z" />
    <glyph glyph-name="sacute" unicode="&#x15b;" horiz-adv-x="897" 
d="M311 1102l228 348h282l-264 -348h-246zM478 983q183 0 302 -61v-256h-10q-96 96 -287 96q-156 0 -155 -90q0 -33 34 -48t125 -22q189 -12 273 -84t84 -222t-104 -234t-291 -82q-242 0 -365 86v258h12q113 -123 340 -123q156 0 156 92q0 39 -38 57t-138 27
q-184 16 -262 81t-78 208t109 230q110 87 293 87z" />
    <glyph glyph-name="Scircumflex" unicode="&#x15c;" horiz-adv-x="1208" 
d="M606 1647l-131 -164h-246l252 348h248l252 -348h-246zM635 1380q127 0 245 -28t181 -72v-313h-14q-141 145 -416 145q-113 0 -179 -40t-65 -104q0 -64 56 -94t206 -47q266 -29 380 -127t114 -298q1 -200 -141 -312q-142 -111 -404 -110q-340 0 -506 118v314h14
q195 -164 482 -164q254 0 254 149q0 61 -58 93t-213 49q-261 29 -373 123t-112 290t145 313q146 115 404 115z" />
    <glyph glyph-name="scircumflex" unicode="&#x15d;" horiz-adv-x="897" 
d="M449 1266l-132 -164h-245l252 348h247l252 -348h-245zM478 983q183 0 302 -61v-256h-10q-96 96 -287 96q-156 0 -155 -90q0 -33 34 -48t125 -22q189 -12 273 -84t84 -222t-104 -234t-291 -82q-242 0 -365 86v258h12q113 -123 340 -123q156 0 156 92q0 39 -38 57t-138 27
q-184 16 -262 81t-78 208t109 230q110 87 293 87z" />
    <glyph glyph-name="Scedilla" unicode="&#x15e;" horiz-adv-x="1208" 
d="M92 412h14q195 -164 482 -164q254 0 254 149q0 61 -58 93t-213 49q-261 29 -373 123t-112 290t145 313q145 116 404 115q127 0 245 -28t181 -72v-313h-14q-141 145 -416 145q-113 0 -179 -40t-65 -104q0 -64 56 -94t206 -47q266 -29 380 -127t114 -289t-120 -301
t-341 -126l-45 -80v-4q203 0 203 -152q0 -158 -252 -158q-115 0 -185 29v137h11q72 -39 164 -39q33 -1 51 13t18 34q0 49 -76 50q-47 0 -96 -13v31l84 148q-311 5 -467 118v314z" />
    <glyph glyph-name="scedilla" unicode="&#x15f;" horiz-adv-x="897" 
d="M84 324h12q113 -123 340 -123q156 0 156 92q0 39 -38 57t-138 27q-184 16 -262 81t-78 208t109 230q110 87 293 87t302 -61v-256h-10q-96 96 -287 96q-156 0 -155 -90q0 -33 34 -48t125 -22q189 -12 273 -84t84 -214t-82 -222t-232 -98l-47 -80v-4q203 0 203 -152
q0 -158 -252 -158q-115 0 -184 29v137h10q72 -39 164 -39q33 -1 51 13t19 34q0 49 -76 50q-47 0 -96 -13v31l84 148q-211 10 -322 86v258z" />
    <glyph glyph-name="Scaron" unicode="&#x160;" horiz-adv-x="1208" 
d="M729 1483h-248l-252 348h246l131 -164l129 164h246zM635 1380q127 0 245 -28t181 -72v-313h-14q-141 145 -416 145q-113 0 -179 -40t-65 -104q0 -64 56 -94t206 -47q266 -29 380 -127t114 -298q1 -200 -141 -312q-142 -111 -404 -110q-340 0 -506 118v314h14
q195 -164 482 -164q254 0 254 149q0 61 -58 93t-213 49q-261 29 -373 123t-112 290t145 313q146 115 404 115z" />
    <glyph glyph-name="scaron" unicode="&#x161;" horiz-adv-x="897" 
d="M571 1102h-247l-252 348h245l132 -164l129 164h245zM478 983q183 0 302 -61v-256h-10q-96 96 -287 96q-156 0 -155 -90q0 -33 34 -48t125 -22q189 -12 273 -84t84 -222t-104 -234t-291 -82q-242 0 -365 86v258h12q113 -123 340 -123q156 0 156 92q0 39 -38 57t-138 27
q-184 16 -262 81t-78 208t109 230q110 87 293 87z" />
    <glyph glyph-name="uni0162" unicode="&#x162;" horiz-adv-x="1218" 
d="M627 -100q203 0 202 -152q0 -158 -251 -158q-115 0 -185 29v137h10q72 -39 164 -39q33 -1 51 13t19 34q0 49 -76 50q-47 0 -96 -13v31l96 168h-102v1090h-406v270h1112v-270h-403v-1090h-80l-55 -96v-4z" />
    <glyph glyph-name="uni0163" unicode="&#x163;" horiz-adv-x="800" 
d="M455 360q0 -143 142 -143q73 0 126 55h10v-260q-68 -33 -188 -32q-41 0 -60 2l-45 -78v-4q203 0 203 -152q0 -158 -252 -158q-115 0 -184 29v137h10q72 -39 164 -39q33 -1 51 13t19 34q0 49 -76 50q-47 0 -96 -13v31l102 174q-195 78 -195 344v385h-159v228h168l34 270
h226v-270h276v-228h-276v-375z" />
    <glyph glyph-name="Tcaron" unicode="&#x164;" horiz-adv-x="1218" 
d="M731 1483h-248l-252 348h246l131 -164l129 164h246zM762 1090v-1090h-303v1090h-406v270h1112v-270h-403z" />
    <glyph glyph-name="tcaron" unicode="&#x165;" horiz-adv-x="800" 
d="M537 1032l55 402h270l-123 -402h-202zM455 360q0 -143 142 -143q73 0 126 55h10v-260q-68 -33 -188 -32q-176 0 -267 94t-92 276v385h-159v228h168l34 270h226v-270h276v-228h-276v-375z" />
    <glyph glyph-name="Tbar" unicode="&#x166;" horiz-adv-x="1218" 
d="M762 795h221v-207h-221v-588h-303v588h-226v207h226v295h-406v270h1112v-270h-403v-295z" />
    <glyph glyph-name="tbar" unicode="&#x167;" horiz-adv-x="821" 
d="M459 360q1 -143 143 -143q72 0 125 55h10v-260q-68 -33 -188 -32q-176 0 -267 94t-92 276v76h-139v182h139v127h-159v228h168l34 270h226v-270h276v-228h-276v-127h233v-182h-233v-66z" />
    <glyph glyph-name="Utilde" unicode="&#x168;" horiz-adv-x="1413" 
d="M1042 1812v-206q-70 -115 -190 -115q-78 0 -161 46t-144 46q-106 0 -166 -113h-10v207q66 115 190 115q78 0 161 -46t144 -46q102 0 166 112h10zM1298 1360v-780q0 -600 -596 -600q-588 0 -587 600v780h303v-760q0 -350 294 -350t294 350v760h292z" />
    <glyph glyph-name="utilde" unicode="&#x169;" horiz-adv-x="1130" 
d="M891 1432v-207q-70 -115 -191 -115q-78 0 -160 46t-145 46q-106 0 -166 -112h-10v206q66 115 191 115q78 0 160 -46t145 -46q102 0 166 113h10zM1012 0h-224l-10 137h-4q-90 -158 -299 -157q-176 0 -275 110t-100 303v570h269v-539q0 -100 47 -154t135 -53q88 -1 140 61
t52 173v512h269v-963z" />
    <glyph glyph-name="Umacron" unicode="&#x16a;" horiz-adv-x="1413" 
d="M371 1536v211h671v-211h-671zM1298 1360v-780q0 -600 -596 -600q-588 0 -587 600v780h303v-760q0 -350 294 -350t294 350v760h292z" />
    <glyph glyph-name="umacron" unicode="&#x16b;" horiz-adv-x="1130" 
d="M219 1155v211h672v-211h-672zM1012 0h-224l-10 137h-4q-90 -158 -299 -157q-176 0 -275 110t-100 303v570h269v-539q0 -100 47 -154t135 -53q88 -1 140 61t52 173v512h269v-963z" />
    <glyph glyph-name="Ubreve" unicode="&#x16c;" horiz-adv-x="1413" 
d="M707 1487q-164 0 -255 86t-100 248h191q19 -131 163 -131t164 131h191q-8 -162 -99 -248t-255 -86zM1298 1360v-780q0 -600 -596 -600q-588 0 -587 600v780h303v-760q0 -350 294 -350t294 350v760h292z" />
    <glyph glyph-name="ubreve" unicode="&#x16d;" horiz-adv-x="1130" 
d="M555 1106q-164 0 -255 86t-99 248h190q20 -131 164 -131t164 131h190q-8 -162 -99 -248t-255 -86zM1012 0h-224l-10 137h-4q-90 -158 -299 -157q-176 0 -275 110t-100 303v570h269v-539q0 -100 47 -154t135 -53q88 -1 140 61t52 173v512h269v-963z" />
    <glyph glyph-name="Uring" unicode="&#x16e;" horiz-adv-x="1413" 
d="M707 1741q-37 0 -61 -23q-24 -24 -24 -62t24 -61t61 -23t61 24q24 22 23 61q1 39 -23 61t-61 23zM707 1880q98 0 160 -62q63 -62 63 -160t-62 -162q-62 -62 -161 -62q-98 0 -161 62q-62 62 -62 160t62 162q63 62 161 62zM1298 1360v-780q0 -600 -596 -600
q-588 0 -587 600v780h303v-760q0 -350 294 -350t294 350v760h292z" />
    <glyph glyph-name="uring" unicode="&#x16f;" horiz-adv-x="1130" 
d="M555 1360q-37 0 -61 -23t-23 -61q0 -38 24 -62q25 -22 61 -22t60 22t23 62q1 40 -23 62t-61 22zM555 1499q99 0 161 -62q62 -63 62 -161t-62 -160t-160 -63q-98 0 -162 62q-62 63 -62 161t62 161q63 62 161 62zM1012 0h-224l-10 137h-4q-90 -158 -299 -157
q-176 0 -275 110t-100 303v570h269v-539q0 -100 47 -154t135 -53q88 -1 140 61t52 173v512h269v-963z" />
    <glyph glyph-name="Uhungarumlaut" unicode="&#x170;" horiz-adv-x="1413" 
d="M766 1483l229 348h269l-265 -348h-233zM369 1483l227 348h270l-264 -348h-233zM1298 1360v-780q0 -600 -596 -600q-588 0 -587 600v780h303v-760q0 -350 294 -350t294 350v760h292z" />
    <glyph glyph-name="uhungarumlaut" unicode="&#x171;" horiz-adv-x="1130" 
d="M614 1102l230 348h268l-264 -348h-234zM217 1102l227 348h271l-264 -348h-234zM1012 0h-224l-10 137h-4q-90 -158 -299 -157q-176 0 -275 110t-100 303v570h269v-539q0 -100 47 -154t135 -53q88 -1 140 61t52 173v512h269v-963z" />
    <glyph glyph-name="Uogonek" unicode="&#x172;" horiz-adv-x="1413" 
d="M1298 1360v-780q0 -391 -260 -533q-168 -94 -168 -209q0 -33 23 -53t55 -21q68 0 133 56h11v-195q-74 -35 -182 -35t-172 50q-62 50 -62 137q0 119 92 200v5q-20 -2 -66 -2q-588 0 -587 600v780h303v-760q0 -350 294 -350t294 350v760h292z" />
    <glyph glyph-name="uogonek" unicode="&#x173;" horiz-adv-x="1130" 
d="M1012 0h-76q-143 -61 -143 -164q-1 -33 21 -52t54 -20q70 0 133 56h11v-195q-74 -35 -184 -35t-170 50q-62 50 -62 135q0 164 190 258l-8 104h-4q-90 -158 -299 -157q-176 0 -275 110t-100 303v570h269v-539q0 -100 47 -154t135 -53q88 -1 140 61t52 173v512h269v-963z
" />
    <glyph glyph-name="Wcircumflex" unicode="&#x174;" horiz-adv-x="2068" 
d="M1034 1647l-131 -164h-246l252 348h248l252 -348h-246zM1614 0h-309l-269 866h-4l-270 -866h-307l-420 1360h319l267 -907h4l282 907h260l283 -914h4l268 914h312z" />
    <glyph glyph-name="wcircumflex" unicode="&#x175;" horiz-adv-x="1572" 
d="M786 1266l-131 -164h-245l252 348h247l252 -348h-246zM1561 963l-322 -963h-256l-192 582h-5l-194 -582h-256l-324 963h285l180 -621h4l207 621h211l205 -621h4l180 621h273z" />
    <glyph glyph-name="Ycircumflex" unicode="&#x176;" horiz-adv-x="1431" 
d="M717 1647l-131 -164h-246l252 348h248l252 -348h-246zM868 0h-303v557l-557 803h367l346 -526l346 526h356l-555 -803v-557z" />
    <glyph glyph-name="ycircumflex" unicode="&#x177;" horiz-adv-x="1040" 
d="M520 1266l-131 -164h-246l252 348h248l252 -348h-246zM477 -389h-276l182 420l-371 932h287l225 -635h4l224 635h276z" />
    <glyph glyph-name="Ydieresis" unicode="&#x178;" horiz-adv-x="1431" 
d="M934 1794q68 0 108 -43t41 -110q0 -67 -41 -109q-40 -42 -108 -43q-68 0 -111 44q-43 43 -43 109t43 109t111 43zM500 1794q68 0 110 -43t43 -109q0 -66 -43 -110q-42 -44 -110 -43q-68 0 -109 43q-41 44 -41 110t41 109t109 43zM868 0h-303v557l-557 803h367l346 -526
l346 526h356l-555 -803v-557z" />
    <glyph glyph-name="Zacute" unicode="&#x179;" horiz-adv-x="1325" 
d="M535 1483l227 348h282l-264 -348h-245zM1231 0h-1135v258l723 832h-682v270h1084v-258l-723 -832h733v-270z" />
    <glyph glyph-name="zacute" unicode="&#x17a;" horiz-adv-x="1017" 
d="M379 1102l227 348h283l-264 -348h-246zM84 0v215l485 520h-454v228h809v-215l-486 -521h496v-227h-850z" />
    <glyph glyph-name="Zdotaccent" unicode="&#x17b;" horiz-adv-x="1325" 
d="M672 1808q72 0 120 -47t48 -120t-48 -119t-120 -47q-72 0 -120 47q-48 48 -48 120t48 119t120 47zM1231 0h-1135v258l723 832h-682v270h1084v-258l-723 -832h733v-270z" />
    <glyph glyph-name="zdotaccent" unicode="&#x17c;" horiz-adv-x="1017" 
d="M516 1427q72 0 120 -47q48 -48 48 -120t-48 -119t-120 -47t-120 47t-48 120t48 119t120 47zM84 0v215l485 520h-454v228h809v-215l-486 -521h496v-227h-850z" />
    <glyph glyph-name="Zcaron" unicode="&#x17d;" horiz-adv-x="1325" 
d="M795 1483h-248l-252 348h246l131 -164l129 164h246zM1231 0h-1135v258l723 832h-682v270h1084v-258l-723 -832h733v-270z" />
    <glyph glyph-name="zcaron" unicode="&#x17e;" horiz-adv-x="1017" 
d="M639 1102h-248l-252 348h246l131 -164l129 164h246zM84 0v215l485 520h-454v228h809v-215l-486 -521h496v-227h-850z" />
    <glyph glyph-name="florin" unicode="&#x192;" horiz-adv-x="1331" 
d="M971 1380q127 0 203 -34l-19 -240h-14q-51 37 -133 37q-154 0 -177 -156l-14 -104h279v-230h-312l-59 -428q-25 -178 -124 -273t-243 -95t-219 34l19 240h14q53 -37 133 -37q133 0 156 156l57 403h-242v230h273l18 129q54 368 404 368z" />
    <glyph glyph-name="AEacute" unicode="&#x1fc;" horiz-adv-x="2150" 
d="M983 1483l227 348h283l-264 -348h-246zM1034 1059h-4l-364 -570h368v570zM1337 809h568v-254h-568v-285h715v-270h-1018v229h-534l-148 -229h-344l903 1360h1141v-270h-715v-281z" />
    <glyph glyph-name="aeacute" unicode="&#x1fd;" horiz-adv-x="1878" 
d="M815 1102l227 348h283l-264 -348h-246zM1336 752q-96 0 -162 -48q-64 -48 -87 -129h488q-15 81 -79 129t-160 48zM580 217q108 0 176 74q68 75 68 191t-68 190t-176 74t-178 -74q-68 -74 -68 -191t68 -191t178 -73zM1817 414h-730q19 -96 105 -150t215 -53q221 0 342 117
h10v-258q-127 -90 -325 -90q-260 0 -373 145h-4l-4 -125h-199l-4 125h-4q-100 -145 -308 -145t-341 142t-134 359t133 359t341 143q207 0 307 -141h4l6 121h199l4 -121h4q102 141 315 141t327 -121t114 -340v-108z" />
    <glyph glyph-name="Oslashacute" unicode="&#x1fe;" horiz-adv-x="1556" 
d="M641 1483l227 348h283l-264 -348h-246zM1186 680q0 135 -62 240l-528 -631q84 -39 182 -39q180 0 294 120t114 310zM371 680q0 -135 61 -240l529 631q-84 39 -183 39q-180 0 -294 -120t-113 -310zM1493 666q0 -294 -200 -490q-200 -197 -515 -196q-207 0 -366 88l-58 -68
h-291l173 205q-172 195 -172 489t199 490q200 197 515 196q207 0 367 -88l57 68h291l-172 -205q172 -195 172 -489z" />
    <glyph glyph-name="oslashacute" unicode="&#x1ff;" horiz-adv-x="1157" 
d="M457 1102l227 348h283l-265 -348h-245zM823 481q0 57 -20 115l-293 -371q41 -8 70 -8q109 -1 176 73t67 191zM334 481q0 -57 20 -114l293 370q-41 8 -67 8q-109 0 -178 -73q-68 -74 -68 -191zM1094 471q0 -209 -144 -350t-370 -141q-123 0 -230 45l-20 -25h-267l119 150
q-119 136 -119 344q1 208 145 348t372 141q121 0 227 -45l20 25h267l-117 -148q117 -135 117 -344z" />
    <glyph glyph-name="uni0218" unicode="&#x218;" horiz-adv-x="1208" 
d="M287 -430l198 307h271l-236 -307h-233zM635 1380q127 0 245 -28t181 -72v-313h-14q-141 145 -416 145q-113 0 -179 -40t-65 -104q0 -64 56 -94t206 -47q266 -29 380 -127t114 -298q1 -200 -141 -312q-142 -111 -404 -110q-340 0 -506 118v314h14q195 -164 482 -164
q254 0 254 149q0 61 -58 93t-213 49q-261 29 -373 123t-112 290t145 313q146 115 404 115z" />
    <glyph glyph-name="uni0219" unicode="&#x219;" horiz-adv-x="897" 
d="M133 -430l199 307h270l-235 -307h-234zM478 983q183 0 302 -61v-256h-10q-96 96 -287 96q-156 0 -155 -90q0 -33 34 -48t125 -22q189 -12 273 -84t84 -222t-104 -234t-291 -82q-242 0 -365 86v258h12q113 -123 340 -123q156 0 156 92q0 39 -38 57t-138 27
q-184 16 -262 81t-78 208t109 230q110 87 293 87z" />
    <glyph glyph-name="uni021A" unicode="&#x21a;" horiz-adv-x="1218" 
d="M276 -430l199 307h270l-235 -307h-234zM762 1090v-1090h-303v1090h-406v270h1112v-270h-403z" />
    <glyph glyph-name="uni021B" unicode="&#x21b;" horiz-adv-x="800" 
d="M90 -430l199 307h270l-235 -307h-234zM455 360q0 -143 142 -143q73 0 126 55h10v-260q-68 -33 -188 -32q-176 0 -267 94t-92 276v385h-159v228h168l34 270h226v-270h276v-228h-276v-375z" />
    <glyph glyph-name="uni0237" unicode="&#x237;" horiz-adv-x="507" 
d="M387 963v-1053q0 -156 -77 -238t-218 -82q-74 0 -137 21v242h12q31 -25 72 -25q80 0 80 104v1031h268z" />
    <glyph glyph-name="circumflex" unicode="&#x2c6;" horiz-adv-x="1024" 
d="M514 1266l-131 -164h-246l252 348h248l252 -348h-246z" />
    <glyph glyph-name="caron" unicode="&#x2c7;" horiz-adv-x="1024" 
d="M637 1102h-248l-252 348h246l131 -164l129 164h246z" />
    <glyph glyph-name="breve" unicode="&#x2d8;" horiz-adv-x="1024" 
d="M512 1106q-164 0 -255 86t-99 248h190q20 -131 164 -131t164 131h190q-8 -162 -99 -248t-255 -86z" />
    <glyph glyph-name="dotaccent" unicode="&#x2d9;" horiz-adv-x="1024" 
d="M512 1427q72 0 120 -47q48 -48 48 -120t-48 -119t-120 -47t-120 47t-48 120t48 119t120 47z" />
    <glyph glyph-name="ring" unicode="&#x2da;" horiz-adv-x="1024" 
d="M512 1360q-36 0 -60 -23t-24 -61t24 -62q24 -22 60 -22t60 22t24 62t-24 62t-60 22zM512 1499q98 0 160 -62q62 -63 63 -161q0 -98 -62 -160q-63 -62 -161 -63q-98 0 -161 62q-62 63 -62 161t62 161q63 62 161 62z" />
    <glyph glyph-name="ogonek" unicode="&#x2db;" horiz-adv-x="1024" 
d="M541 -164q-1 -33 21 -52t54 -20q68 0 134 56h10v-195q-74 -35 -184 -35t-170 50q-61 50 -62 135q0 207 311 305l29 -80q-143 -61 -143 -164z" />
    <glyph glyph-name="tilde" unicode="&#x2dc;" horiz-adv-x="1024" 
d="M848 1432v-207q-70 -115 -191 -115q-79 0 -161 46t-144 46q-106 0 -166 -112h-10v206q66 115 191 115q79 0 161 -46t144 -46q102 0 166 113h10z" />
    <glyph glyph-name="hungarumlaut" unicode="&#x2dd;" horiz-adv-x="1024" 
d="M565 1102l230 348h268l-264 -348h-234zM168 1102l227 348h271l-265 -348h-233z" />
    <glyph glyph-name="uni0394" unicode="&#x394;" horiz-adv-x="1507" 
d="M745 1014l-294 -744h593l-294 744h-5zM27 0l579 1360h293l580 -1360h-1452z" />
    <glyph glyph-name="uni03A9" unicode="&#x3a9;" horiz-adv-x="1581" 
d="M1481 270v-270h-559v258q276 160 276 447q0 181 -114 293t-294 112t-293 -113q-114 -113 -114 -292q0 -287 276 -447v-258h-559v270h246v4q-129 68 -200 192t-70 286q0 280 198 454t516 174t517 -174t198 -454q-1 -162 -71 -286t-199 -192v-4h246z" />
    <glyph glyph-name="uni03BC" unicode="&#x3bc;" horiz-adv-x="1163" 
d="M1038 0h-223l-10 137h-4q-88 -158 -301 -157q-57 0 -107 12v-381h-268v1352h268v-539q0 -100 47 -154t137 -53q89 1 141 61t52 173v512h268v-963z" />
    <glyph glyph-name="pi" unicode="&#x3c0;" horiz-adv-x="1236" 
d="M1053 735v-735h-269v735h-333v-735h-269v735h-149v228h1171v-228h-151z" />
    <glyph glyph-name="uni1E02" unicode="&#x1e02;" horiz-adv-x="1327" 
d="M645 1808q72 0 120 -47t48 -120t-48 -119t-120 -47q-72 0 -120 47q-48 48 -48 120t48 119t120 47zM449 270h323q186 0 186 144t-204 143h-305v-287zM449 811h258q205 0 204 141q0 137 -184 138h-278v-279zM731 1360q485 0 485 -387q0 -197 -176 -277v-4q225 -74 226 -313
q0 -379 -484 -379h-637v1360h586z" />
    <glyph glyph-name="uni1E03" unicode="&#x1e03;" horiz-adv-x="1204" 
d="M254 1872q72 0 120 -47t48 -120t-48 -120t-120 -47t-120 47t-48 120t48 120t120 47zM381 481q-1 -117 67 -191t178 -73q110 0 178 74q68 75 66 191q0 116 -67 190t-177 74t-178 -74t-67 -191zM684 983q192 0 324 -142q133 -141 133 -359t-133 -360t-343 -142t-309 147h-4
l-10 -127h-223v1434h268v-555h4q101 104 293 104z" />
    <glyph glyph-name="uni1E0A" unicode="&#x1e0a;" horiz-adv-x="1478" 
d="M705 1808q71 0 119 -47t48 -120t-48 -119t-120 -47q-72 0 -119 47q-48 48 -48 120t48 119t120 47zM449 270h225q212 0 324 104t112 306q0 201 -112 305t-324 105h-225v-820zM145 1360h547q346 0 536 -178t189 -502q0 -324 -189 -502t-536 -178h-547v1360z" />
    <glyph glyph-name="uni1E0B" unicode="&#x1e0b;" horiz-adv-x="1202" 
d="M950 1872q72 0 120 -47t48 -120t-48 -120t-120 -47t-120 47t-48 120t48 120t120 47zM580 217q108 0 176 74q68 75 68 191t-68 190t-176 74t-178 -74q-68 -74 -68 -191t68 -191t178 -73zM1083 0h-223l-8 129h-4q-100 -149 -309 -149t-342 142t-134 359t133 359t324 143
q190 0 291 -102h4v553h268v-1434z" />
    <glyph glyph-name="uni1E1E" unicode="&#x1e1e;" horiz-adv-x="1224" 
d="M645 1808q72 0 120 -47t48 -120t-48 -119t-120 -47q-72 0 -120 47q-48 48 -48 120t48 119t120 47zM449 791h567v-271h-567v-520h-304v1360h1018v-270h-714v-299z" />
    <glyph glyph-name="uni1E1F" unicode="&#x1e1f;" horiz-adv-x="757" 
d="M426 1872q72 0 120 -47t48 -120t-48 -120t-120 -47t-120 47t-48 120t48 120t120 47zM553 1454q125 0 201 -33v-245h-11q-61 41 -138 41q-150 0 -150 -148v-106h276v-228h-276v-735h-269v735h-159v228h159v114q0 181 94 279t273 98z" />
    <glyph glyph-name="uni1E40" unicode="&#x1e40;" horiz-adv-x="1943" 
d="M971 1808q72 0 120 -47t48 -120t-48 -119t-120 -47q-72 0 -120 47q-48 48 -48 120t48 119t120 47zM1798 0h-303v1024h-4l-393 -1024h-275l-381 995h-4v-995h-293v1360h455l365 -948h4l364 948h465v-1360z" />
    <glyph glyph-name="uni1E41" unicode="&#x1e41;" horiz-adv-x="1714" 
d="M868 1427q72 0 120 -47q48 -48 48 -120t-48 -119t-120 -47t-120 47t-48 120t48 119t120 47zM1255 983q171 0 265 -106t94 -304v-573h-268v543q0 203 -162 202q-180 0 -180 -249v-496h-269v543q0 203 -164 202q-180 0 -180 -229v-516h-268v963h223l10 -129h4
q86 150 285 150t291 -159h4q88 158 315 158z" />
    <glyph glyph-name="uni1E56" unicode="&#x1e56;" horiz-adv-x="1314" 
d="M666 1808q72 0 120 -47t48 -120t-48 -119t-120 -47q-72 0 -120 47q-48 48 -48 120t48 119t120 47zM449 727h282q221 0 221 181t-221 182h-282v-363zM145 1360h600q514 0 515 -453q0 -451 -515 -450h-296v-457h-304v1360z" />
    <glyph glyph-name="uni1E57" unicode="&#x1e57;" horiz-adv-x="1204" 
d="M631 1427q72 0 120 -47q48 -48 48 -120t-48 -119t-120 -47t-120 47t-48 120t48 119t120 47zM381 481q-1 -117 67 -191t178 -73q110 0 178 74q68 75 66 191q0 116 -67 190t-177 74t-178 -74t-67 -191zM664 983q211 0 344 -142q133 -141 133 -359t-133 -360
q-132 -142 -324 -142t-293 104h-4v-473h-268v1352h223l10 -127h4q97 147 308 147z" />
    <glyph glyph-name="uni1E60" unicode="&#x1e60;" horiz-adv-x="1208" 
d="M606 1808q72 0 120 -47t48 -120t-48 -119t-120 -47q-72 0 -120 47q-48 48 -48 120t48 119t120 47zM635 1380q127 0 245 -28t181 -72v-313h-14q-141 145 -416 145q-113 0 -179 -40t-65 -104q0 -64 56 -94t206 -47q266 -29 380 -127t114 -298q1 -200 -141 -312
q-142 -111 -404 -110q-340 0 -506 118v314h14q195 -164 482 -164q254 0 254 149q0 61 -58 93t-213 49q-261 29 -373 123t-112 290t145 313q146 115 404 115z" />
    <glyph glyph-name="uni1E61" unicode="&#x1e61;" horiz-adv-x="897" 
d="M449 1427q71 0 119 -47q48 -48 48 -120t-48 -119t-120 -47t-119 47q-48 47 -48 120t48 119t120 47zM478 983q183 0 302 -61v-256h-10q-96 96 -287 96q-156 0 -155 -90q0 -33 34 -48t125 -22q189 -12 273 -84t84 -222t-104 -234t-291 -82q-242 0 -365 86v258h12
q113 -123 340 -123q156 0 156 92q0 39 -38 57t-138 27q-184 16 -262 81t-78 208t109 230q110 87 293 87z" />
    <glyph glyph-name="uni1E6A" unicode="&#x1e6a;" horiz-adv-x="1218" 
d="M608 1808q72 0 120 -47t48 -120t-48 -119t-120 -47q-72 0 -120 47q-48 48 -48 120t48 119t120 47zM762 1090v-1090h-303v1090h-406v270h1112v-270h-403z" />
    <glyph glyph-name="uni1E6B" unicode="&#x1e6b;" horiz-adv-x="800" 
d="M338 1686q72 0 120 -48t48 -120t-48 -119t-120 -47t-120 47t-48 120t48 120t120 47zM455 360q0 -143 142 -143q73 0 126 55h10v-260q-68 -33 -188 -32q-176 0 -267 94t-92 276v385h-159v228h168l34 270h226v-270h276v-228h-276v-375z" />
    <glyph glyph-name="Wgrave" unicode="&#x1e80;" horiz-adv-x="2068" 
d="M924 1483l-265 348h283l227 -348h-245zM1614 0h-309l-269 866h-4l-270 -866h-307l-420 1360h319l267 -907h4l282 907h260l283 -914h4l268 914h312z" />
    <glyph glyph-name="wgrave" unicode="&#x1e81;" horiz-adv-x="1572" 
d="M676 1102l-264 348h282l228 -348h-246zM1561 963l-322 -963h-256l-192 582h-5l-194 -582h-256l-324 963h285l180 -621h4l207 621h211l205 -621h4l180 621h273z" />
    <glyph glyph-name="Wacute" unicode="&#x1e82;" horiz-adv-x="2068" 
d="M897 1483l227 348h283l-264 -348h-246zM1614 0h-309l-269 866h-4l-270 -866h-307l-420 1360h319l267 -907h4l282 907h260l283 -914h4l268 914h312z" />
    <glyph glyph-name="wacute" unicode="&#x1e83;" horiz-adv-x="1572" 
d="M649 1102l228 348h282l-264 -348h-246zM1561 963l-322 -963h-256l-192 582h-5l-194 -582h-256l-324 963h285l180 -621h4l207 621h211l205 -621h4l180 621h273z" />
    <glyph glyph-name="Wdieresis" unicode="&#x1e84;" horiz-adv-x="2068" 
d="M1251 1794q68 0 109 -43t41 -110t-41 -109t-109 -43q-69 0 -111 44q-42 43 -42 109t42 109t111 43zM817 1794q68 0 111 -43t43 -109t-43 -110t-111 -43q-69 0 -109 43q-40 44 -40 110t40 109t109 43zM1614 0h-309l-269 866h-4l-270 -866h-307l-420 1360h319l267 -907h4
l282 907h260l283 -914h4l268 914h312z" />
    <glyph glyph-name="wdieresis" unicode="&#x1e85;" horiz-adv-x="1572" 
d="M1004 1413q68 0 108 -43q40 -44 41 -110q0 -66 -41 -109q-40 -43 -108 -43t-111 44t-43 110t43 108t111 43zM569 1413q68 0 111 -43q43 -42 43 -108t-43 -110t-111 -44q-69 0 -109 43t-40 110t40 109t109 43zM1561 963l-322 -963h-256l-192 582h-5l-194 -582h-256
l-324 963h285l180 -621h4l207 621h211l205 -621h4l180 621h273z" />
    <glyph glyph-name="Ygrave" unicode="&#x1ef2;" horiz-adv-x="1431" 
d="M606 1483l-264 348h283l227 -348h-246zM868 0h-303v557l-557 803h367l346 -526l346 526h356l-555 -803v-557z" />
    <glyph glyph-name="ygrave" unicode="&#x1ef3;" horiz-adv-x="1040" 
d="M410 1102l-265 348h283l227 -348h-245zM477 -389h-276l182 420l-371 932h287l225 -635h4l224 635h276z" />
    <glyph glyph-name="uni2007" unicode="&#x2007;" horiz-adv-x="1331" 
 />
    <glyph glyph-name="figuredash" unicode="&#x2012;" horiz-adv-x="1331" 
d="M102 561v238h1127v-238h-1127z" />
    <glyph glyph-name="endash" unicode="&#x2013;" horiz-adv-x="1024" 
d="M102 442v238h820v-238h-820z" />
    <glyph glyph-name="emdash" unicode="&#x2014;" horiz-adv-x="2048" 
d="M102 442v238h1844v-238h-1844z" />
    <glyph glyph-name="quoteleft" unicode="&#x2018;" horiz-adv-x="563" 
d="M518 1360l-188 -514h-277l248 514h217z" />
    <glyph glyph-name="quoteright" unicode="&#x2019;" horiz-adv-x="563" 
d="M45 846l188 514h277l-248 -514h-217z" />
    <glyph glyph-name="quotesinglbase" unicode="&#x201a;" horiz-adv-x="563" 
d="M-14 -217l188 514h277l-248 -514h-217z" />
    <glyph glyph-name="quotedblleft" unicode="&#x201c;" horiz-adv-x="989" 
d="M944 1360l-188 -514h-277l248 514h217zM518 1360l-188 -514h-277l248 514h217z" />
    <glyph glyph-name="quotedblright" unicode="&#x201d;" horiz-adv-x="989" 
d="M471 846l188 514h277l-248 -514h-217zM45 846l188 514h277l-248 -514h-217z" />
    <glyph glyph-name="quotedblbase" unicode="&#x201e;" horiz-adv-x="989" 
d="M-14 -217l188 514h277l-248 -514h-217zM412 -217l188 514h277l-248 -514h-217z" />
    <glyph glyph-name="dagger" unicode="&#x2020;" horiz-adv-x="997" 
d="M608 934v-754h-217v754h-293v188h293v312h217v-312h293v-188h-293z" />
    <glyph glyph-name="daggerdbl" unicode="&#x2021;" horiz-adv-x="997" 
d="M608 680h293v-188h-293v-312h-217v312h-293v188h293v254h-293v188h293v312h217v-312h293v-188h-293v-254z" />
    <glyph glyph-name="bullet" unicode="&#x2022;" horiz-adv-x="1024" 
d="M512 874q135 0 223 -89t88 -224t-88 -223t-223 -88t-223 88t-88 223t88 224t223 89z" />
    <glyph glyph-name="ellipsis" unicode="&#x2026;" horiz-adv-x="2048" 
d="M370 317q72 0 120 -49t48 -121q0 -71 -48 -119t-120 -48t-121 48q-48 48 -48 120t48 120q48 49 121 49zM1023 317q73 0 121 -49t48 -121q0 -71 -48 -119t-121 -48t-121 48t-48 120t48 120q48 49 121 49zM1847 147q0 -71 -48 -119t-121 -48q-72 0 -120 48t-48 120t47 120
q48 49 121 49t121 -49t48 -121z" />
    <glyph glyph-name="perthousand" unicode="&#x2030;" horiz-adv-x="2271" 
d="M1182 492q-57 0 -91 -48t-34 -128q0 -81 34 -128t91 -47t91 47t34 128q0 80 -34 128t-91 48zM1182 653q145 0 227 -92t82 -245q0 -152 -82 -244t-227 -92t-228 92q-82 92 -82 244t82 245q83 92 228 92zM379 1219q-57 1 -91 -47t-34 -129t34 -128t91 -47t91 47t34 128
t-34 129t-91 47zM238 0l876 1360h209l-877 -1360h-208zM379 1380q145 0 227 -92t82 -245t-82 -245t-227 -91q-145 0 -227 92q-82 93 -82 245t82 244t227 92zM1894 492q-57 0 -91 -48t-34 -128q0 -81 34 -128t91 -47t92 47q34 47 34 128q0 80 -35 128q-34 48 -91 48z
M1894 653q146 0 228 -92t82 -245q0 -152 -82 -244t-228 -92t-227 92q-82 92 -82 244t82 245q82 92 227 92z" />
    <glyph glyph-name="guilsinglleft" unicode="&#x2039;" horiz-adv-x="598" 
d="M500 299v-274l-445 448v16l445 451v-274l-199 -185z" />
    <glyph glyph-name="guilsinglright" unicode="&#x203a;" horiz-adv-x="598" 
d="M98 664v274l445 -449v-16l-445 -450v274l199 184z" />
    <glyph glyph-name="fraction" unicode="&#x2044;" horiz-adv-x="323" 
d="M-381 0l881 1360h205l-881 -1360h-205z" />
    <glyph glyph-name="zerosuperior" unicode="&#x2070;" 
d="M420 1470q-146 0 -146 -256t146 -256t145 256q0 256 -145 256zM420 1647q164 0 252 -112t88 -321q0 -208 -88 -320t-252 -112t-252 112t-88 320t88 321q88 112 252 112z" />
    <glyph glyph-name="foursuperior" unicode="&#x2074;" 
d="M489 1116v281l-217 -281h217zM682 940v-145h-193v145h-409v168l403 526h199v-518h102v-176h-102z" />
    <glyph glyph-name="fivesuperior" unicode="&#x2075;" 
d="M449 1339q139 -1 218 -73t79 -203t-90 -206q-88 -75 -256 -75t-271 58v196h10q94 -78 262 -78q72 0 111 28t39 79q0 109 -189 109q-113 0 -198 -29h-10v489h536v-176h-379v-131q62 12 138 12z" />
    <glyph glyph-name="sixsuperior" unicode="&#x2076;" 
d="M436 958q60 0 94 31q33 31 33 83t-33 83t-88 31q-100 0 -149 -76q3 -72 43 -112t100 -40zM487 1346q121 0 196 -73t75 -202t-84 -209t-238 -80t-248 109t-94 311t100 324q100 121 264 121q162 0 234 -54v-196h-10q-78 74 -188 73q-170 0 -201 -182h4q69 58 190 58z" />
    <glyph glyph-name="sevensuperior" unicode="&#x2077;" 
d="M117 1458v176h639v-180l-379 -659h-230l398 663h-428z" />
    <glyph glyph-name="eightsuperior" unicode="&#x2078;" 
d="M268 1051q0 -93 152 -93t151 93q1 88 -151 88t-152 -88zM420 1470q-129 0 -129 -86t129 -86t129 86t-129 86zM766 1026q0 -116 -92 -180t-255 -64t-254 65t-91 179q0 137 131 191v4q-107 59 -107 179t85 183t236 63t237 -62q86 -64 85 -183q0 -119 -106 -172v-4
q131 -55 131 -199z" />
    <glyph glyph-name="ninesuperior" unicode="&#x2079;" 
d="M397 1243q100 0 150 76q-4 72 -44 112q-41 39 -101 39t-93 -30t-33 -83q0 -52 33 -83t88 -31zM404 1647q154 0 247 -109q94 -110 94 -312t-100 -323q-101 -121 -263 -121t-235 54v196h11q78 -74 188 -74q170 0 201 183h-4q-70 -57 -191 -57q-122 0 -196 72
q-74 73 -74 202t84 209t238 80z" />
    <glyph glyph-name="zeroinferior" unicode="&#x2080;" 
d="M420 287q-146 0 -146 -256t146 -256t145 256q0 256 -145 256zM420 463q164 0 252 -112q88 -113 88 -321t-88 -320t-252 -112t-252 112t-88 321t88 321t252 111z" />
    <glyph glyph-name="oneinferior" unicode="&#x2081;" 
d="M639 -389h-193v612l-210 -127v193l247 162h156v-840z" />
    <glyph glyph-name="twoinferior" unicode="&#x2082;" 
d="M715 -213v-176h-588v184l207 160q110 86 148 132t38 97q0 102 -137 102t-236 -102h-10v209q100 70 254 70t239 -68t85 -176t-50 -179t-196 -183l-86 -66v-4h332z" />
    <glyph glyph-name="threeinferior" unicode="&#x2083;" 
d="M131 -117h10q88 -109 262 -108q139 0 140 94q0 86 -148 86h-108v160h94q152 0 151 82q0 90 -140 90t-234 -101h-11v207q102 70 260 70q158 1 238 -63t80 -182t-104 -177v-4q117 -59 117 -185t-88 -190q-86 -64 -258 -64t-261 76v209z" />
    <glyph glyph-name="fourinferior" unicode="&#x2084;" 
d="M489 -68v281l-217 -281h217zM682 -244v-145h-193v145h-409v168l403 527h199v-519h102v-176h-102z" />
    <glyph glyph-name="fiveinferior" unicode="&#x2085;" 
d="M392 -225q159 -1 159 107t-189 108q-113 0 -198 -29h-10v490h536v-177h-379v-131q62 13 138 13q139 0 218 -73t79 -204t-90 -206q-88 -75 -256 -75t-271 58v197h10q94 -78 253 -78z" />
    <glyph glyph-name="sixinferior" unicode="&#x2086;" 
d="M436 -225q60 1 94 31q33 30 33 82t-33 83t-88 31q-100 0 -149 -76q3 -72 43 -112t100 -39zM487 162q121 0 196 -73t75 -202t-84 -209t-238 -80t-248 109t-94 311t100 324q100 121 264 121q162 0 234 -53v-197h-10q-78 74 -188 74q-170 0 -201 -183h4q69 58 190 58z" />
    <glyph glyph-name="seveninferior" unicode="&#x2087;" 
d="M117 274v177h639v-181l-379 -659h-230l398 663h-428z" />
    <glyph glyph-name="eightinferior" unicode="&#x2088;" 
d="M420 -45q-152 0 -152 -90t152 -90t151 92q1 88 -151 88zM420 287q-129 0 -129 -86t129 -86t129 86t-129 86zM766 -158q0 -116 -92 -180t-255 -64t-254 66q-91 64 -91 178q0 137 131 191v4q-107 59 -107 179t85 183t236 63t237 -62q86 -64 85 -183q0 -119 -106 -172v-4
q131 -55 131 -199z" />
    <glyph glyph-name="nineinferior" unicode="&#x2089;" 
d="M397 59q100 0 150 76q-4 72 -44 112q-41 40 -101 40t-93 -31t-33 -83t33 -83t88 -31zM404 463q154 0 247 -109q94 -110 94 -312t-100 -323t-278 -120q-147 0 -220 53v196h11q78 -74 188 -73q170 0 201 182h-4q-70 -57 -191 -57q-122 0 -196 72t-74 202q0 129 84 209
t238 80z" />
    <glyph glyph-name="Euro" unicode="&#x20ac;" horiz-adv-x="1331" 
d="M899 1126q-244 0 -330 -221h496v-147h-526q-4 -49 -4 -89t2 -63h528v-147h-498q80 -225 332 -226q184 0 303 119h15v-284q-123 -88 -351 -88t-386 126q-157 126 -208 353h-157v147h135q-2 25 -2 76t2 76h-135v147h157q53 225 209 350t384 125t352 -88v-284h-15
q-119 118 -303 118z" />
    <glyph glyph-name="uni20B9" unicode="&#x20b9;" horiz-adv-x="1331" 
d="M963 1198v-4q59 -68 73 -168h170v-160h-168q-39 -299 -393 -334v-4l555 -528h-373l-577 573v140h217q240 0 281 153h-629v160h626q-41 150 -278 150h-348v184h1087v-162h-243z" />
    <glyph glyph-name="uni2113" unicode="&#x2113;" horiz-adv-x="1044" 
d="M504 696h4q174 156 174 348q0 111 -84 111q-94 0 -94 -135v-324zM692 217q125 0 211 92h10v-280q-89 -49 -245 -49t-265 70t-147 210q-59 -35 -139 -74v269q94 49 121 65v504q0 166 96 261t258 95t252 -90t90 -256t-101 -316t-329 -306q4 -92 53 -144t135 -51z" />
    <glyph glyph-name="uni2117" unicode="&#x2117;" horiz-adv-x="1589" 
d="M727 705h129q100 0 100 86t-100 86h-129v-172zM547 1038h317q276 0 277 -247q0 -248 -277 -248h-137v-221h-180v716zM795 137q229 0 379 153q150 152 150 390t-150 390t-379 153q-229 0 -379 -153q-150 -152 -150 -390t150 -390t379 -153zM795 1380q301 0 501 -200
t199 -500q0 -301 -200 -501q-201 -199 -501 -199t-500 200t-200 500t200 500t501 200z" />
    <glyph glyph-name="trademark" unicode="&#x2122;" horiz-adv-x="1589" 
d="M1485 670h-164v487h-4l-170 -487h-146l-167 481h-5v-481h-155v690h244l157 -457h4l156 457h250v-690zM575 1360v-146h-186v-544h-164v544h-184v146h534z" />
    <glyph glyph-name="uni2126" unicode="&#x2126;" horiz-adv-x="1581" 
d="M1481 270v-270h-559v258q276 160 276 447q0 181 -114 293t-294 112t-293 -113q-114 -113 -114 -292q0 -287 276 -447v-258h-559v270h246v4q-129 68 -200 192t-70 286q0 280 198 454t516 174t517 -174t198 -454q-1 -162 -71 -286t-199 -192v-4h246z" />
    <glyph glyph-name="estimated" unicode="&#x212e;" horiz-adv-x="1634" 
d="M817 1339q-260 0 -450 -204q-16 -25 -17 -45v-377q0 -12 8 -13h918q12 0 12 13v385q0 25 -20 45q-191 196 -451 196zM817 1380q305 0 521 -204t216 -496v-16h-1196q-8 0 -8 -9v-385q0 -16 17 -41q182 -209 454 -209q137 0 261 62t214 172h109q-104 -127 -259 -201
t-329 -73q-305 0 -521 204t-216 496t216 496t521 204z" />
    <glyph glyph-name="onethird" unicode="&#x2153;" horiz-adv-x="2002" 
d="M639 520h-193v613l-210 -127v192l247 162h156v-840zM1901 242q0 -254 -346 -254q-172 0 -261 75v209h11q88 -109 262 -108q139 0 139 94q0 86 -147 86h-109v160h94q152 0 152 82q0 90 -140 90t-235 -101h-10v207q101 70 259 70t238 -64t80 -181q0 -118 -104 -177v-4
q117 -58 117 -184zM459 0l880 1360h205l-880 -1360h-205z" />
    <glyph glyph-name="twothirds" unicode="&#x2154;" horiz-adv-x="2002" 
d="M715 696v-176h-588v185l207 159q110 86 148 132t38 98q0 102 -137 102t-236 -102h-10v209q100 69 254 69t239 -68t85 -192q0 -92 -50 -163t-196 -183l-86 -66v-4h332zM1901 242q0 -254 -346 -254q-172 0 -261 75v209h11q88 -109 262 -108q139 0 139 94q0 86 -147 86h-109
v160h94q152 0 152 82q0 90 -140 90t-235 -101h-10v207q101 70 259 70t238 -64t80 -181q0 -118 -104 -177v-4q117 -58 117 -184zM489 0l881 1360h205l-881 -1360h-205z" />
    <glyph glyph-name="oneeighth" unicode="&#x215b;" horiz-adv-x="2002" 
d="M639 520h-193v613l-210 -127v192l247 162h156v-840zM1583 164q152 0 152 90t-152 90t-151 -88q-1 -92 151 -92zM1583 676q-129 0 -129 -86t129 -86t129 86t-129 86zM1929 231q0 -115 -92 -179t-255 -64t-254 64t-91 179q0 137 131 191v4q-106 59 -106 179t85 183
q85 64 235 64t237 -64q85 -64 85 -182q0 -119 -106 -172v-4q131 -55 131 -199zM459 0l880 1360h205l-880 -1360h-205z" />
    <glyph glyph-name="threeeighths" unicode="&#x215c;" horiz-adv-x="2002" 
d="M131 793h10q88 -109 262 -109q139 0 140 94q0 86 -148 86h-108v160h94q152 0 151 82q0 90 -140 90t-234 -100h-11v207q102 69 260 69t238 -63t80 -181t-104 -178v-4q117 -59 117 -184t-88 -190q-86 -64 -258 -64t-261 76v209zM1583 164q152 0 152 90t-152 90t-151 -88
q-1 -92 151 -92zM1583 676q-129 0 -129 -86t129 -86t129 86t-129 86zM1929 231q0 -115 -92 -179t-255 -64t-254 64t-91 179q0 137 131 191v4q-106 59 -106 179t85 183q85 64 235 64t237 -64q85 -64 85 -182q0 -119 -106 -172v-4q131 -55 131 -199zM461 0l880 1360h205
l-880 -1360h-205z" />
    <glyph glyph-name="fiveeighths" unicode="&#x215d;" horiz-adv-x="2002" 
d="M449 1065q139 0 218 -73q79 -74 79 -204t-90 -205q-88 -75 -256 -75t-271 57v197h10q94 -78 262 -78q72 0 111 28t39 79q0 109 -189 108q-113 0 -198 -29h-10v490h536v-176h-379v-131q62 12 138 12zM1583 164q152 0 152 90t-152 90t-151 -88q-1 -92 151 -92zM1583 676
q-129 0 -129 -86t129 -86t129 86t-129 86zM1929 231q0 -115 -92 -179t-255 -64t-254 64t-91 179q0 137 131 191v4q-106 59 -106 179t85 183q85 64 235 64t237 -64q85 -64 85 -182q0 -119 -106 -172v-4q131 -55 131 -199zM461 0l880 1360h205l-880 -1360h-205z" />
    <glyph glyph-name="seveneighths" unicode="&#x215e;" horiz-adv-x="2002" 
d="M117 1184v176h639v-180l-379 -660h-230l398 664h-428zM1583 164q152 0 152 90t-152 90t-151 -88q-1 -92 151 -92zM1583 676q-129 0 -129 -86t129 -86t129 86t-129 86zM1929 231q0 -115 -92 -179t-255 -64t-254 64t-91 179q0 137 131 191v4q-106 59 -106 179t85 183
q85 64 235 64t237 -64q85 -64 85 -182q0 -119 -106 -172v-4q131 -55 131 -199zM375 0l880 1360h205l-880 -1360h-205z" />
    <glyph glyph-name="partialdiff" unicode="&#x2202;" horiz-adv-x="1208" 
d="M514 233q88 1 161 93t109 245q-23 70 -67 111q-45 41 -103 41q-102 0 -171 -91t-68 -233q0 -76 38 -121t101 -45zM819 864q0 336 -273 336q-138 0 -247 -108h-14v276q131 86 347 86t346 -162t130 -440q0 -379 -177 -626t-450 -246q-179 0 -287 112t-108 303
q0 231 140 401t320 169q180 0 269 -117h4v16z" />
    <glyph glyph-name="uni2206" unicode="&#x2206;" horiz-adv-x="1507" 
d="M745 1014l-294 -744h593l-294 744h-5zM27 0l579 1360h293l580 -1360h-1452z" />
    <glyph glyph-name="product" unicode="&#x220f;" horiz-adv-x="1411" 
d="M1270 -266h-303v1356h-525v-1356h-303v1626h1131v-1626z" />
    <glyph glyph-name="summation" unicode="&#x2211;" horiz-adv-x="1202" 
d="M1155 4v-270h-1065v258l475 555l-475 555v256h1065v-271h-647l463 -540l-465 -543h649z" />
    <glyph glyph-name="minus" unicode="&#x2212;" horiz-adv-x="1331" 
d="M96 496v237h1139v-237h-1139z" />
    <glyph glyph-name="uni2219" unicode="&#x2219;" horiz-adv-x="563" 
d="M282 850q72 0 120 -49t48 -121t-48 -120t-120 -48t-121 48q-48 48 -48 120t48 121t121 49z" />
    <glyph glyph-name="radical" unicode="&#x221a;" horiz-adv-x="1118" 
d="M92 260v238h336l115 -297h4l297 1200h256l-400 -1544h-266l-166 403h-176z" />
    <glyph glyph-name="infinity" unicode="&#x221e;" horiz-adv-x="1435" 
d="M1018 526q59 0 94 42t35 112t-39 112t-104 42q-109 0 -191 -125q55 -102 100 -143q46 -40 105 -40zM434 526q109 0 187 121q-53 103 -99 145t-104 42q-59 0 -94 -42t-35 -112q-1 -70 39 -112t106 -42zM1010 1022q160 0 246 -92t87 -250q0 -158 -88 -250t-241 -92
q-199 0 -316 168h-4q-112 -168 -270 -168t-245 92t-87 250t88 250t242 92q195 0 311 -172h4q113 172 273 172z" />
    <glyph glyph-name="integral" unicode="&#x222b;" horiz-adv-x="794" 
d="M565 1454q109 0 180 -39v-248h-10q-37 49 -110 50q-94 0 -95 -113v-1190q0 -324 -301 -324q-109 0 -180 39v248h10q35 -49 111 -49q92 0 92 113v1189q0 324 303 324z" />
    <glyph glyph-name="approxequal" unicode="&#x2248;" horiz-adv-x="1331" 
d="M434 553q76 0 143 -27q67 -26 161 -96t148 -70t99 44t102 149l195 -115q-162 -315 -385 -315q-77 0 -143 27q-66 26 -161 96t-149 70t-98 -45q-45 -44 -102 -148l-195 115q162 315 385 315zM434 1106q76 0 143 -27t161 -97t148 -69q54 0 99 44t102 149l195 -115
q-162 -315 -385 -315q-77 0 -143 26t-161 97q-95 69 -149 69t-98 -44q-45 -44 -102 -148l-195 115q162 315 385 315z" />
    <glyph glyph-name="notequal" unicode="&#x2260;" horiz-adv-x="1331" 
d="M1214 473v-233h-602l-120 -236h-240l121 236h-256v233h377l145 283h-522v233h643l121 236h239l-121 -236h215v-233h-335l-146 -283h481z" />
    <glyph glyph-name="lessequal" unicode="&#x2264;" horiz-adv-x="1331" 
d="M1194 238v-238h-1057v238h1057zM522 776l672 -223v-260l-1057 383v203l1057 381v-259l-672 -221v-4z" />
    <glyph glyph-name="greaterequal" unicode="&#x2265;" horiz-adv-x="1331" 
d="M1194 238v-238h-1057v238h1057zM1194 676l-1057 -383v260l672 223v4l-672 221v259l1057 -381v-203z" />
    <glyph glyph-name="lozenge" unicode="&#x25ca;" horiz-adv-x="1288" 
d="M362 680l281 -424l281 424l-281 424zM541 0l-455 680l455 680h207l454 -680l-454 -680h-207z" />
    <glyph glyph-name="uniE069" unicode="&#xe069;" horiz-adv-x="507" 
d="M119 0v963h268v-963h-268zM254 1425q72 0 119 -46q47 -47 47 -119t-47 -118t-119 -46t-119 46t-47 119t47 119t119 45z" />
    <glyph glyph-name="uniEF01" unicode="&#xef01;" horiz-adv-x="1024" 
d="M182 -430l199 307h270l-235 -307h-234z" />
    <glyph glyph-name="uniEF02" unicode="&#xef02;" horiz-adv-x="1024" 
d="M350 1032l56 402h270l-123 -402h-203z" />
    <glyph glyph-name="uniF8FF" unicode="&#xf8ff;" horiz-adv-x="2048" 
d="M1950 682v-10h-19v-51h-12v51h-16v10h47zM2021 682v-61h-12v51h-2l-14 -41h-8l-15 41h-2v-51h-10v61h20l11 -33h2l10 33h20zM588 596h-15q-10 0 -12 -10l-26 -117h36l25 115q2 12 -8 12zM1155 596h-14q-10 0 -13 -10l-26 -117h37l24 115q2 12 -8 12zM764 596h-25
l-28 -127h26q11 0 13 8l22 107q2 12 -8 12zM1673 596h-24l-29 -127h27q10 0 12 8l22 107q2 12 -8 12zM190 416q8 0 13 10l35 158q2 12 -7 12h-26l-41 -180h26zM1374 596l-49 -219h-49l49 219h-39l8 39h125l-8 -39h-37zM1845 496l-8 -39h-53l-8 -41h67l-10 -39h-115l58 258
h116l-10 -39h-65l-23 -100h51zM1462 469h15q10 0 12 8l35 158h49l-35 -160q-8 -45 -49 -45l-29 -53h-49l29 53q-37 0 -37 31q0 10 2 20l35 154h49l-35 -154q-2 -12 8 -12zM477 635l-57 -258h-49l12 53h-37l-12 -53h-49l57 258h49l-37 -166h37l37 166h49zM1657 430h-45
l-13 -53h-49l58 258h88q37 0 37 -31q0 -8 -2 -20l-25 -109q-8 -45 -49 -45zM786 635q37 0 37 -31q0 -8 -2 -20l-22 -107q-8 -35 -27 -41l12 -59h-47l-8 53h-27l-12 -53h-49l57 258h88zM1133 635h45q37 0 36 -31q0 -8 -2 -20l-45 -207h-49l12 53h-34l-15 -53h-49l47 211
q10 47 54 47zM565 635h45q37 0 37 -31q0 -8 -2 -20l-45 -207h-49l12 53h-35l-14 -53h-49l47 211q10 47 53 47zM201 377h-95l58 258h88q37 0 37 -31q0 -8 -2 -20l-35 -158q-14 -49 -51 -49zM899 430v107h-2l-35 -160h-47l57 258h54l2 -135h2l57 135h64l-58 -258h-49l35 160
h-2l-45 -107h-33z" />
    <glyph glyph-name="zero.numr" 
d="M420 1196q-146 0 -146 -256t146 -256t145 256q0 256 -145 256zM420 1372q164 0 252 -112t88 -320t-88 -320t-252 -112t-252 112t-88 320t88 320t252 112z" />
    <glyph glyph-name="one.numr" 
d="M639 520h-193v613l-210 -127v192l247 162h156v-840z" />
    <glyph glyph-name="two.numr" 
d="M715 696v-176h-588v185l207 159q110 86 148 132t38 98q0 102 -137 102t-236 -102h-10v209q100 69 254 69t239 -68t85 -192q0 -92 -50 -163t-196 -183l-86 -66v-4h332z" />
    <glyph glyph-name="three.numr" 
d="M131 793h10q88 -109 262 -109q139 0 140 94q0 86 -148 86h-108v160h94q152 0 151 82q0 90 -140 90t-234 -100h-11v207q102 69 260 69t238 -63t80 -181t-104 -178v-4q117 -59 117 -184t-88 -190q-86 -64 -258 -64t-261 76v209z" />
    <glyph glyph-name="four.numr" 
d="M489 842v280l-217 -280h217zM682 666v-146h-193v146h-409v168l403 526h199v-518h102v-176h-102z" />
    <glyph glyph-name="five.numr" 
d="M449 1065q139 0 218 -73q79 -74 79 -204t-90 -205q-88 -75 -256 -75t-271 57v197h10q94 -78 262 -78q72 0 111 28t39 79q0 109 -189 108q-113 0 -198 -29h-10v490h536v-176h-379v-131q62 12 138 12z" />
    <glyph glyph-name="six.numr" 
d="M436 684q60 0 94 31q33 31 33 83t-33 83t-88 30q-100 0 -149 -75q3 -72 43 -112t100 -40zM487 1071q121 0 196 -73q75 -74 75 -202t-84 -208t-238 -80t-248 108q-94 109 -94 312q0 204 100 324t264 120q162 0 234 -53v-197h-10q-78 74 -188 74q-170 0 -201 -182h4
q69 57 190 57z" />
    <glyph glyph-name="seven.numr" 
d="M117 1184v176h639v-180l-379 -660h-230l398 664h-428z" />
    <glyph glyph-name="eight.numr" 
d="M420 864q-152 0 -152 -90t152 -90t151 92q1 88 -151 88zM420 1196q-129 0 -129 -86t129 -86t129 86t-129 86zM766 752q0 -115 -92 -180q-92 -64 -255 -64t-254 64t-91 180q0 137 131 190v4q-107 60 -107 180t85 183t236 63t237 -63t85 -183q0 -120 -106 -172v-4
q131 -55 131 -198z" />
    <glyph glyph-name="nine.numr" 
d="M397 969q100 0 150 75q-4 72 -44 112q-41 40 -101 40t-93 -31t-33 -83t33 -82t88 -31zM404 1372q154 0 247 -108q94 -108 94 -312q0 -202 -100 -323q-101 -121 -263 -121t-235 53v197h11q78 -74 188 -74q170 0 201 182h-4q-70 -57 -191 -57q-122 0 -196 73
q-74 74 -74 202t84 208t238 80z" />
    <glyph glyph-name="zero.dnom" 
d="M420 676q-146 0 -146 -256t146 -256t145 256q0 256 -145 256zM420 852q164 0 252 -112t88 -320t-88 -321q-88 -111 -252 -111t-252 112t-88 320t88 320t252 112z" />
    <glyph glyph-name="one.dnom" 
d="M639 0h-193v612l-210 -127v193l247 162h156v-840z" />
    <glyph glyph-name="two.dnom" 
d="M715 176v-176h-588v184l207 160q110 86 148 132t38 97q0 103 -137 103t-236 -103h-10v209q100 70 254 70t239 -68t85 -176t-50 -179t-196 -183l-86 -66v-4h332z" />
    <glyph glyph-name="three.dnom" 
d="M131 272h10q88 -109 262 -108q139 0 140 94q0 86 -148 86h-108v160h94q152 0 151 82q0 90 -140 90t-234 -101h-11v207q102 70 260 70t238 -64t80 -181q0 -118 -104 -177v-4q117 -58 117 -184t-88 -190q-86 -64 -258 -64t-261 75v209z" />
    <glyph glyph-name="four.dnom" 
d="M489 322v280l-217 -280h217zM682 145v-145h-193v145h-409v168l403 527h199v-518h102v-177h-102z" />
    <glyph glyph-name="five.dnom" 
d="M392 164q159 0 159 108t-189 107q-113 0 -198 -29h-10v490h536v-176h-379v-132q62 13 138 13q139 0 218 -73t79 -204t-90 -206q-88 -74 -256 -74t-271 57v197h10q94 -78 253 -78z" />
    <glyph glyph-name="six.dnom" 
d="M436 164q60 0 94 31q33 31 33 83t-33 82q-33 31 -88 31q-100 0 -149 -76q3 -71 43 -111t100 -40zM487 551q121 0 196 -73q75 -74 75 -202t-84 -208t-238 -80t-248 108q-94 110 -94 312t100 323t264 121q162 0 234 -53v-197h-10q-78 74 -188 74q-170 0 -201 -182h4
q69 57 190 57z" />
    <glyph glyph-name="seven.dnom" 
d="M117 664v176h639v-181l-379 -659h-230l398 664h-428z" />
    <glyph glyph-name="eight.dnom" 
d="M420 344q-152 0 -152 -90t152 -90t151 92q1 88 -151 88zM420 676q-129 0 -129 -86t129 -86t129 86t-129 86zM766 231q0 -115 -92 -179t-255 -64t-254 64t-91 179q0 137 131 191v4q-107 59 -107 179t85 183q85 64 236 64t237 -64t85 -182q0 -119 -106 -172v-4
q131 -55 131 -199z" />
    <glyph glyph-name="nine.dnom" 
d="M397 449q100 0 150 75q-4 72 -44 112q-41 40 -101 40t-93 -31t-33 -83t33 -82t88 -31zM404 852q154 0 247 -109q94 -109 94 -311t-100 -324q-101 -120 -263 -120t-235 53v197h11q78 -74 188 -74q170 0 201 182h-4q-70 -57 -191 -57q-122 1 -196 73t-74 201t84 209t238 80
z" />
    </font>
</defs>
</svg>
