<?xml version="1.0" standalone="no"?>
<!DOCTYPE svg PUBLIC "-//W3C//DTD SVG 1.1//EN" "http://www.w3.org/Graphics/SVG/1.1/DTD/svg11.dtd" >
<svg xmlns="http://www.w3.org/2000/svg">
<metadata>
Created by FontPrep 20130207 at Tue Aug 23 14:39:29 2016
 By Callum Flack
Copyright (c) 2014 by Ryoichi Tsunekawa. All rights reserved.
</metadata>
<defs>
<font id="42814913b143ae7e25c40a756144436d" horiz-adv-x='1024' >
  <font-face 
    font-family="Graphie-SemiBold"
    font-weight="600"
    font-stretch="normal"
    units-per-em="2048"
    panose-1="2 11 6 3 2 2 4 2 2 4"
    ascent="1536"
    descent="-512"
    x-height="961"
    cap-height="1360"
    bbox="-369 -430 2193 1892"
    underline-thickness="129"
    underline-position="-82"
    unicode-range="U+0020-FB03"
  />
<missing-glyph horiz-adv-x="1269" 
d="M635 604l-375 -520h750zM1067 156v1048l-377 -524zM203 1204v-1048l377 524zM260 1276l375 -520l375 520h-750zM111 0v1360h1048v-1360h-1048z" />
    <glyph glyph-name="ff" unicode="ff" horiz-adv-x="1368" 
d="M1174 1454q125 0 194 -35v-202h-10q-61 43 -152 43q-158 0 -157 -173v-126h292v-189h-292v-772h-218v772h-419v-772h-217v772h-170v189h170v116q0 172 88 264q87 93 233 93t215 -35v-203h-10q-61 43 -145 43q-164 0 -164 -170v-108h419v137q1 172 89 264t254 92z" />
    <glyph glyph-name="fi" unicode="fi" horiz-adv-x="1183" 
d="M947 1122q-62 0 -100 38t-38 100t38 100q38 39 100 39q63 0 101 -39t38 -100t-38 -100q-39 -38 -101 -38zM1055 0h-217v772h-426v-772h-217v772h-170v189h170v137q0 170 87 263t244 93q115 0 185 -35v-202h-11q-61 43 -136 43q-76 0 -114 -44t-38 -126v-129h643v-961z
" />
    <glyph glyph-name="ffi" unicode="ffi" horiz-adv-x="1820" 
d="M1722 1260q0 -62 -38 -100t-100 -38t-100 38t-38 100t38 100q38 39 100 39t100 -39t38 -100zM1692 961v-961h-217v772h-426v-772h-218v772h-419v-772h-217v772h-170v189h170v116q0 172 88 264q87 93 233 93t215 -35v-203h-10q-61 43 -145 43q-164 0 -164 -170v-108h419
v137q-1 170 87 263t245 93q115 0 185 -35v-202h-11q-61 43 -136 43t-114 -44t-38 -126v-129h643z" />
    <glyph glyph-name="f_j" unicode="fj" horiz-adv-x="1183" 
d="M947 1122q-62 0 -100 38t-38 100t38 100q38 39 100 39q63 0 101 -39t38 -100t-38 -100q-39 -38 -101 -38zM1055 961v-1076q0 -295 -264 -295q-70 0 -129 21v199h10q33 -25 79 -25t66 28t21 89v870h-426v-772h-217v772h-170v189h170v137q0 170 87 263t244 93
q115 0 185 -35v-202h-11q-61 43 -136 43q-76 0 -114 -44t-38 -126v-129h643z" />
    <glyph glyph-name="f_f_j" unicode="ffj" horiz-adv-x="1820" 
d="M1722 1260q0 -62 -38 -100t-100 -38t-100 38t-38 100t38 100q38 39 100 39t100 -39t38 -100zM1692 961v-1076q0 -295 -265 -295q-70 0 -129 21v199h11q35 -25 79 -25t66 28q20 28 21 89v870h-426v-772h-218v772h-419v-772h-217v772h-170v189h170v116q0 172 88 264
q87 93 233 93t215 -35v-203h-10q-61 43 -145 43q-164 0 -164 -170v-108h419v137q-1 170 87 263t245 93q115 0 185 -35v-202h-11q-61 43 -136 43t-114 -44t-38 -126v-129h643z" />
    <glyph glyph-name=".notdef" horiz-adv-x="1269" 
d="M635 604l-375 -520h750zM1067 156v1048l-377 -524zM203 1204v-1048l377 524zM260 1276l375 -520l375 520h-750zM111 0v1360h1048v-1360h-1048z" />
    <glyph glyph-name=".null" horiz-adv-x="0" 
 />
    <glyph glyph-name="nonmarkingreturn" horiz-adv-x="681" 
 />
    <glyph glyph-name="space" unicode=" " horiz-adv-x="450" 
 />
    <glyph glyph-name="exclam" unicode="!" horiz-adv-x="536" 
d="M269 262q61 0 101 -41t40 -100t-40 -101t-100 -40q-60 0 -102 40q-41 40 -41 100t41 101t101 41zM139 1360h258l-28 -952h-201z" />
    <glyph glyph-name="quotedbl" unicode="&#x22;" horiz-adv-x="872" 
d="M522 1360h209l-20 -604h-168zM139 1360h209l-20 -604h-168z" />
    <glyph glyph-name="numbersign" unicode="#" horiz-adv-x="1331" 
d="M502 526h280l47 328h-280zM1210 526l-22 -151h-260l-54 -375h-165l53 375h-281l-53 -375h-168l53 375h-260l21 151h260l47 328h-260l22 152h260l50 354h168l-50 -354h281l49 354h166l-49 -354h260l-23 -152h-260l-47 -328h262z" />
    <glyph glyph-name="dollar" unicode="$" horiz-adv-x="1331" 
d="M944 422q0 62 -46 97q-46 34 -155 48v-305q96 12 149 55q52 43 52 105zM395 936q0 -57 45 -88t152 -45v295q-197 -25 -197 -162zM743 -123h-151v180q-268 12 -416 117v238h12q152 -135 404 -152v324q-217 16 -316 98q-98 82 -98 242t110 259t304 117v162h151v-159
q227 -10 349 -97v-237h-13q-102 113 -336 131v-314q219 -18 317 -103t100 -250t-106 -261t-311 -113v-182z" />
    <glyph glyph-name="percent" unicode="%" horiz-adv-x="1554" 
d="M1176 512q-70 0 -110 -52t-40 -144t40 -144q40 -51 110 -51t110 51t39 143q1 93 -39 145t-110 52zM1176 653q143 0 225 -92t82 -246q0 -155 -82 -245t-225 -90t-226 91q-82 91 -82 245t82 245q83 92 226 92zM379 1239q-70 0 -110 -52q-40 -53 -40 -145t40 -143t110 -51
q69 0 109 51t40 143t-40 144t-109 53zM252 0l870 1360h181l-871 -1360h-180zM379 1380q143 0 225 -92t82 -246t-82 -244t-225 -91q-143 0 -225 91q-82 90 -82 244t82 246t225 92z" />
    <glyph glyph-name="ampersand" unicode="&#x26;" horiz-adv-x="1312" 
d="M307 375q1 -95 63 -149t190 -54t222 57l-323 361q-152 -84 -152 -215zM760 1044q0 64 -49 103t-128 39t-129 -40t-50 -118t102 -188l16 -19q130 57 184 109q54 50 54 114zM86 352q0 244 246 379q-146 161 -146 313t104 244t282 92q176 0 280 -85t104 -220t-72 -226
t-235 -165l283 -309q68 111 67 270q0 25 -4 74h209q4 -45 4 -68q0 -254 -143 -422l209 -229h-285l-80 88q-166 -108 -376 -108q-211 0 -329 99t-118 273z" />
    <glyph glyph-name="quotesingle" unicode="'" horiz-adv-x="489" 
d="M139 1360h209l-20 -604h-168z" />
    <glyph glyph-name="parenleft" unicode="(" horiz-adv-x="792" 
d="M397 576q0 -446 301 -785h-223q-307 333 -307 785t307 784h223q-301 -338 -301 -784z" />
    <glyph glyph-name="parenright" unicode=")" horiz-adv-x="792" 
d="M395 575q0 446 -301 785h223q307 -332 307 -784t-307 -785h-223q301 338 301 784z" />
    <glyph glyph-name="asterisk" unicode="*" horiz-adv-x="944" 
d="M627 655l-154 285l-156 -285l-157 115l223 238l-320 61l62 180l291 -137l-41 322h194l-41 -322l291 137l62 -180l-320 -61l223 -238z" />
    <glyph glyph-name="plus" unicode="+" horiz-adv-x="1331" 
d="M762 518v-483h-193v483h-483v193h483v483h193v-483h483v-193h-483z" />
    <glyph glyph-name="comma" unicode="," horiz-adv-x="536" 
d="M10 -240l174 482h224l-220 -482h-178z" />
    <glyph glyph-name="hyphen" unicode="-" horiz-adv-x="757" 
d="M668 451h-578v219h578v-219z" />
    <glyph glyph-name="period" unicode="." horiz-adv-x="536" 
d="M269 262q61 0 101 -41t40 -100t-40 -101t-100 -40q-60 0 -102 40q-41 40 -41 100t41 101t101 41z" />
    <glyph glyph-name="slash" unicode="/" horiz-adv-x="856" 
d="M602 1421h197l-545 -1585h-195z" />
    <glyph glyph-name="zero" unicode="0" horiz-adv-x="1331" 
d="M666 1174q-158 0 -244 -128t-86 -366t86 -366t244 -128t244 128t85 366q1 238 -85 366t-244 128zM666 1380q266 0 413 -183t147 -517t-146 -517q-148 -183 -414 -183t-414 183q-147 183 -148 517q0 334 148 517t414 183z" />
    <glyph glyph-name="one" unicode="1" horiz-adv-x="1331" 
d="M979 0h-229v1098l-447 -244v238l490 268h186v-1360z" />
    <glyph glyph-name="two" unicode="2" horiz-adv-x="1331" 
d="M1149 207v-207h-961v217l306 242q248 193 336 297t88 205t-73 157t-210 56q-248 0 -416 -168h-12v245q174 129 424 129t384 -105t134 -304q1 -164 -105 -303t-389 -344l-155 -113v-4h649z" />
    <glyph glyph-name="three" unicode="3" horiz-adv-x="1331" 
d="M1190 369q0 -185 -143 -287t-396 -102q-145 0 -269 36t-196 103v246h13q69 -83 189 -131t263 -48t225 56t80 155q0 100 -73 146q-74 45 -234 45h-198v200h172q161 0 235 43t74 139t-77 150t-206 54t-239 -46t-183 -122h-12v245q164 129 422 129t392 -100t134 -279
q0 -213 -190 -305v-4q217 -92 217 -323z" />
    <glyph glyph-name="four" unicode="4" horiz-adv-x="1331" 
d="M854 467v600l-489 -600h489zM1083 0h-229v260h-758v195l748 905h239v-893h187v-207h-187v-260z" />
    <glyph glyph-name="five" unicode="5" horiz-adv-x="1331" 
d="M686 877q238 0 371 -117t133 -328t-146 -332t-401 -120q-315 0 -473 124v236h12q150 -154 451 -154q155 0 239 65t84 183q0 242 -364 242q-203 0 -367 -76h-12v760h887v-207h-682v-307q102 31 268 31z" />
    <glyph glyph-name="six" unicode="6" horiz-adv-x="1331" 
d="M699 186q135 0 211 71t77 185q0 114 -74 182q-74 67 -198 66q-238 0 -346 -180q15 -152 105 -238t225 -86zM736 889q228 0 357 -122q128 -122 128 -327q1 -204 -139 -332t-367 -128q-279 0 -433 174t-155 504q0 330 166 526q166 197 457 196q240 0 364 -92v-233h-12
q-122 119 -316 119t-300 -110t-124 -310h5q141 135 369 135z" />
    <glyph glyph-name="seven" unicode="7" horiz-adv-x="1331" 
d="M137 1153v207h1102v-217l-735 -1143h-271l752 1153h-848z" />
    <glyph glyph-name="eight" unicode="8" horiz-adv-x="1331" 
d="M666 186q160 0 246 52t85 153q0 197 -331 197q-170 0 -251 -48t-81 -148t86 -154q86 -52 246 -52zM666 1174q-141 0 -217 -50t-76 -145q0 -191 293 -191t292 191q0 95 -76 145t-216 50zM1231 367q0 -183 -150 -285q-149 -102 -415 -102t-416 102t-150 285q0 231 238 313
v4q-197 90 -197 317q-1 179 139 279t386 100t385 -100t139 -279q0 -210 -197 -294v-5q238 -86 238 -335z" />
    <glyph glyph-name="nine" unicode="9" horiz-adv-x="1331" 
d="M616 670q238 0 347 180q-15 152 -105 238t-225 86t-212 -71t-77 -185t74 -182q74 -66 198 -66zM616 1380q279 0 434 -174q154 -174 154 -504t-166 -526q-166 -197 -456 -196q-240 0 -365 92v233h12q123 -119 317 -119t300 110t123 310h-4q-141 -135 -371 -135t-356 122
q-127 123 -127 327t139 332t366 128z" />
    <glyph glyph-name="colon" unicode=":" horiz-adv-x="536" 
d="M269 948q61 0 101 -41t40 -100t-40 -100t-100 -41t-102 41q-41 41 -41 100t41 100t101 41zM269 262q61 0 101 -41t40 -100t-40 -101t-100 -40q-60 0 -102 40q-41 40 -41 100t41 101t101 41z" />
    <glyph glyph-name="semicolon" unicode=";" horiz-adv-x="536" 
d="M269 948q61 0 101 -41t40 -100t-40 -100t-100 -41t-102 41q-41 41 -41 100t41 100t101 41zM10 -240l174 482h224l-220 -482h-178z" />
    <glyph glyph-name="less" unicode="&#x3c;" horiz-adv-x="1331" 
d="M414 612l778 -327v-211l-1049 458v164l1049 459v-211l-778 -328v-4z" />
    <glyph glyph-name="equal" unicode="=" horiz-adv-x="1331" 
d="M121 250v192h1089v-192h-1089zM121 786v193h1089v-193h-1089z" />
    <glyph glyph-name="greater" unicode="&#x3e;" horiz-adv-x="1331" 
d="M918 616l-779 328v211l1049 -459v-164l-1049 -458v211l779 327v4z" />
    <glyph glyph-name="question" unicode="?" horiz-adv-x="1005" 
d="M426 262q59 0 100 -41t41 -100t-41 -101t-100 -40q-59 0 -100 40t-41 100t41 101t100 41zM454 1380q240 0 369 -103t129 -273t-98 -269q-98 -100 -322 -172v-155h-210v292q217 47 308 112t91 162t-67 148t-187 52q-246 0 -408 -168h-12v245q167 129 407 129z" />
    <glyph glyph-name="at" unicode="@" horiz-adv-x="1595" 
d="M808 805q-98 1 -158 -63q-62 -64 -62 -166t62 -168q62 -64 158 -64q97 0 159 65q61 65 61 165t-61 166q-61 65 -159 65zM1167 922v-480q0 -98 69 -98t110 75t40 212q0 249 -152 401t-406 152t-418 -176t-164 -440t175 -430q175 -167 448 -167t446 144h10v-135
q-176 -123 -461 -123q-334 -1 -548 197t-214 513t205 523t519 208t504 -187t190 -484q0 -193 -84 -303t-219 -111q-135 0 -168 123h-5q-80 -123 -245 -123t-263 102t-98 260q0 157 98 259t258 102t242 -111h4l2 97h125z" />
    <glyph glyph-name="A" unicode="A" horiz-adv-x="1499" 
d="M748 1081h-5l-256 -610h517zM1202 0l-108 256h-697l-108 -256h-256l598 1360h235l600 -1360h-264z" />
    <glyph glyph-name="B" unicode="B" horiz-adv-x="1316" 
d="M399 219h369q236 0 236 180t-250 181h-355v-361zM399 793h306q252 0 251 176q0 172 -235 172h-322v-348zM1251 375q0 -375 -477 -375h-620v1360h569q479 0 479 -369q0 -215 -184 -295v-4q233 -72 233 -317z" />
    <glyph glyph-name="C" unicode="C" horiz-adv-x="1320" 
d="M793 1380q270 0 430 -120v-269h-13q-141 170 -407 170q-217 0 -351 -133t-134 -348t134 -348t351 -133q266 0 407 170h13v-269q-168 -121 -430 -120q-322 0 -523 196t-200 504q0 309 200 505q201 195 523 195z" />
    <glyph glyph-name="D" unicode="D" horiz-adv-x="1482" 
d="M399 219h279q236 0 362 120t125 341q0 221 -126 341t-361 120h-279v-922zM154 1360h536q344 0 534 -179t189 -501q0 -322 -189 -501t-534 -179h-536v1360z" />
    <glyph glyph-name="E" unicode="E" horiz-adv-x="1257" 
d="M399 791h613v-213h-613v-359h760v-219h-1005v1360h1005v-219h-760v-350z" />
    <glyph glyph-name="F" unicode="F" horiz-adv-x="1220" 
d="M399 772h613v-219h-613v-553h-245v1360h1005v-219h-760v-369z" />
    <glyph glyph-name="G" unicode="G" horiz-adv-x="1437" 
d="M825 1161q-231 0 -369 -131t-138 -350t138 -350t369 -131q129 0 244 34v277h-350v213h588v-623q-186 -120 -508 -120t-526 190q-203 190 -203 510t203 510t525 190t509 -120v-269h-13q-178 170 -469 170z" />
    <glyph glyph-name="H" unicode="H" horiz-adv-x="1505" 
d="M1352 0h-246v578h-707v-578h-245v1360h245v-563h707v563h246v-1360z" />
    <glyph glyph-name="I" unicode="I" horiz-adv-x="552" 
d="M154 0v1360h245v-1360h-245z" />
    <glyph glyph-name="J" unicode="J" horiz-adv-x="1044" 
d="M922 1360v-887q0 -244 -125 -369q-125 -124 -359 -124t-385 118v260h13q55 -74 146 -116t191 -43q272 0 273 299v862h246z" />
    <glyph glyph-name="K" unicode="K" horiz-adv-x="1341" 
d="M399 0h-245v1360h245v-596l570 596h319l-663 -670l684 -690h-334l-576 602v-602z" />
    <glyph glyph-name="L" unicode="L" horiz-adv-x="1183" 
d="M1130 0h-976v1360h245v-1141h731v-219z" />
    <glyph glyph-name="M" unicode="M" horiz-adv-x="1929" 
d="M1776 0h-246v1096h-4l-459 -1096h-223l-449 1075h-4v-1075h-237v1360h368l436 -1038h5l436 1038h377v-1360z" />
    <glyph glyph-name="N" unicode="N" horiz-adv-x="1515" 
d="M1362 0h-297l-670 1092h-4v-1092h-237v1360h338l628 -1016h4v1016h238v-1360z" />
    <glyph glyph-name="O" unicode="O" horiz-adv-x="1560" 
d="M780 1161q-205 0 -334 -134t-129 -347t129 -347t334 -134t334 134t129 347t-129 347t-334 134zM780 1380q313 0 512 -196t199 -504q0 -307 -199 -504q-199 -196 -512 -196t-512 196t-198 504q0 307 198 504q199 196 512 196z" />
    <glyph glyph-name="P" unicode="P" horiz-adv-x="1304" 
d="M399 700h336q262 0 262 220t-262 221h-336v-441zM154 1360h591q500 0 500 -439t-500 -440h-346v-481h-245v1360z" />
    <glyph glyph-name="Q" unicode="Q" horiz-adv-x="1556" 
d="M780 199q76 0 144 18l-240 307h268l156 -198q135 131 135 349t-129 352t-334 134t-334 -134t-129 -347t129 -347t334 -134zM1491 680q0 -344 -240 -541l232 -295h-269l-145 187q-137 -51 -289 -51q-313 0 -512 196t-198 504q0 307 198 504q199 196 512 196t512 -196
t199 -504z" />
    <glyph glyph-name="R" unicode="R" horiz-adv-x="1359" 
d="M399 717h349q260 0 260 212t-260 212h-349v-424zM399 0h-245v1360h602q500 0 499 -432q0 -330 -301 -408l342 -520h-290l-304 498h-303v-498z" />
    <glyph glyph-name="S" unicode="S" horiz-adv-x="1198" 
d="M642 1380q266 0 411 -108v-260h-13q-139 150 -424 149q-130 0 -206 -51t-76 -131t66 -119t235 -55q268 -27 382 -124q113 -97 113 -290t-140 -303t-392 -108q-340 0 -510 129v262h12q188 -172 492 -172q141 0 218 49t77 134t-69 125t-247 60q-261 29 -371 120t-110 279
t142 302q144 112 410 112z" />
    <glyph glyph-name="T" unicode="T" horiz-adv-x="1206" 
d="M727 0h-246v1141h-428v219h1100v-219h-426v-1141z" />
    <glyph glyph-name="U" unicode="U" horiz-adv-x="1417" 
d="M1294 1360v-785q0 -596 -587 -595q-584 0 -584 595v785h246v-768q0 -193 87 -293t256 -100t257 100t88 293v768h237z" />
    <glyph glyph-name="V" unicode="V" horiz-adv-x="1417" 
d="M827 0h-237l-557 1360h264l414 -1049h4l413 1049h256z" />
    <glyph glyph-name="W" unicode="W" horiz-adv-x="2062" 
d="M2023 1360l-434 -1360h-248l-309 952h-4l-311 -952h-246l-432 1360h258l303 -991h4l324 991h213l321 -993h4l306 993h251z" />
    <glyph glyph-name="X" unicode="X" horiz-adv-x="1447" 
d="M344 0h-289l504 692l-483 668h299l354 -510l356 510h287l-481 -666l502 -694h-297l-375 539z" />
    <glyph glyph-name="Y" unicode="Y" horiz-adv-x="1404" 
d="M582 0v575l-570 785h299l398 -572l397 572h287l-566 -780v-580h-245z" />
    <glyph glyph-name="Z" unicode="Z" horiz-adv-x="1316" 
d="M96 0v207l787 934h-746v219h1073v-207l-786 -934h797v-219h-1125z" />
    <glyph glyph-name="bracketleft" unicode="[" horiz-adv-x="792" 
d="M682 -39v-170h-514v1569h514v-172h-303v-1227h303z" />
    <glyph glyph-name="backslash" unicode="\" horiz-adv-x="856" 
d="M799 -164h-197l-543 1585h195z" />
    <glyph glyph-name="bracketright" unicode="]" horiz-adv-x="792" 
d="M111 1190v170h514v-1569h-514v172h303v1227h-303z" />
    <glyph glyph-name="asciicircum" unicode="^" horiz-adv-x="1331" 
d="M666 1143l-347 -574h-223l488 791h164l487 -791h-223z" />
    <glyph glyph-name="underscore" unicode="_" horiz-adv-x="1024" 
d="M0 -274v143h1024v-143h-1024z" />
    <glyph glyph-name="grave" unicode="`" horiz-adv-x="1024" 
d="M432 1100l-266 346h242l235 -346h-211z" />
    <glyph glyph-name="a" unicode="a" horiz-adv-x="1208" 
d="M580 174q129 0 210 86q80 86 80 221t-80 220q-81 85 -210 85t-210 -85t-81 -220t81 -221t210 -86zM1081 0h-180l-6 137h-4q-113 -157 -333 -157t-354 141t-134 358t134 359t353 143q219 0 332 -158h4l8 138h180v-961z" />
    <glyph glyph-name="b" unicode="b" horiz-adv-x="1210" 
d="M630 174q128 0 210 86t82 221t-82 220t-210 85t-210 -85t-82 -220t82 -221t210 -86zM667 981q206 0 340 -142q134 -141 134 -359t-134 -359t-354 -141t-334 157h-4l-6 -137h-182v1434h217v-576h4q113 123 319 123z" />
    <glyph glyph-name="c" unicode="c" horiz-adv-x="987" 
d="M590 981q193 0 307 -84v-235h-10q-98 125 -277 124q-147 0 -234 -84t-87 -222t87 -222q88 -84 250 -84t261 127h10v-240q-106 -81 -323 -81t-361 139q-143 139 -143 361t143 362q144 139 377 139z" />
    <glyph glyph-name="d" unicode="d" horiz-adv-x="1208" 
d="M580 174q129 0 210 86q80 86 80 221t-80 220q-81 85 -210 85t-210 -85t-81 -220t81 -221t210 -86zM1081 0h-180l-6 137h-4q-113 -157 -333 -157t-354 141t-134 358t134 359t338 143q204 0 318 -121h4v574h217v-1434z" />
    <glyph glyph-name="e" unicode="e" horiz-adv-x="1122" 
d="M580 791q-108 1 -189 -59q-80 -60 -100 -157h563q-14 98 -90 157t-184 59zM1055 414h-764q20 -115 112 -180t236 -64q215 0 346 125h10v-215q-129 -100 -373 -100t-398 137t-154 360t140 363t361 141q221 0 353 -125t131 -336v-106z" />
    <glyph glyph-name="f" unicode="f" horiz-adv-x="731" 
d="M537 1454q125 0 194 -35v-202h-10q-61 43 -152 43q-158 0 -157 -173v-126h293v-189h-293v-772h-217v772h-170v189h170v137q0 172 88 264t254 92z" />
    <glyph glyph-name="g" unicode="g" horiz-adv-x="1208" 
d="M580 186q129 0 210 82t80 217q0 135 -80 218q-81 83 -210 83t-210 -83t-81 -218t81 -217t210 -82zM1081 961v-883q0 -228 -139 -358t-390 -130t-390 117v225h10q121 -147 358 -147q162 0 248 80t86 225v23h-4q-114 -121 -318 -121t-338 138t-134 355t134 357t354 139
q220 0 333 -158h4l6 138h180z" />
    <glyph glyph-name="h" unicode="h" horiz-adv-x="1136" 
d="M638 981q188 0 290 -111t102 -307v-563h-217v539q0 117 -59 183t-169 64q-109 0 -175 -74t-66 -208v-504h-217v1434h217v-578h4q102 125 290 125z" />
    <glyph glyph-name="i" unicode="i" horiz-adv-x="473" 
d="M127 961h217v-961h-217v961zM237 1399q62 0 100 -39t38 -100q0 -62 -38 -100t-100 -38t-101 38q-38 38 -38 100t38 100q39 39 101 39z" />
    <glyph glyph-name="j" unicode="j" horiz-adv-x="473" 
d="M344 961v-1076q0 -295 -264 -295q-70 0 -129 21v199h10q35 -25 80 -25t65 28t21 89v1059h217zM237 1399q62 0 100 -39t38 -100q0 -62 -38 -100t-100 -38t-101 38q-38 38 -38 100t38 100q39 39 101 39z" />
    <glyph glyph-name="k" unicode="k" horiz-adv-x="1050" 
d="M344 0h-217v1434h217v-885l389 412h273l-457 -469l477 -492h-287l-395 420v-420z" />
    <glyph glyph-name="l" unicode="l" horiz-adv-x="471" 
d="M127 0v1434h217v-1434h-217z" />
    <glyph glyph-name="m" unicode="m" horiz-adv-x="1728" 
d="M1262 981q174 0 267 -108t93 -306v-567h-217v545q0 242 -199 241q-221 0 -221 -290v-496h-217v545q0 242 -201 241q-219 0 -219 -274v-512h-217v961h180l6 -140h5q88 160 300 160t300 -172h4q90 172 336 172z" />
    <glyph glyph-name="n" unicode="n" horiz-adv-x="1136" 
d="M645 981q181 0 283 -111t102 -307v-563h-217v539q0 117 -59 183t-169 64q-109 0 -175 -74t-66 -208v-504h-217v961h182l8 -148h5q94 168 323 168z" />
    <glyph glyph-name="o" unicode="o" horiz-adv-x="1161" 
d="M581 786q-130 0 -211 -85t-81 -220t81 -221t210 -86t211 85q81 85 81 221t-80 221q-81 85 -211 85zM580 981q225 0 368 -140q144 -141 144 -361t-144 -360t-367 -140q-224 0 -368 140q-143 140 -143 360t142 361q143 140 368 140z" />
    <glyph glyph-name="p" unicode="p" horiz-adv-x="1210" 
d="M630 174q128 0 210 86t82 221t-82 220t-210 85t-210 -85t-82 -220t82 -221t210 -86zM653 981q220 0 354 -142q134 -141 134 -359t-134 -359t-340 -141t-319 122h-4v-491h-217v1350h182l6 -138h4q114 158 334 158z" />
    <glyph glyph-name="q" unicode="q" horiz-adv-x="1208" 
d="M580 174q129 0 210 86q80 86 80 221t-80 220q-81 85 -210 85t-210 -85t-81 -220t81 -221t210 -86zM1081 -389h-217v489h-4q-114 -120 -318 -120t-338 141t-134 358t134 359t354 143q220 0 333 -158h4l6 138h180v-1350z" />
    <glyph glyph-name="r" unicode="r" horiz-adv-x="784" 
d="M618 981q88 0 144 -37v-215h-10q-63 45 -152 45q-256 0 -256 -348v-426h-217v961h182l8 -148h5q83 168 296 168z" />
    <glyph glyph-name="s" unicode="s" horiz-adv-x="890" 
d="M478 981q186 0 294 -70v-223h-10q-98 102 -291 103q-78 0 -128 -32t-50 -79q0 -46 40 -66t144 -26q189 -10 273 -83t84 -217t-102 -226t-283 -82q-242 0 -365 94v227h10q121 -131 344 -131q84 0 133 31t49 82t-41 75q-42 24 -157 31q-186 14 -264 79t-78 204t105 224
q107 85 293 85z" />
    <glyph glyph-name="t" unicode="t" horiz-adv-x="778" 
d="M709 229v-215q-70 -35 -181 -34q-162 0 -248 90t-85 260v442h-170v189h176l30 264h181v-264h293v-189h-293v-434q0 -78 40 -122t118 -44t128 57h11z" />
    <glyph glyph-name="u" unicode="u" horiz-adv-x="1136" 
d="M1008 0h-183l-8 145h-4q-96 -166 -321 -165q-180 0 -283 110q-102 111 -103 307v564h218v-539q0 -116 58 -182t169 -66t175 75t65 208v504h217v-961z" />
    <glyph glyph-name="v" unicode="v" horiz-adv-x="1028" 
d="M625 0h-222l-389 961h234l268 -725h4l271 725h223z" />
    <glyph glyph-name="w" unicode="w" horiz-adv-x="1560" 
d="M1217 0h-213l-222 647h-4l-223 -647h-209l-332 961h232l211 -682h4l237 682h174l238 -682h4l211 682h221z" />
    <glyph glyph-name="x" unicode="x" horiz-adv-x="1093" 
d="M287 0h-254l375 494l-355 467h264l236 -332l233 332h254l-352 -467l373 -494h-264l-254 360z" />
    <glyph glyph-name="y" unicode="y" horiz-adv-x="1028" 
d="M438 -389h-223l186 420l-387 930h234l268 -697h4l271 697h223z" />
    <glyph glyph-name="z" unicode="z" horiz-adv-x="1009" 
d="M84 0v174l539 598h-508v189h800v-175l-538 -598h549v-188h-842z" />
    <glyph glyph-name="braceleft" unicode="{" horiz-adv-x="823" 
d="M475 1059v-170q0 -254 -164 -311v-5q164 -57 164 -311v-170q0 -129 131 -129h109v-172h-148q-303 0 -303 301v201q0 104 -41 150t-131 46h-45v173h45q90 0 131 46t41 150v201q0 301 303 301h148v-172h-109q-131 0 -131 -129z" />
    <glyph glyph-name="bar" unicode="|" horiz-adv-x="686" 
d="M262 -389v1823h162v-1823h-162z" />
    <glyph glyph-name="braceright" unicode="}" horiz-adv-x="823" 
d="M348 92v170q0 254 164 311v5q-164 57 -164 311v170q0 129 -131 129h-108v172h147q303 0 303 -301v-201q0 -104 41 -150t131 -46h45v-173h-45q-90 0 -131 -46t-41 -150v-201q0 -301 -303 -301h-147v172h108q131 0 131 129z" />
    <glyph glyph-name="asciitilde" unicode="~" horiz-adv-x="1331" 
d="M901 420q-127 0 -265 98t-202 98q-102 0 -215 -196l-158 94q156 295 369 295q131 0 287 -115q111 -82 180 -82q102 0 215 197l158 -94q-156 -295 -369 -295z" />
    <glyph glyph-name="uni00A0" unicode="&#xa0;" horiz-adv-x="450" 
 />
    <glyph glyph-name="exclamdown" unicode="&#xa1;" horiz-adv-x="536" 
d="M410 1239q0 -59 -42 -100t-101 -41q-60 0 -100 41t-40 100t40 100t100 41q59 0 101 -41t42 -100zM397 0h-258l29 952h201z" />
    <glyph glyph-name="cent" unicode="&#xa2;" horiz-adv-x="1331" 
d="M438 574q0 -126 71 -204t196 -102v613q-125 -23 -196 -102t-71 -205zM1108 760h-12q-98 111 -240 125v-621q145 14 240 125h12v-250q-86 -68 -252 -80v-182h-151v180q-227 17 -363 157t-135 360q0 220 135 360t363 158v180h151v-182q162 -16 252 -82v-248z" />
    <glyph glyph-name="sterling" unicode="&#xa3;" horiz-adv-x="1331" 
d="M803 1174q-252 0 -252 -273v-131h444v-188h-444v-29q0 -125 -34 -205t-109 -137v-4h741v-207h-969v217q78 49 110 114t32 171v80h-142v188h142v154q0 219 115 338q116 118 338 118t374 -108v-246h-12q-141 148 -334 148z" />
    <glyph glyph-name="currency" unicode="&#xa4;" horiz-adv-x="1331" 
d="M666 449q96 1 162 67t65 164q0 98 -66 165q-65 67 -161 67t-162 -68q-66 -66 -66 -164t66 -164t162 -67zM1067 680q0 -117 -61 -217l149 -146l-127 -127l-145 150q-96 -61 -217 -61t-217 61l-146 -150l-127 127l150 146q-61 96 -62 217q0 121 62 217l-150 145l127 127
l146 -149q96 61 217 61t217 -61l145 149l127 -127l-149 -145q61 -100 61 -217z" />
    <glyph glyph-name="yen" unicode="&#xa5;" horiz-adv-x="1331" 
d="M1186 573h-406v-161h406v-160h-406v-252h-229v252h-404v160h404v161h-404v160h385l-454 627h278l316 -461l313 461h268l-454 -627h387v-160z" />
    <glyph glyph-name="brokenbar" unicode="&#xa6;" horiz-adv-x="686" 
d="M262 -389v799h162v-799h-162zM262 635v799h162v-799h-162z" />
    <glyph glyph-name="section" unicode="&#xa7;" horiz-adv-x="1122" 
d="M801 630q1 68 -55 104t-146 48t-117 19q-75 -17 -117 -65t-42 -117t55 -103t201 -55q49 -8 69 -12q70 16 111 64t41 117zM967 134q0 -165 -112 -254t-308 -89q-252 0 -391 92v209h10q131 -119 371 -119q109 0 171 41q62 42 62 106t-54 96t-234 54t-269 98q-90 77 -90 224
q0 180 153 270v4q-120 72 -120 239t112 258q113 91 317 91t324 -74v-204h-10q-109 98 -317 98q-106 0 -166 -42t-62 -104q0 -62 52 -94q52 -31 188 -45q219 -25 312 -105t93 -245q0 -164 -147 -256v-4q115 -80 115 -245z" />
    <glyph glyph-name="dieresis" unicode="&#xa8;" horiz-adv-x="1024" 
d="M724 1391q58 0 94 -37t36 -94q0 -58 -36 -94t-94 -36t-94 36t-36 94t36 94q36 37 94 37zM300 1391q58 0 94 -37t36 -94q0 -58 -36 -94t-94 -36t-94 36t-36 94t36 94q36 37 94 37z" />
    <glyph glyph-name="copyright" unicode="&#xa9;" horiz-adv-x="1603" 
d="M806 1049q154 0 238 -60v-162h-10q-70 88 -190 88q-120 1 -186 -65q-64 -66 -64 -170t64 -170t184 -66t192 88h10v-161q-88 -59 -240 -59t-256 102q-105 104 -106 266q0 162 106 266q104 104 258 103zM803 1249q-240 0 -400 -162q-159 -161 -159 -407t160 -408t399 -162
q241 0 399 162t158 408t-158 408t-399 161zM803 1380q301 0 501 -200t200 -500q0 -301 -200 -501q-200 -199 -501 -199t-501 200t-200 500t200 500t501 200z" />
    <glyph glyph-name="ordfeminine" unicode="&#xaa;" horiz-adv-x="909" 
d="M436 831q82 -1 134 55t53 144q-1 88 -53 144t-134 55q-82 0 -133 -55q-51 -56 -51 -144t51 -144t133 -55zM791 694h-144l-4 86h-4q-78 -100 -225 -100t-242 99q-94 99 -94 251t94 251t242 99t225 -98h4l4 78h144v-666z" />
    <glyph glyph-name="guillemotleft" unicode="&#xab;" horiz-adv-x="1028" 
d="M924 260v-227l-430 440v14l430 441v-228l-228 -221zM489 260v-227l-430 440v14l430 441v-228l-227 -221z" />
    <glyph glyph-name="logicalnot" unicode="&#xac;" horiz-adv-x="1331" 
d="M1221 193h-193v469h-917v192h1110v-661z" />
    <glyph glyph-name="uni00AD" unicode="&#xad;" horiz-adv-x="757" 
d="M668 451h-578v219h578v-219z" />
    <glyph glyph-name="registered" unicode="&#xae;" horiz-adv-x="1603" 
d="M678 702h164q123 0 123 102t-123 101h-164v-203zM1116 807q0 -176 -158 -219l181 -266h-176l-152 253h-133v-253h-150v716h320q268 0 268 -231zM803 111q241 -1 399 161t158 408t-159 408t-399 161q-240 0 -399 -162q-159 -161 -159 -407t159 -408q160 -161 400 -161z
M803 1380q301 0 501 -200t200 -500q0 -301 -200 -501q-200 -199 -501 -199t-501 200t-200 500t200 500t501 200z" />
    <glyph glyph-name="macron" unicode="&#xaf;" horiz-adv-x="1024" 
d="M180 1169v177h664v-177h-664z" />
    <glyph glyph-name="degree" unicode="&#xb0;" horiz-adv-x="796" 
d="M398 1247q-74 0 -120 -49t-46 -125t46 -125q48 -49 120 -49t121 49q48 49 48 125t-48 125t-121 49zM398 1380q132 0 219 -87t87 -220t-86 -220q-88 -87 -220 -87t-220 87t-88 220t88 220t220 87z" />
    <glyph glyph-name="plusminus" unicode="&#xb1;" horiz-adv-x="1331" 
d="M762 193h459v-193h-1110v193h458v419h-458v193h458v436h193v-436h459v-193h-459v-419z" />
    <glyph glyph-name="twosuperior" unicode="&#xb2;" 
d="M711 940v-145h-582v153l193 150q133 106 180 164t47 114q0 125 -160 125q-133 0 -237 -104h-11v174q102 76 254 76t234 -66t82 -175q-1 -109 -57 -186t-220 -204l-90 -72v-4h367z" />
    <glyph glyph-name="threesuperior" unicode="&#xb3;" 
d="M406 1647q318 0 317 -243q0 -120 -113 -179v-4q127 -57 127 -197q0 -115 -86 -178q-87 -64 -257 -64t-263 82v174h10q87 -110 261 -110t173 114q0 109 -169 109h-115v139h100q170 0 170 103q-1 109 -153 109t-248 -103h-10v172q98 76 256 76z" />
    <glyph glyph-name="acute" unicode="&#xb4;" horiz-adv-x="1024" 
d="M383 1100l235 346h242l-266 -346h-211z" />
    <glyph glyph-name="uni00B5" unicode="&#xb5;" horiz-adv-x="1169" 
d="M1036 0h-180l-8 145h-4q-96 -166 -326 -165q-94 0 -168 34v-403h-217v1350h217v-539q0 -116 60 -182t170 -66t175 75t64 208v504h217v-961z" />
    <glyph glyph-name="paragraph" unicode="&#xb6;" horiz-adv-x="1198" 
d="M1012 -389h-148v1681h-233v-1681h-148v948q-414 37 -413 434q0 440 499 441h553v-142h-110v-1681z" />
    <glyph glyph-name="periodcentered" unicode="&#xb7;" horiz-adv-x="536" 
d="M269 821q61 0 101 -41t40 -100t-40 -100t-100 -41t-102 41q-41 41 -41 100t41 100t101 41z" />
    <glyph glyph-name="cedilla" unicode="&#xb8;" horiz-adv-x="1024" 
d="M524 -109h4q193 0 193 -147q0 -154 -234 -154q-111 0 -178 31v131h8q75 -41 137 -41q107 0 105 53q0 51 -84 52q-37 0 -94 -15v27l98 172h103l-58 -104v-5z" />
    <glyph glyph-name="onesuperior" unicode="&#xb9;" 
d="M625 795h-160v651l-215 -135v162l248 161h127v-839z" />
    <glyph glyph-name="ordmasculine" unicode="&#xba;" horiz-adv-x="872" 
d="M436 1229q-82 0 -133 -55q-51 -56 -51 -144t51 -143t133 -55t134 54q52 56 53 144q-1 88 -53 144t-134 55zM436 1380q158 0 259 -98t101 -253t-100 -252q-102 -97 -260 -97t-258 97t-100 252t100 253t258 98z" />
    <glyph glyph-name="guillemotright" unicode="&#xbb;" horiz-adv-x="1028" 
d="M102 700v228l430 -441v-14l-430 -440v227l228 221zM537 700v228l430 -441v-14l-430 -440v227l227 221z" />
    <glyph glyph-name="onequarter" unicode="&#xbc;" horiz-adv-x="1994" 
d="M625 520h-160v651l-215 -135v162l248 162h127v-840zM1675 301v328h-2l-262 -328h264zM1835 0h-160v156h-438v137l440 547h158v-539h107v-145h-107v-156zM729 0h-172l881 1360h172z" />
    <glyph glyph-name="onehalf" unicode="&#xbd;" horiz-adv-x="1994" 
d="M625 520h-160v651l-215 -135v162l248 162h127v-840zM1866 145v-145h-582v154l193 149q133 105 180 163t47 116q0 125 -160 125q-133 0 -237 -105h-11v174q102 76 254 76t234 -66t82 -175t-56 -186t-221 -204l-90 -71v-5h367zM643 0h-172l881 1360h172z" />
    <glyph glyph-name="threequarters" unicode="&#xbe;" horiz-adv-x="1994" 
d="M406 1372q318 0 317 -242q0 -120 -113 -180v-4q127 -57 127 -196q0 -114 -86 -178q-87 -64 -257 -64t-263 82v174h10q87 -111 261 -111t173 115q0 109 -169 109h-115v139h100q170 0 170 102q-1 109 -153 109t-248 -103h-10v172q98 76 256 76zM1675 301v328h-2l-262 -328
h264zM1835 0h-160v156h-438v137l440 547h158v-539h107v-145h-107v-156zM737 0h-172l881 1360h172z" />
    <glyph glyph-name="questiondown" unicode="&#xbf;" horiz-adv-x="1005" 
d="M580 1098q-59 0 -101 41q-41 41 -41 100t41 100t101 41t100 -41q41 -41 41 -100t-41 -100t-100 -41zM552 -20q-240 0 -370 103q-129 103 -129 273q1 170 99 269q98 100 321 172v155h211v-293q-217 -47 -308 -111t-91 -162q1 -97 67 -148t187 -52q246 0 407 168h12v-245
q-166 -129 -406 -129z" />
    <glyph glyph-name="Agrave" unicode="&#xc0;" horiz-adv-x="1499" 
d="M657 1483l-266 346h242l235 -346h-211zM748 1081h-5l-256 -610h517zM1202 0l-108 256h-697l-108 -256h-256l598 1360h235l600 -1360h-264z" />
    <glyph glyph-name="Aacute" unicode="&#xc1;" horiz-adv-x="1499" 
d="M629 1483l235 346h242l-266 -346h-211zM748 1081h-5l-256 -610h517zM1202 0l-108 256h-697l-108 -256h-256l598 1360h235l600 -1360h-264z" />
    <glyph glyph-name="Acircumflex" unicode="&#xc2;" horiz-adv-x="1499" 
d="M596 1483h-209l256 346h211l256 -346h-209l-153 188zM748 1081h-5l-256 -610h517zM1202 0l-108 256h-697l-108 -256h-256l598 1360h235l600 -1360h-264z" />
    <glyph glyph-name="Atilde" unicode="&#xc3;" horiz-adv-x="1499" 
d="M1081 1798v-178q-59 -113 -182 -113q-78 1 -164 51t-141 50q-109 0 -168 -119h-8v178q59 113 182 113q78 0 164 -50t141 -51q109 0 168 119h8zM748 1081h-5l-256 -610h517zM1202 0l-108 256h-697l-108 -256h-256l598 1360h235l600 -1360h-264z" />
    <glyph glyph-name="Adieresis" unicode="&#xc4;" horiz-adv-x="1499" 
d="M962 1774q58 0 94 -37t36 -95t-36 -93q-36 -36 -94 -36t-95 36q-36 36 -36 93t36 95q37 37 95 37zM538 1774q58 0 94 -37t36 -95t-36 -93q-36 -36 -94 -36t-95 36q-36 36 -35 93q0 57 35 95q37 37 95 37zM748 1081h-5l-256 -610h517zM1202 0l-108 256h-697l-108 -256
h-256l598 1360h235l600 -1360h-264z" />
    <glyph glyph-name="Aring" unicode="&#xc5;" horiz-adv-x="1499" 
d="M750 1745q-39 0 -64 -25q-24 -26 -24 -64t24 -63t64 -25t64 26q24 24 24 63t-24 63t-64 25zM750 1870q92 0 152 -60t60 -153t-60 -153t-152 -60t-153 60q-60 60 -60 152q1 92 61 154q60 60 152 60zM748 1081h-5l-256 -610h517zM1202 0l-108 256h-697l-108 -256h-256
l598 1360h235l600 -1360h-264z" />
    <glyph glyph-name="AE" unicode="&#xc6;" horiz-adv-x="2140" 
d="M1036 1116h-4l-428 -645h432v645zM1282 791h612v-213h-612v-359h760v-219h-1006v256h-575l-170 -256h-279l924 1360h1106v-219h-760v-350z" />
    <glyph glyph-name="Ccedilla" unicode="&#xc7;" horiz-adv-x="1320" 
d="M803 1161q-217 0 -351 -133t-134 -348t134 -348t351 -133q266 0 407 170h13v-269q-162 -119 -412 -120l-47 -84v-5h4q193 0 193 -147q0 -154 -234 -154q-111 0 -178 31v131h8q75 -41 137 -41q104 0 105 52q0 52 -84 53q-37 0 -94 -15v27l88 156q-289 27 -464 218
t-175 489t200 494q201 196 523 195q270 0 430 -120v-269h-13q-141 170 -407 170z" />
    <glyph glyph-name="Egrave" unicode="&#xc8;" horiz-adv-x="1257" 
d="M563 1483l-266 346h242l235 -346h-211zM399 791h613v-213h-613v-359h760v-219h-1005v1360h1005v-219h-760v-350z" />
    <glyph glyph-name="Eacute" unicode="&#xc9;" horiz-adv-x="1257" 
d="M535 1483l235 346h242l-267 -346h-210zM399 791h613v-213h-613v-359h760v-219h-1005v1360h1005v-219h-760v-350z" />
    <glyph glyph-name="Ecircumflex" unicode="&#xca;" horiz-adv-x="1257" 
d="M502 1483h-209l256 346h211l256 -346h-209l-154 188zM399 791h613v-213h-613v-359h760v-219h-1005v1360h1005v-219h-760v-350z" />
    <glyph glyph-name="Edieresis" unicode="&#xcb;" horiz-adv-x="1257" 
d="M737 1642q0 56 36 94t94 38q59 0 95 -37t36 -95t-36 -93q-36 -36 -94 -36t-95 36q-36 36 -36 93zM313 1642q0 56 36 94t94 38q59 0 95 -37t36 -95t-36 -93q-36 -36 -94 -36t-95 36q-36 36 -36 93zM399 791h613v-213h-613v-359h760v-219h-1005v1360h1005v-219h-760v-350z
" />
    <glyph glyph-name="Igrave" unicode="&#xcc;" horiz-adv-x="552" 
d="M184 1483l-266 346h242l235 -346h-211zM154 0v1360h245v-1360h-245z" />
    <glyph glyph-name="Iacute" unicode="&#xcd;" horiz-adv-x="552" 
d="M156 1483l235 346h242l-266 -346h-211zM154 0v1360h245v-1360h-245z" />
    <glyph glyph-name="Icircumflex" unicode="&#xce;" horiz-adv-x="552" 
d="M123 1483h-209l256 346h211l256 -346h-209l-154 188zM154 0v1360h245v-1360h-245z" />
    <glyph glyph-name="Idieresis" unicode="&#xcf;" horiz-adv-x="552" 
d="M358 1642q0 56 36 94t94 38t94 -37t36 -95t-36 -93q-36 -36 -94 -36t-94 36t-36 93zM-66 1642q0 56 36 94t94 38t94 -37t37 -95q0 -58 -36 -93q-37 -36 -95 -36t-94 36t-36 93zM154 0v1360h245v-1360h-245z" />
    <glyph glyph-name="Eth" unicode="&#xd0;" horiz-adv-x="1515" 
d="M432 219h279q235 0 361 120t126 341t-126 341t-361 120h-279v-350h342v-207h-342v-365zM186 1360h537q344 0 533 -179q190 -179 190 -501t-190 -501t-533 -179h-537v584h-145v207h145v569z" />
    <glyph glyph-name="Ntilde" unicode="&#xd1;" horiz-adv-x="1515" 
d="M1087 1798v-178q-59 -113 -182 -113q-78 1 -164 51t-141 50q-109 0 -168 -119h-8v178q59 113 182 113q78 0 164 -50t141 -51q109 0 168 119h8zM1362 0h-297l-670 1092h-4v-1092h-237v1360h338l628 -1016h4v1016h238v-1360z" />
    <glyph glyph-name="Ograve" unicode="&#xd2;" horiz-adv-x="1560" 
d="M688 1483l-266 346h242l235 -346h-211zM780 1161q-205 0 -334 -134t-129 -347t129 -347t334 -134t334 134t129 347t-129 347t-334 134zM780 1380q313 0 512 -196t199 -504q0 -307 -199 -504q-199 -196 -512 -196t-512 196t-198 504q0 307 198 504q199 196 512 196z" />
    <glyph glyph-name="Oacute" unicode="&#xd3;" horiz-adv-x="1560" 
d="M659 1483l236 346h242l-267 -346h-211zM780 1161q-205 0 -334 -134t-129 -347t129 -347t334 -134t334 134t129 347t-129 347t-334 134zM780 1380q313 0 512 -196t199 -504q0 -307 -199 -504q-199 -196 -512 -196t-512 196t-198 504q0 307 198 504q199 196 512 196z" />
    <glyph glyph-name="Ocircumflex" unicode="&#xd4;" horiz-adv-x="1560" 
d="M627 1483h-209l256 346h211l256 -346h-209l-154 188zM780 1161q-205 0 -334 -134t-129 -347t129 -347t334 -134t334 134t129 347t-129 347t-334 134zM780 1380q313 0 512 -196t199 -504q0 -307 -199 -504q-199 -196 -512 -196t-512 196t-198 504q0 307 198 504
q199 196 512 196z" />
    <glyph glyph-name="Otilde" unicode="&#xd5;" horiz-adv-x="1560" 
d="M1112 1798v-178q-59 -113 -182 -113q-78 1 -164 51t-141 50q-109 0 -168 -119h-8v178q59 113 182 113q78 0 164 -50t141 -51q109 0 168 119h8zM780 1161q-205 0 -334 -134t-129 -347t129 -347t334 -134t334 134t129 347t-129 347t-334 134zM780 1380q313 0 512 -196
t199 -504q0 -307 -199 -504q-199 -196 -512 -196t-512 196t-198 504q0 307 198 504q199 196 512 196z" />
    <glyph glyph-name="Odieresis" unicode="&#xd6;" horiz-adv-x="1560" 
d="M862 1642q0 56 36 94t94 38t94 -37t36 -95t-36 -93q-36 -36 -94 -36t-94 36t-36 93zM438 1642q0 56 36 94t94 38t94 -37t36 -95t-36 -93q-36 -36 -94 -36t-94 36t-36 93zM780 1161q-205 0 -334 -134t-129 -347t129 -347t334 -134t334 134t129 347t-129 347t-334 134z
M780 1380q313 0 512 -196t199 -504q0 -307 -199 -504q-199 -196 -512 -196t-512 196t-198 504q0 307 198 504q199 196 512 196z" />
    <glyph glyph-name="multiply" unicode="&#xd7;" horiz-adv-x="1331" 
d="M1204 213l-137 -137l-401 401l-402 -401l-137 137l401 401l-401 402l137 137l402 -401l401 401l137 -137l-401 -402z" />
    <glyph glyph-name="Oslash" unicode="&#xd8;" horiz-adv-x="1560" 
d="M1243 680q0 166 -84 293l-612 -717q102 -57 233 -57q205 0 334 134t129 347zM317 680q0 -168 84 -293l613 717q-102 57 -234 57q-205 0 -334 -134t-129 -347zM1491 670q0 -297 -199 -494t-512 -196q-217 0 -385 98l-67 -78h-258l174 203q-174 190 -174 487t198 494
q199 197 512 196q217 0 385 -98l68 78h258l-174 -203q174 -190 174 -487z" />
    <glyph glyph-name="Ugrave" unicode="&#xd9;" horiz-adv-x="1417" 
d="M616 1483l-266 346h242l235 -346h-211zM1294 1360v-785q0 -596 -587 -595q-584 0 -584 595v785h246v-768q0 -193 87 -293t256 -100t257 100t88 293v768h237z" />
    <glyph glyph-name="Uacute" unicode="&#xda;" horiz-adv-x="1417" 
d="M588 1483l235 346h242l-266 -346h-211zM1294 1360v-785q0 -596 -587 -595q-584 0 -584 595v785h246v-768q0 -193 87 -293t256 -100t257 100t88 293v768h237z" />
    <glyph glyph-name="Ucircumflex" unicode="&#xdb;" horiz-adv-x="1417" 
d="M555 1483h-209l256 346h211l256 -346h-209l-153 188zM1294 1360v-785q0 -596 -587 -595q-584 0 -584 595v785h246v-768q0 -193 87 -293t256 -100t257 100t88 293v768h237z" />
    <glyph glyph-name="Udieresis" unicode="&#xdc;" horiz-adv-x="1417" 
d="M921 1774q58 0 94 -37t36 -95t-36 -93q-36 -36 -94 -36t-95 36q-36 36 -35 93q0 57 35 95q37 37 95 37zM497 1774q58 0 94 -37t36 -95t-36 -93q-36 -36 -94 -36t-95 36q-36 36 -35 93q0 57 35 95q37 37 95 37zM1294 1360v-785q0 -596 -587 -595q-584 0 -584 595v785h246
v-768q0 -193 87 -293t256 -100t257 100t88 293v768h237z" />
    <glyph glyph-name="Yacute" unicode="&#xdd;" horiz-adv-x="1404" 
d="M582 1483l235 346h242l-266 -346h-211zM582 0v575l-570 785h299l398 -572l397 572h287l-566 -780v-580h-245z" />
    <glyph glyph-name="Thorn" unicode="&#xde;" horiz-adv-x="1304" 
d="M399 487h336q262 -1 262 221t-262 222h-336v-443zM399 1149h346q248 0 374 -112q126 -113 126 -329t-126 -328t-374 -112h-346v-268h-245v1360h245v-211z" />
    <glyph glyph-name="germandbls" unicode="&#xdf;" horiz-adv-x="1134" 
d="M549 1454q176 0 279 -89q104 -89 104 -251t-131 -272q-70 -56 -70 -98t26 -64t93 -43q131 -41 189 -122q59 -81 59 -225t-96 -228q-96 -82 -274 -82q-179 0 -294 71v230h10q102 -107 268 -107t167 127q0 55 -33 89q-32 34 -134 68t-151 97t-49 170q0 135 125 246
q86 78 86 139q0 150 -172 150q-107 0 -157 -52t-50 -166v-1042h-217v1055q0 399 422 399z" />
    <glyph glyph-name="agrave" unicode="&#xe0;" horiz-adv-x="1208" 
d="M483 1100l-266 346h242l235 -346h-211zM580 174q129 0 210 86q80 86 80 221t-80 220q-81 85 -210 85t-210 -85t-81 -220t81 -221t210 -86zM1081 0h-180l-6 137h-4q-113 -157 -333 -157t-354 141t-134 358t134 359t353 143q219 0 332 -158h4l8 138h180v-961z" />
    <glyph glyph-name="aacute" unicode="&#xe1;" horiz-adv-x="1208" 
d="M455 1100l235 346h242l-266 -346h-211zM580 174q129 0 210 86q80 86 80 221t-80 220q-81 85 -210 85t-210 -85t-81 -220t81 -221t210 -86zM1081 0h-180l-6 137h-4q-113 -157 -333 -157t-354 141t-134 358t134 359t353 143q219 0 332 -158h4l8 138h180v-961z" />
    <glyph glyph-name="acircumflex" unicode="&#xe2;" horiz-adv-x="1208" 
d="M422 1100h-209l256 346h211l256 -346h-209l-154 188zM580 174q129 0 210 86q80 86 80 221t-80 220q-81 85 -210 85t-210 -85t-81 -220t81 -221t210 -86zM1081 0h-180l-6 137h-4q-113 -157 -333 -157t-354 141t-134 358t134 359t353 143q219 0 332 -158h4l8 138h180v-961z
" />
    <glyph glyph-name="atilde" unicode="&#xe3;" horiz-adv-x="1208" 
d="M907 1415v-178q-59 -113 -182 -113q-78 0 -164 50t-141 51q-109 0 -168 -119h-8v178q59 113 182 113q78 -1 164 -51t141 -50q109 0 168 119h8zM580 174q129 0 210 86q80 86 80 221t-80 220q-81 85 -210 85t-210 -85t-81 -220t81 -221t210 -86zM1081 0h-180l-6 137h-4
q-113 -157 -333 -157t-354 141t-134 358t134 359t353 143q219 0 332 -158h4l8 138h180v-961z" />
    <glyph glyph-name="adieresis" unicode="&#xe4;" horiz-adv-x="1208" 
d="M787 1391q59 0 95 -37t36 -94q0 -58 -36 -94t-94 -36t-95 36q-36 36 -36 94t36 94q36 37 94 37zM363 1391q59 0 95 -37t36 -94q0 -58 -36 -94t-94 -36t-95 36q-36 36 -36 94t36 94q36 37 94 37zM580 174q129 0 210 86q80 86 80 221t-80 220q-81 85 -210 85t-210 -85
t-81 -220t81 -221t210 -86zM1081 0h-180l-6 137h-4q-113 -157 -333 -157t-354 141t-134 358t134 359t353 143q219 0 332 -158h4l8 138h180v-961z" />
    <glyph glyph-name="aring" unicode="&#xe5;" horiz-adv-x="1208" 
d="M575 1362q-39 0 -63 -25t-25 -63q0 -38 25 -64q26 -24 64 -24t63 24t25 64t-25 64t-64 24zM575 1487q93 -1 153 -61t60 -152t-60 -152t-152 -61q-92 0 -153 60q-61 61 -61 153t60 152t153 61zM580 174q129 0 210 86q80 86 80 221t-80 220q-81 85 -210 85t-210 -85
t-81 -220t81 -221t210 -86zM1081 0h-180l-6 137h-4q-113 -157 -333 -157t-354 141t-134 358t134 359t353 143q219 0 332 -158h4l8 138h180v-961z" />
    <glyph glyph-name="ae" unicode="&#xe6;" horiz-adv-x="1929" 
d="M1087 575h574q-18 99 -94 157t-191 58q-116 0 -190 -57q-74 -58 -99 -158zM580 174q129 0 210 86q80 86 80 221t-80 220q-81 85 -210 85t-210 -85t-81 -220t81 -221t210 -86zM1862 414h-775q23 -115 115 -180t240 -64q221 0 350 125h10v-215q-131 -100 -338 -100
q-276 0 -397 153h-4l-4 -133h-164l-4 133h-4q-111 -153 -330 -153t-353 141t-134 358t134 359t353 143q219 0 330 -154h4l4 134h164l4 -134h4q109 154 333 154t343 -122t119 -339v-106z" />
    <glyph glyph-name="ccedilla" unicode="&#xe7;" horiz-adv-x="987" 
d="M626 786q-162 0 -250 -84q-87 -84 -87 -222t87 -222q88 -84 250 -84t261 127h10v-240q-100 -76 -281 -81l-47 -84v-5h4q193 0 193 -147q0 -154 -234 -154q-111 0 -178 31v131h8q76 -41 138 -41q107 0 104 53q0 51 -84 52q-37 0 -94 -15v27l88 156q-203 22 -324 158
q-120 136 -120 348t143 352t377 139q193 0 307 -84v-235h-10q-99 124 -261 124z" />
    <glyph glyph-name="egrave" unicode="&#xe8;" horiz-adv-x="1122" 
d="M481 1100l-266 346h242l235 -346h-211zM580 791q-108 1 -189 -59q-80 -60 -100 -157h563q-14 98 -90 157t-184 59zM1055 414h-764q20 -115 112 -180t236 -64q215 0 346 125h10v-215q-129 -100 -373 -100t-398 137t-154 360t140 363t361 141q221 0 353 -125t131 -336v-106
z" />
    <glyph glyph-name="eacute" unicode="&#xe9;" horiz-adv-x="1122" 
d="M453 1100l235 346h242l-266 -346h-211zM580 791q-108 1 -189 -59q-80 -60 -100 -157h563q-14 98 -90 157t-184 59zM1055 414h-764q20 -115 112 -180t236 -64q215 0 346 125h10v-215q-129 -100 -373 -100t-398 137t-154 360t140 363t361 141q221 0 353 -125t131 -336v-106
z" />
    <glyph glyph-name="ecircumflex" unicode="&#xea;" horiz-adv-x="1122" 
d="M420 1100h-209l256 346h211l256 -346h-209l-154 188zM580 791q-108 1 -189 -59q-80 -60 -100 -157h563q-14 98 -90 157t-184 59zM1055 414h-764q20 -115 112 -180t236 -64q215 0 346 125h10v-215q-129 -100 -373 -100t-398 137t-154 360t140 363t361 141q221 0 353 -125
t131 -336v-106z" />
    <glyph glyph-name="edieresis" unicode="&#xeb;" horiz-adv-x="1122" 
d="M785 1391q59 0 95 -37t36 -94t-36 -94q-36 -36 -94 -36t-95 36q-36 36 -36 94t36 94q36 37 94 37zM361 1391q59 0 95 -37t36 -94q0 -58 -36 -94t-94 -36t-95 36q-36 36 -36 94t36 94q36 37 94 37zM580 791q-108 1 -189 -59q-80 -60 -100 -157h563q-14 98 -90 157t-184 59
zM1055 414h-764q20 -115 112 -180t236 -64q215 0 346 125h10v-215q-129 -100 -373 -100t-398 137t-154 360t140 363t361 141q221 0 353 -125t131 -336v-106z" />
    <glyph glyph-name="igrave" unicode="&#xec;" horiz-adv-x="473" 
d="M143 1100l-266 346h242l235 -346h-211zM127 0v961h217v-961h-217z" />
    <glyph glyph-name="iacute" unicode="&#xed;" horiz-adv-x="473" 
d="M115 1100l235 346h242l-266 -346h-211zM127 0v961h217v-961h-217z" />
    <glyph glyph-name="icircumflex" unicode="&#xee;" horiz-adv-x="473" 
d="M82 1100h-209l256 346h211l256 -346h-209l-154 188zM127 0v961h217v-961h-217z" />
    <glyph glyph-name="idieresis" unicode="&#xef;" horiz-adv-x="473" 
d="M448 1391q58 0 94 -37t36 -94q0 -58 -36 -94t-94 -36t-95 36q-36 36 -36 94t36 94q37 37 95 37zM24 1391q58 0 94 -37t36 -94q0 -58 -36 -94t-94 -36t-95 36q-35 36 -35 94t35 94q37 37 95 37zM127 0v961h217v-961h-217z" />
    <glyph glyph-name="eth" unicode="&#xf0;" horiz-adv-x="1161" 
d="M580 174q129 0 211 86q81 86 81 221t-81 220q-82 85 -211 85t-210 -85t-81 -220t81 -221t210 -86zM1092 508q0 -240 -142 -384t-368 -144q-225 0 -369 140q-143 140 -143 358t134 360t341 143q141 0 235 -66h4q-47 115 -149 211l-324 -106v141l211 70q-129 109 -313 192
v11h344q74 -41 180 -131l213 69v-141l-104 -35q250 -279 250 -688z" />
    <glyph glyph-name="ntilde" unicode="&#xf1;" horiz-adv-x="1136" 
d="M901 1415v-178q-59 -113 -182 -113q-78 0 -164 50t-141 51q-109 0 -168 -119h-8v178q59 113 182 113q78 -1 164 -51t141 -50q109 0 168 119h8zM645 981q181 0 283 -111t102 -307v-563h-217v539q0 117 -59 183t-169 64q-109 0 -175 -74t-66 -208v-504h-217v961h182l8 -148
h5q94 168 323 168z" />
    <glyph glyph-name="ograve" unicode="&#xf2;" horiz-adv-x="1161" 
d="M487 1100l-266 346h242l235 -346h-211zM581 786q-130 0 -211 -85t-81 -220t81 -221t210 -86t211 85q81 85 81 221t-80 221q-81 85 -211 85zM580 981q225 0 368 -140q144 -141 144 -361t-144 -360t-367 -140q-224 0 -368 140q-143 140 -143 360t142 361q143 140 368 140z
" />
    <glyph glyph-name="oacute" unicode="&#xf3;" horiz-adv-x="1161" 
d="M459 1100l235 346h242l-266 -346h-211zM581 786q-130 0 -211 -85t-81 -220t81 -221t210 -86t211 85q81 85 81 221t-80 221q-81 85 -211 85zM580 981q225 0 368 -140q144 -141 144 -361t-144 -360t-367 -140q-224 0 -368 140q-143 140 -143 360t142 361q143 140 368 140z
" />
    <glyph glyph-name="ocircumflex" unicode="&#xf4;" horiz-adv-x="1161" 
d="M426 1100h-209l256 346h211l256 -346h-209l-153 188zM581 786q-130 0 -211 -85t-81 -220t81 -221t210 -86t211 85q81 85 81 221t-80 221q-81 85 -211 85zM580 981q225 0 368 -140q144 -141 144 -361t-144 -360t-367 -140q-224 0 -368 140q-143 140 -143 360t142 361
q143 140 368 140z" />
    <glyph glyph-name="otilde" unicode="&#xf5;" horiz-adv-x="1161" 
d="M911 1415v-178q-59 -113 -182 -113q-78 0 -164 50t-141 51q-109 0 -168 -119h-8v178q59 113 182 113q78 -1 164 -51t141 -50q109 0 168 119h8zM581 786q-130 0 -211 -85t-81 -220t81 -221t210 -86t211 85q81 85 81 221t-80 221q-81 85 -211 85zM580 981q225 0 368 -140
q144 -141 144 -361t-144 -360t-367 -140q-224 0 -368 140q-143 140 -143 360t142 361q143 140 368 140z" />
    <glyph glyph-name="odieresis" unicode="&#xf6;" horiz-adv-x="1161" 
d="M792 1391q58 0 94 -37t36 -94q0 -58 -36 -94t-94 -36t-95 36q-35 36 -35 94t35 94q37 37 95 37zM368 1391q58 0 94 -37t36 -94q0 -58 -36 -94t-94 -36t-95 36q-35 36 -35 94t35 94q37 37 95 37zM581 786q-130 0 -211 -85t-81 -220t81 -221t210 -86t211 85q81 85 81 221
t-80 221q-81 85 -211 85zM580 981q225 0 368 -140q144 -141 144 -361t-144 -360t-367 -140q-224 0 -368 140q-143 140 -143 360t142 361q143 140 368 140z" />
    <glyph glyph-name="divide" unicode="&#xf7;" horiz-adv-x="1331" 
d="M666 268q55 0 90 -36t35 -90t-35 -89t-90 -35t-91 35q-35 35 -35 89t35 90q36 36 91 36zM86 518v193h1159v-193h-1159zM666 1210q55 0 90 -34t35 -90q0 -54 -35 -90t-90 -36t-91 36q-35 36 -35 90t35 90q36 34 91 34z" />
    <glyph glyph-name="oslash" unicode="&#xf8;" horiz-adv-x="1159" 
d="M872 479q0 96 -41 168l-370 -450q55 -23 119 -23q129 0 211 85q81 85 81 220zM289 479q0 -94 41 -166l370 451q-55 23 -120 22q-129 0 -210 -85t-81 -222zM1092 471q0 -211 -144 -351t-368 -140q-141 0 -252 57l-31 -37h-227l118 143q-118 137 -118 347t142 350t368 141
q139 0 254 -57l30 37h228l-121 -146q121 -133 121 -344z" />
    <glyph glyph-name="ugrave" unicode="&#xf9;" horiz-adv-x="1136" 
d="M465 1100l-266 346h241l236 -346h-211zM1008 0h-183l-8 145h-4q-96 -166 -321 -165q-180 0 -283 110q-102 111 -103 307v564h218v-539q0 -116 58 -182t169 -66t175 75t65 208v504h217v-961z" />
    <glyph glyph-name="uacute" unicode="&#xfa;" horiz-adv-x="1136" 
d="M436 1100l236 346h241l-266 -346h-211zM1008 0h-183l-8 145h-4q-96 -166 -321 -165q-180 0 -283 110q-102 111 -103 307v564h218v-539q0 -116 58 -182t169 -66t175 75t65 208v504h217v-961z" />
    <glyph glyph-name="ucircumflex" unicode="&#xfb;" horiz-adv-x="1136" 
d="M403 1100h-208l256 346h211l256 -346h-209l-154 188zM1008 0h-183l-8 145h-4q-96 -166 -321 -165q-180 0 -283 110q-102 111 -103 307v564h218v-539q0 -116 58 -182t169 -66t175 75t65 208v504h217v-961z" />
    <glyph glyph-name="udieresis" unicode="&#xfc;" horiz-adv-x="1136" 
d="M769 1391q58 0 94 -37t36 -94q0 -58 -36 -94t-94 -36t-94 36t-36 94t36 94q36 37 94 37zM345 1391q58 0 94 -37t36 -94q0 -58 -36 -94t-94 -36t-94 36t-36 94t36 94q36 37 94 37zM1008 0h-183l-8 145h-4q-96 -166 -321 -165q-180 0 -283 110q-102 111 -103 307v564h218
v-539q0 -116 58 -182t169 -66t175 75t65 208v504h217v-961z" />
    <glyph glyph-name="yacute" unicode="&#xfd;" horiz-adv-x="1028" 
d="M393 1100l236 346h241l-266 -346h-211zM438 -389h-223l186 420l-387 930h234l268 -697h4l271 697h223z" />
    <glyph glyph-name="thorn" unicode="&#xfe;" horiz-adv-x="1210" 
d="M630 174q128 0 210 86t82 221t-82 220t-210 85t-210 -85t-82 -220t82 -221t210 -86zM667 981q206 0 340 -142q134 -141 134 -359t-134 -359t-340 -141t-319 122h-4v-491h-217v1823h217v-576h4q113 123 319 123z" />
    <glyph glyph-name="ydieresis" unicode="&#xff;" horiz-adv-x="1028" 
d="M726 1391q58 0 94 -37t36 -94q0 -58 -36 -94t-94 -36t-94 36t-36 94t36 94q36 37 94 37zM302 1391q58 0 94 -37t36 -94q0 -58 -36 -94t-94 -36t-94 36t-36 94t36 94q36 37 94 37zM438 -389h-223l186 420l-387 930h234l268 -697h4l271 697h223z" />
    <glyph glyph-name="Amacron" unicode="&#x100;" horiz-adv-x="1499" 
d="M418 1552v177h663v-177h-663zM748 1081h-5l-256 -610h517zM1202 0l-108 256h-697l-108 -256h-256l598 1360h235l600 -1360h-264z" />
    <glyph glyph-name="amacron" unicode="&#x101;" horiz-adv-x="1208" 
d="M244 1169v177h663v-177h-663zM580 174q129 0 210 86q80 86 80 221t-80 220q-81 85 -210 85t-210 -85t-81 -220t81 -221t210 -86zM1081 0h-180l-6 137h-4q-113 -157 -333 -157t-354 141t-134 358t134 359t353 143q219 0 332 -158h4l8 138h180v-961z" />
    <glyph glyph-name="Abreve" unicode="&#x102;" horiz-adv-x="1499" 
d="M750 1493q-158 0 -247 83t-102 239h160q29 -147 189 -147t188 147h160q-12 -156 -102 -239q-88 -83 -246 -83zM748 1081h-5l-256 -610h517zM1202 0l-108 256h-697l-108 -256h-256l598 1360h235l600 -1360h-264z" />
    <glyph glyph-name="abreve" unicode="&#x103;" horiz-adv-x="1208" 
d="M575 1110q-159 0 -247 83t-101 239h160q29 -147 189 -147t188 147h160q-12 -156 -102 -239t-247 -83zM580 174q129 0 210 86q80 86 80 221t-80 220q-81 85 -210 85t-210 -85t-81 -220t81 -221t210 -86zM1081 0h-180l-6 137h-4q-113 -157 -333 -157t-354 141t-134 358
t134 359t353 143q219 0 332 -158h4l8 138h180v-961z" />
    <glyph glyph-name="Aogonek" unicode="&#x104;" horiz-adv-x="1499" 
d="M1004 471l-256 610h-5l-256 -610h517zM1323 -264q74 0 135 55h8v-164q-74 -37 -175 -37t-158 48t-58 135q0 131 129 223l-110 260h-697l-108 -256h-256l598 1360h235l600 -1360h-61q-168 -70 -168 -184q1 -36 25 -58t61 -22z" />
    <glyph glyph-name="aogonek" unicode="&#x105;" horiz-adv-x="1208" 
d="M580 174q129 0 210 86q80 86 80 221t-80 220q-81 85 -210 85t-210 -85t-81 -220t81 -221t210 -86zM1081 0h-61q-168 -70 -168 -184q0 -37 25 -59t61 -21q74 0 135 55h8v-164q-74 -37 -175 -37t-158 48t-58 135q0 168 209 270l-4 94h-4q-113 -157 -333 -157t-354 141
t-134 358t134 359t353 143q219 0 332 -158h4l8 138h180v-961z" />
    <glyph glyph-name="Cacute" unicode="&#x106;" horiz-adv-x="1320" 
d="M618 1483l236 346h242l-267 -346h-211zM793 1380q270 0 430 -120v-269h-13q-141 170 -407 170q-217 0 -351 -133t-134 -348t134 -348t351 -133q266 0 407 170h13v-269q-168 -121 -430 -120q-322 0 -523 196t-200 504q0 309 200 505q201 195 523 195z" />
    <glyph glyph-name="cacute" unicode="&#x107;" horiz-adv-x="987" 
d="M434 1100l236 346h241l-266 -346h-211zM590 981q193 0 307 -84v-235h-10q-98 125 -277 124q-147 0 -234 -84t-87 -222t87 -222q88 -84 250 -84t261 127h10v-240q-106 -81 -323 -81t-361 139q-143 139 -143 361t143 362q144 139 377 139z" />
    <glyph glyph-name="Ccircumflex" unicode="&#x108;" horiz-adv-x="1320" 
d="M586 1483h-209l256 346h211l256 -346h-209l-154 188zM793 1380q270 0 430 -120v-269h-13q-141 170 -407 170q-217 0 -351 -133t-134 -348t134 -348t351 -133q266 0 407 170h13v-269q-168 -121 -430 -120q-322 0 -523 196t-200 504q0 309 200 505q201 195 523 195z" />
    <glyph glyph-name="ccircumflex" unicode="&#x109;" horiz-adv-x="987" 
d="M401 1100h-208l256 346h210l256 -346h-208l-154 188zM590 981q193 0 307 -84v-235h-10q-98 125 -277 124q-147 0 -234 -84t-87 -222t87 -222q88 -84 250 -84t261 127h10v-240q-106 -81 -323 -81t-361 139q-143 139 -143 361t143 362q144 139 377 139z" />
    <glyph glyph-name="Cdotaccent" unicode="&#x10a;" horiz-adv-x="1320" 
d="M739 1784q63 0 101 -39t39 -103q0 -64 -38 -101q-37 -38 -101 -38t-102 38t-38 101q0 62 38 102t101 40zM793 1380q270 0 430 -120v-269h-13q-141 170 -407 170q-217 0 -351 -133t-134 -348t134 -348t351 -133q266 0 407 170h13v-269q-168 -121 -430 -120
q-322 0 -523 196t-200 504q0 309 200 505q201 195 523 195z" />
    <glyph glyph-name="cdotaccent" unicode="&#x10b;" horiz-adv-x="987" 
d="M555 1401q63 0 101 -39t38 -102q0 -64 -38 -102t-101 -38t-101 38t-38 102t38 102q38 39 101 39zM590 981q193 0 307 -84v-235h-10q-98 125 -277 124q-147 0 -234 -84t-87 -222t87 -222q88 -84 250 -84t261 127h10v-240q-106 -81 -323 -81t-361 139q-143 139 -143 361
t143 362q144 139 377 139z" />
    <glyph glyph-name="Ccaron" unicode="&#x10c;" horiz-adv-x="1320" 
d="M844 1483h-211l-256 346h209l153 -193l152 193h209zM793 1380q270 0 430 -120v-269h-13q-141 170 -407 170q-217 0 -351 -133t-134 -348t134 -348t351 -133q266 0 407 170h13v-269q-168 -121 -430 -120q-322 0 -523 196t-200 504q0 309 200 505q201 195 523 195z" />
    <glyph glyph-name="ccaron" unicode="&#x10d;" horiz-adv-x="987" 
d="M659 1100h-210l-256 346h208l154 -193l152 193h208zM590 981q193 0 307 -84v-235h-10q-98 125 -277 124q-147 0 -234 -84t-87 -222t87 -222q88 -84 250 -84t261 127h10v-240q-106 -81 -323 -81t-361 139q-143 139 -143 361t143 362q144 139 377 139z" />
    <glyph glyph-name="Dcaron" unicode="&#x10e;" horiz-adv-x="1482" 
d="M805 1483h-211l-256 346h209l153 -193l152 193h209zM399 219h279q236 0 362 120t125 341q0 221 -126 341t-361 120h-279v-922zM154 1360h536q344 0 534 -179t189 -501q0 -322 -189 -501t-534 -179h-536v1360z" />
    <glyph glyph-name="dcaron" unicode="&#x10f;" horiz-adv-x="1208" 
d="M1153 1032l64 402h219l-115 -402h-168zM580 174q129 0 210 86q80 86 80 221t-80 220q-81 85 -210 85t-210 -85t-81 -220t81 -221t210 -86zM1081 0h-180l-6 137h-4q-113 -157 -333 -157t-354 141t-134 358t134 359t338 143q204 0 318 -121h4v574h217v-1434z" />
    <glyph glyph-name="Dcroat" unicode="&#x110;" horiz-adv-x="1515" 
d="M432 219h279q235 0 361 120t126 341t-126 341t-361 120h-279v-350h342v-207h-342v-365zM186 1360h537q344 0 533 -179q190 -179 190 -501t-190 -501t-533 -179h-537v584h-145v207h145v569z" />
    <glyph glyph-name="dcroat" unicode="&#x111;" horiz-adv-x="1232" 
d="M580 174q129 0 210 86q80 86 80 221t-80 220q-81 85 -210 85t-210 -85t-81 -220t81 -221t210 -86zM1081 0h-180l-6 137h-4q-113 -157 -333 -157t-354 141t-134 358t134 359t338 143q204 0 318 -121h4v221h-344v162h344v191h217v-191h152v-162h-152v-1081z" />
    <glyph glyph-name="Emacron" unicode="&#x112;" horiz-adv-x="1257" 
d="M324 1552v177h663v-177h-663zM399 791h613v-213h-613v-359h760v-219h-1005v1360h1005v-219h-760v-350z" />
    <glyph glyph-name="emacron" unicode="&#x113;" horiz-adv-x="1122" 
d="M242 1169v177h663v-177h-663zM580 791q-108 1 -189 -59q-80 -60 -100 -157h563q-14 98 -90 157t-184 59zM1055 414h-764q20 -115 112 -180t236 -64q215 0 346 125h10v-215q-129 -100 -373 -100t-398 137t-154 360t140 363t361 141q221 0 353 -125t131 -336v-106z" />
    <glyph glyph-name="Ebreve" unicode="&#x114;" horiz-adv-x="1257" 
d="M655 1493q-159 0 -247 83t-101 239h160q29 -147 189 -147t188 147h160q-12 -156 -102 -239t-247 -83zM399 791h613v-213h-613v-359h760v-219h-1005v1360h1005v-219h-760v-350z" />
    <glyph glyph-name="ebreve" unicode="&#x115;" horiz-adv-x="1122" 
d="M573 1110q-159 0 -247 83t-101 239h160q29 -147 189 -147t188 147h160q-12 -156 -102 -239t-247 -83zM580 791q-108 1 -189 -59q-80 -60 -100 -157h563q-14 98 -90 157t-184 59zM1055 414h-764q20 -115 112 -180t236 -64q215 0 346 125h10v-215q-129 -100 -373 -100
t-398 137t-154 360t140 363t361 141q221 0 353 -125t131 -336v-106z" />
    <glyph glyph-name="Edotaccent" unicode="&#x116;" horiz-adv-x="1257" 
d="M655 1784q63 0 101 -39t39 -103q0 -64 -38 -101q-37 -38 -101 -38t-102 38t-38 101q0 62 38 102t101 40zM399 791h613v-213h-613v-359h760v-219h-1005v1360h1005v-219h-760v-350z" />
    <glyph glyph-name="edotaccent" unicode="&#x117;" horiz-adv-x="1122" 
d="M573 1401q63 0 101 -39t39 -102q0 -64 -38 -102q-37 -38 -101 -38t-102 38t-38 102t38 102q38 39 101 39zM580 791q-108 1 -189 -59q-80 -60 -100 -157h563q-14 98 -90 157t-184 59zM1055 414h-764q20 -115 112 -180t236 -64q215 0 346 125h10v-215q-129 -100 -373 -100
t-398 137t-154 360t140 363t361 141q221 0 353 -125t131 -336v-106z" />
    <glyph glyph-name="Eogonek" unicode="&#x118;" horiz-adv-x="1257" 
d="M399 791h613v-213h-613v-359h760v-219h-61q-168 -70 -168 -184q0 -37 24 -59t62 -21q74 0 135 55h8v-164q-74 -37 -175 -37q-100 0 -158 48t-58 135q0 131 129 223v4h-743v1360h1005v-219h-760v-350z" />
    <glyph glyph-name="eogonek" unicode="&#x119;" horiz-adv-x="1122" 
d="M580 791q-108 1 -189 -59q-80 -60 -100 -157h563q-14 98 -90 157t-184 59zM1055 520v-106h-764q20 -115 112 -180t236 -64q215 0 346 125h10v-215q-39 -31 -116 -65t-119 -86t-43 -99t25 -71t65 -23q74 0 135 55h8v-164q-74 -37 -175 -37t-159 50t-59 137q0 119 94 198v5
h-20q-252 0 -407 137q-154 137 -154 360t140 363t361 141q221 0 353 -125t131 -336z" />
    <glyph glyph-name="Ecaron" unicode="&#x11a;" horiz-adv-x="1257" 
d="M760 1483h-211l-256 346h209l153 -193l152 193h209zM399 791h613v-213h-613v-359h760v-219h-1005v1360h1005v-219h-760v-350z" />
    <glyph glyph-name="ecaron" unicode="&#x11b;" horiz-adv-x="1122" 
d="M678 1100h-211l-256 346h209l153 -193l152 193h209zM580 791q-108 1 -189 -59q-80 -60 -100 -157h563q-14 98 -90 157t-184 59zM1055 414h-764q20 -115 112 -180t236 -64q215 0 346 125h10v-215q-129 -100 -373 -100t-398 137t-154 360t140 363t361 141q221 0 353 -125
t131 -336v-106z" />
    <glyph glyph-name="Gcircumflex" unicode="&#x11c;" horiz-adv-x="1437" 
d="M610 1483h-209l256 346h211l256 -346h-209l-153 188zM825 1161q-231 0 -369 -131t-138 -350t138 -350t369 -131q129 0 244 34v277h-350v213h588v-623q-186 -120 -508 -120t-526 190q-203 190 -203 510t203 510t525 190t509 -120v-269h-13q-178 170 -469 170z" />
    <glyph glyph-name="gcircumflex" unicode="&#x11d;" horiz-adv-x="1208" 
d="M422 1100h-209l256 346h211l256 -346h-209l-154 188zM580 186q129 0 210 82t80 217q0 135 -80 218q-81 83 -210 83t-210 -83t-81 -218t81 -217t210 -82zM1081 961v-883q0 -228 -139 -358t-390 -130t-390 117v225h10q121 -147 358 -147q162 0 248 80t86 225v23h-4
q-114 -121 -318 -121t-338 138t-134 355t134 357t354 139q220 0 333 -158h4l6 138h180z" />
    <glyph glyph-name="Gbreve" unicode="&#x11e;" horiz-adv-x="1437" 
d="M764 1493q-158 0 -247 83t-101 239h159q29 -147 189 -147t188 147h160q-12 -156 -101 -239t-247 -83zM825 1161q-231 0 -369 -131t-138 -350t138 -350t369 -131q129 0 244 34v277h-350v213h588v-623q-186 -120 -508 -120t-526 190q-203 190 -203 510t203 510t525 190
t509 -120v-269h-13q-178 170 -469 170z" />
    <glyph glyph-name="gbreve" unicode="&#x11f;" horiz-adv-x="1208" 
d="M575 1110q-159 0 -247 83t-101 239h160q29 -147 189 -147t188 147h160q-12 -156 -102 -239t-247 -83zM580 186q129 0 210 82t80 217q0 135 -80 218q-81 83 -210 83t-210 -83t-81 -218t81 -217t210 -82zM1081 961v-883q0 -228 -139 -358t-390 -130t-390 117v225h10
q121 -147 358 -147q162 0 248 80t86 225v23h-4q-114 -121 -318 -121t-338 138t-134 355t134 357t354 139q220 0 333 -158h4l6 138h180z" />
    <glyph glyph-name="Gdotaccent" unicode="&#x120;" horiz-adv-x="1437" 
d="M764 1784q63 0 101 -39t38 -103t-38 -101q-38 -38 -101 -38t-101 38t-38 101q0 62 38 102t101 40zM825 1161q-231 0 -369 -131t-138 -350t138 -350t369 -131q129 0 244 34v277h-350v213h588v-623q-186 -120 -508 -120t-526 190q-203 190 -203 510t203 510t525 190
t509 -120v-269h-13q-178 170 -469 170z" />
    <glyph glyph-name="gdotaccent" unicode="&#x121;" horiz-adv-x="1208" 
d="M575 1401q63 0 101 -39t39 -102q0 -64 -38 -102q-37 -38 -101 -38t-102 38t-38 102t38 102q38 39 101 39zM580 186q129 0 210 82t80 217q0 135 -80 218q-81 83 -210 83t-210 -83t-81 -218t81 -217t210 -82zM1081 961v-883q0 -228 -139 -358t-390 -130t-390 117v225h10
q121 -147 358 -147q162 0 248 80t86 225v23h-4q-114 -121 -318 -121t-338 138t-134 355t134 357t354 139q220 0 333 -158h4l6 138h180z" />
    <glyph glyph-name="uni0122" unicode="&#x122;" horiz-adv-x="1437" 
d="M449 -430l204 303h230l-236 -303h-198zM825 1161q-231 0 -369 -131t-138 -350t138 -350t369 -131q129 0 244 34v277h-350v213h588v-623q-186 -120 -508 -120t-526 190q-203 190 -203 510t203 510t525 190t509 -120v-269h-13q-178 170 -469 170z" />
    <glyph glyph-name="uni0123" unicode="&#x123;" horiz-adv-x="1210" 
d="M580 186q129 0 210 82t80 217q0 135 -80 218q-81 83 -210 83t-210 -83t-81 -218t81 -217t210 -82zM1081 961v-883q0 -228 -139 -358t-390 -130t-390 117v225h10q121 -147 358 -147q162 0 248 80t86 225v23h-4q-114 -121 -318 -121t-338 138t-134 355t134 357t354 139
q220 0 333 -158h4l6 138h180zM909 1446l-235 -346h-230l267 346h198z" />
    <glyph glyph-name="Hcircumflex" unicode="&#x124;" horiz-adv-x="1505" 
d="M598 1483h-209l256 346h211l256 -346h-209l-153 188zM1352 0h-246v578h-707v-578h-245v1360h245v-563h707v563h246v-1360z" />
    <glyph glyph-name="hcircumflex" unicode="&#x125;" horiz-adv-x="1136" 
d="M82 1546h-209l256 346h211l256 -346h-209l-154 189zM638 981q188 0 290 -111t102 -307v-563h-217v539q0 117 -59 183t-169 64q-109 0 -175 -74t-66 -208v-504h-217v1434h217v-578h4q102 125 290 125z" />
    <glyph glyph-name="Hbar" unicode="&#x126;" horiz-adv-x="1511" 
d="M403 797h707v166h-707v-166zM1356 0h-246v578h-707v-578h-245v963h-111v182h111v215h245v-215h707v215h246v-215h108v-182h-108v-963z" />
    <glyph glyph-name="hbar" unicode="&#x127;" horiz-adv-x="1148" 
d="M650 981q188 0 290 -111t102 -307v-563h-217v539q0 117 -59 183t-169 64q-109 0 -175 -74t-66 -208v-504h-217v1081h-137v162h137v191h217v-191h322v-162h-322v-225h4q102 125 290 125z" />
    <glyph glyph-name="Itilde" unicode="&#x128;" horiz-adv-x="552" 
d="M608 1798v-178q-59 -113 -182 -113q-78 1 -164 51t-141 50q-109 0 -168 -119h-8v178q59 113 182 113q78 0 164 -50t141 -51q109 0 168 119h8zM154 0v1360h245v-1360h-245z" />
    <glyph glyph-name="itilde" unicode="&#x129;" horiz-adv-x="473" 
d="M567 1415v-178q-59 -113 -182 -113q-78 0 -164 50t-141 51q-109 0 -168 -119h-8v178q59 113 182 113q78 -1 164 -51t141 -50q109 0 168 119h8zM127 0v961h217v-961h-217z" />
    <glyph glyph-name="Imacron" unicode="&#x12a;" horiz-adv-x="552" 
d="M-55 1552v177h663v-177h-663zM154 0v1360h245v-1360h-245z" />
    <glyph glyph-name="imacron" unicode="&#x12b;" horiz-adv-x="473" 
d="M-96 1169v177h663v-177h-663zM127 0v961h217v-961h-217z" />
    <glyph glyph-name="Ibreve" unicode="&#x12c;" horiz-adv-x="552" 
d="M276 1493q-158 0 -246 83t-102 239h160q28 -147 188 -147t189 147h160q-11 -156 -101 -239t-248 -83zM154 0v1360h245v-1360h-245z" />
    <glyph glyph-name="ibreve" unicode="&#x12d;" horiz-adv-x="473" 
d="M236 1110q-158 0 -247 83t-102 239h160q29 -147 189 -147t188 147h160q-12 -156 -102 -239q-88 -83 -246 -83zM127 0v961h217v-961h-217z" />
    <glyph glyph-name="Iogonek" unicode="&#x12e;" horiz-adv-x="552" 
d="M426 -209v-164q-74 -37 -175 -37t-159 48t-57 135q0 129 119 219v1368h245v-1360h-53q-150 -82 -149 -184q1 -37 25 -59t61 -21q74 0 135 55h8z" />
    <glyph glyph-name="iogonek" unicode="&#x12f;" horiz-adv-x="473" 
d="M237 1399q62 0 100 -39t38 -100q0 -62 -38 -100t-100 -38t-101 38q-38 38 -38 100t38 100q39 39 101 39zM227 -264q74 0 135 55h9v-164q-74 -37 -175 -37q-100 0 -158 48t-58 135q0 145 147 239v949h217v-961h-55q-150 -82 -150 -184q1 -36 25 -58t63 -22z" />
    <glyph glyph-name="Idotaccent" unicode="&#x130;" horiz-adv-x="552" 
d="M276 1784q64 0 102 -39t38 -103t-38 -101q-38 -38 -102 -38t-101 38q-38 38 -38 101q0 62 38 102t101 40zM154 0v1360h245v-1360h-245z" />
    <glyph glyph-name="dotlessi" unicode="&#x131;" horiz-adv-x="473" 
d="M127 0v961h217v-961h-217z" />
    <glyph glyph-name="IJ" unicode="&#x132;" horiz-adv-x="1597" 
d="M1475 1360v-887q0 -244 -125 -369q-126 -124 -360 -124t-384 118v260h12q54 -74 146 -116t192 -43q272 0 273 299v862h246zM154 0v1360h245v-1360h-245z" />
    <glyph glyph-name="ij" unicode="&#x133;" horiz-adv-x="946" 
d="M817 961v-1076q0 -295 -264 -295q-70 0 -129 21v199h10q33 -25 79 -25t67 28q20 28 20 89v1059h217zM710 1399q62 0 100 -39t38 -100q0 -62 -38 -100t-100 -38t-101 38q-38 38 -38 100t38 100q39 39 101 39zM127 961h217v-961h-217v961zM237 1399q62 0 100 -39t38 -100
q0 -62 -38 -100t-100 -38t-101 38q-38 38 -38 100t38 100q39 39 101 39z" />
    <glyph glyph-name="Jcircumflex" unicode="&#x134;" horiz-adv-x="1044" 
d="M645 1483h-209l256 346h211l256 -346h-209l-153 188zM922 1360v-887q0 -244 -125 -369q-125 -124 -359 -124t-385 118v260h13q55 -74 146 -116t191 -43q272 0 273 299v862h246z" />
    <glyph glyph-name="jcircumflex" unicode="&#x135;" horiz-adv-x="473" 
d="M82 1100h-209l256 346h211l256 -346h-209l-154 188zM344 961v-1076q0 -295 -264 -295q-70 0 -129 21v199h10q35 -25 80 -25t65 28t21 89v1059h217z" />
    <glyph glyph-name="uni0136" unicode="&#x136;" horiz-adv-x="1341" 
d="M365 -430l204 303h230l-236 -303h-198zM399 0h-245v1360h245v-596l570 596h319l-663 -670l684 -690h-334l-576 602v-602z" />
    <glyph glyph-name="uni0137" unicode="&#x137;" horiz-adv-x="1050" 
d="M221 -430l205 303h229l-235 -303h-199zM344 0h-217v1434h217v-885l389 412h273l-457 -469l477 -492h-287l-395 420v-420z" />
    <glyph glyph-name="kgreenlandic" unicode="&#x138;" horiz-adv-x="1050" 
d="M344 0h-217v961h217v-412l389 412h273l-457 -469l477 -492h-287l-395 422v-422z" />
    <glyph glyph-name="Lacute" unicode="&#x139;" horiz-adv-x="1183" 
d="M156 1483l235 346h242l-266 -346h-211zM1130 0h-976v1360h245v-1141h731v-219z" />
    <glyph glyph-name="lacute" unicode="&#x13a;" horiz-adv-x="471" 
d="M115 1546l235 346h242l-266 -346h-211zM127 0v1434h217v-1434h-217z" />
    <glyph glyph-name="uni013B" unicode="&#x13b;" horiz-adv-x="1183" 
d="M326 -430l204 303h230l-236 -303h-198zM1130 0h-976v1360h245v-1141h731v-219z" />
    <glyph glyph-name="uni013C" unicode="&#x13c;" horiz-adv-x="471" 
d="M-80 -430l205 303h229l-235 -303h-199zM127 0v1434h217v-1434h-217z" />
    <glyph glyph-name="Lcaron" unicode="&#x13d;" horiz-adv-x="1183" 
d="M545 1032l63 402h219l-114 -402h-168zM1130 0h-976v1360h245v-1141h731v-219z" />
    <glyph glyph-name="lcaron" unicode="&#x13e;" horiz-adv-x="602" 
d="M408 1032l63 402h219l-115 -402h-167zM127 0v1434h217v-1434h-217z" />
    <glyph glyph-name="Ldot" unicode="&#x13f;" horiz-adv-x="1183" 
d="M862 821q64 0 102 -39t38 -102t-38 -101t-102 -38t-101 38q-38 38 -38 101t38 102t101 39zM1130 0h-976v1360h245v-1141h731v-219z" />
    <glyph glyph-name="ldot" unicode="&#x140;" horiz-adv-x="620" 
d="M547 821q63 0 101 -39t38 -102t-38 -101t-101 -38t-102 38q-38 38 -37 101q0 63 37 102q39 39 102 39zM127 0v1434h217v-1434h-217z" />
    <glyph glyph-name="Lslash" unicode="&#x141;" horiz-adv-x="1214" 
d="M186 0v406l-147 -87v228l147 86v727h246v-586l502 291v-227l-502 -291v-328h731v-219h-977z" />
    <glyph glyph-name="lslash" unicode="&#x142;" horiz-adv-x="528" 
d="M358 0h-217v504l-137 -86v217l137 86v713h217v-578l166 102v-215l-166 -104v-639z" />
    <glyph glyph-name="Nacute" unicode="&#x143;" horiz-adv-x="1515" 
d="M635 1483l235 346h242l-266 -346h-211zM1362 0h-297l-670 1092h-4v-1092h-237v1360h338l628 -1016h4v1016h238v-1360z" />
    <glyph glyph-name="nacute" unicode="&#x144;" horiz-adv-x="1136" 
d="M449 1100l235 346h242l-267 -346h-210zM645 981q181 0 283 -111t102 -307v-563h-217v539q0 117 -59 183t-169 64q-109 0 -175 -74t-66 -208v-504h-217v961h182l8 -148h5q94 168 323 168z" />
    <glyph glyph-name="uni0145" unicode="&#x145;" horiz-adv-x="1515" 
d="M440 -430l205 303h229l-235 -303h-199zM1362 0h-297l-670 1092h-4v-1092h-237v1360h338l628 -1016h4v1016h238v-1360z" />
    <glyph glyph-name="uni0146" unicode="&#x146;" horiz-adv-x="1136" 
d="M262 -430l205 303h229l-235 -303h-199zM645 981q181 0 283 -111t102 -307v-563h-217v539q0 117 -59 183t-169 64q-109 0 -175 -74t-66 -208v-504h-217v961h182l8 -148h5q94 168 323 168z" />
    <glyph glyph-name="Ncaron" unicode="&#x147;" horiz-adv-x="1515" 
d="M860 1483h-211l-256 346h209l154 -193l151 193h209zM1362 0h-297l-670 1092h-4v-1092h-237v1360h338l628 -1016h4v1016h238v-1360z" />
    <glyph glyph-name="ncaron" unicode="&#x148;" horiz-adv-x="1136" 
d="M674 1100h-211l-256 346h209l153 -193l152 193h209zM645 981q181 0 283 -111t102 -307v-563h-217v539q0 117 -59 183t-169 64q-109 0 -175 -74t-66 -208v-504h-217v961h182l8 -148h5q94 168 323 168z" />
    <glyph glyph-name="napostrophe" unicode="&#x149;" horiz-adv-x="1136" 
d="M645 981q181 0 283 -111t102 -307v-563h-217v539q0 117 -59 183t-169 64q-109 0 -175 -74t-66 -208v-504h-217v961h182l8 -148h5q94 168 323 168zM238 1434q0 -227 -74 -353h-170q45 121 45 271q0 29 -4 82h203z" />
    <glyph glyph-name="Eng" unicode="&#x14a;" horiz-adv-x="1515" 
d="M1362 1360v-1475q0 -145 -73 -220t-204 -75q-82 0 -137 21v223h8q37 -25 78 -24q90 0 90 92v118l-729 1094h-4v-1114h-237v1360h346l620 -928h4v928h238z" />
    <glyph glyph-name="eng" unicode="&#x14b;" horiz-adv-x="1136" 
d="M645 981q181 0 283 -111t102 -307v-678q0 -295 -266 -295q-72 0 -127 21v199h10q37 -25 76 -25q90 0 90 117v637q0 117 -59 183t-169 64q-109 0 -175 -74t-66 -208v-504h-217v961h182l8 -148h5q94 168 323 168z" />
    <glyph glyph-name="Omacron" unicode="&#x14c;" horiz-adv-x="1560" 
d="M449 1552v177h663v-177h-663zM780 1161q-205 0 -334 -134t-129 -347t129 -347t334 -134t334 134t129 347t-129 347t-334 134zM780 1380q313 0 512 -196t199 -504q0 -307 -199 -504q-199 -196 -512 -196t-512 196t-198 504q0 307 198 504q199 196 512 196z" />
    <glyph glyph-name="omacron" unicode="&#x14d;" horiz-adv-x="1161" 
d="M248 1169v177h663v-177h-663zM581 786q-130 0 -211 -85t-81 -220t81 -221t210 -86t211 85q81 85 81 221t-80 221q-81 85 -211 85zM580 981q225 0 368 -140q144 -141 144 -361t-144 -360t-367 -140q-224 0 -368 140q-143 140 -143 360t142 361q143 140 368 140z" />
    <glyph glyph-name="Obreve" unicode="&#x14e;" horiz-adv-x="1560" 
d="M780 1493q-158 0 -246 83t-102 239h160q28 -147 188 -147t189 147h159q-12 -156 -101 -239t-247 -83zM780 1161q-205 0 -334 -134t-129 -347t129 -347t334 -134t334 134t129 347t-129 347t-334 134zM780 1380q313 0 512 -196t199 -504q0 -307 -199 -504
q-199 -196 -512 -196t-512 196t-198 504q0 307 198 504q199 196 512 196z" />
    <glyph glyph-name="obreve" unicode="&#x14f;" horiz-adv-x="1161" 
d="M580 1110q-158 0 -247 83t-102 239h160q29 -147 189 -147t188 147h160q-12 -156 -102 -239q-88 -83 -246 -83zM581 786q-130 0 -211 -85t-81 -220t81 -221t210 -86t211 85q81 85 81 221t-80 221q-81 85 -211 85zM580 981q225 0 368 -140q144 -141 144 -361t-144 -360
t-367 -140q-224 0 -368 140q-143 140 -143 360t142 361q143 140 368 140z" />
    <glyph glyph-name="Ohungarumlaut" unicode="&#x150;" horiz-adv-x="1560" 
d="M852 1483l235 346h230l-266 -346h-199zM463 1483l235 346h230l-266 -346h-199zM780 1161q-205 0 -334 -134t-129 -347t129 -347t334 -134t334 134t129 347t-129 347t-334 134zM780 1380q313 0 512 -196t199 -504q0 -307 -199 -504q-199 -196 -512 -196t-512 196t-198 504
q0 307 198 504q199 196 512 196z" />
    <glyph glyph-name="ohungarumlaut" unicode="&#x151;" horiz-adv-x="1161" 
d="M651 1100l236 346h229l-266 -346h-199zM262 1100l236 346h229l-266 -346h-199zM581 786q-130 0 -211 -85t-81 -220t81 -221t210 -86t211 85q81 85 81 221t-80 221q-81 85 -211 85zM580 981q225 0 368 -140q144 -141 144 -361t-144 -360t-367 -140q-224 0 -368 140
q-143 140 -143 360t142 361q143 140 368 140z" />
    <glyph glyph-name="OE" unicode="&#x152;" horiz-adv-x="2187" 
d="M1083 1141h-278q-236 0 -362 -120t-126 -341t126 -341t362 -120h278v922zM1942 791v-213h-613v-359h760v-219h-1298q-342 0 -532 179q-189 179 -189 501t189 501t532 179h1298v-219h-760v-350h613z" />
    <glyph glyph-name="oe" unicode="&#x153;" horiz-adv-x="1925" 
d="M1382 791q-108 1 -188 -59t-100 -157h563q-14 98 -90 157q-77 59 -185 59zM1798 295v-215q-131 -100 -352 -100q-334 0 -463 221h-4q-59 -105 -167 -163t-251 -58q-217 0 -354 140t-137 360t137 360t354 141q291 0 418 -221h4q59 104 167 162t247 59q217 0 339 -122
t122 -339v-106h-764q20 -115 112 -180t236 -64q215 0 346 125h10zM580 174q129 0 211 85q81 85 81 221t-80 221q-81 85 -211 85t-211 -85t-81 -220t81 -221t210 -86z" />
    <glyph glyph-name="Racute" unicode="&#x154;" horiz-adv-x="1359" 
d="M541 1483l235 346h242l-266 -346h-211zM399 717h349q260 0 260 212t-260 212h-349v-424zM399 0h-245v1360h602q500 0 499 -432q0 -330 -301 -408l342 -520h-290l-304 498h-303v-498z" />
    <glyph glyph-name="racute" unicode="&#x155;" horiz-adv-x="784" 
d="M285 1100l235 346h242l-266 -346h-211zM618 981q88 0 144 -37v-215h-10q-63 45 -152 45q-256 0 -256 -348v-426h-217v961h182l8 -148h5q83 168 296 168z" />
    <glyph glyph-name="uni0156" unicode="&#x156;" horiz-adv-x="1359" 
d="M381 -430l205 303h229l-235 -303h-199zM399 717h349q260 0 260 212t-260 212h-349v-424zM399 0h-245v1360h602q500 0 499 -432q0 -330 -301 -408l342 -520h-290l-304 498h-303v-498z" />
    <glyph glyph-name="uni0157" unicode="&#x157;" horiz-adv-x="784" 
d="M-80 -430l205 303h229l-235 -303h-199zM618 981q88 0 144 -37v-215h-10q-63 45 -152 45q-256 0 -256 -348v-426h-217v961h182l8 -148h5q83 168 296 168z" />
    <glyph glyph-name="Rcaron" unicode="&#x158;" horiz-adv-x="1359" 
d="M766 1483h-211l-256 346h209l154 -193l151 193h209zM399 717h349q260 0 260 212t-260 212h-349v-424zM399 0h-245v1360h602q500 0 499 -432q0 -330 -301 -408l342 -520h-290l-304 498h-303v-498z" />
    <glyph glyph-name="rcaron" unicode="&#x159;" horiz-adv-x="784" 
d="M510 1100h-211l-256 346h209l154 -193l151 193h209zM618 981q88 0 144 -37v-215h-10q-63 45 -152 45q-256 0 -256 -348v-426h-217v961h182l8 -148h5q83 168 296 168z" />
    <glyph glyph-name="Sacute" unicode="&#x15a;" horiz-adv-x="1198" 
d="M479 1483l236 346h241l-266 -346h-211zM642 1380q266 0 411 -108v-260h-13q-139 150 -424 149q-130 0 -206 -51t-76 -131t66 -119t235 -55q268 -27 382 -124q113 -97 113 -290t-140 -303t-392 -108q-340 0 -510 129v262h12q188 -172 492 -172q141 0 218 49t77 134
t-69 125t-247 60q-261 29 -371 120t-110 279t142 302q144 112 410 112z" />
    <glyph glyph-name="sacute" unicode="&#x15b;" horiz-adv-x="890" 
d="M324 1100l235 346h242l-266 -346h-211zM478 981q186 0 294 -70v-223h-10q-98 102 -291 103q-78 0 -128 -32t-50 -79q0 -46 40 -66t144 -26q189 -10 273 -83t84 -217t-102 -226t-283 -82q-242 0 -365 94v227h10q121 -131 344 -131q84 0 133 31t49 82t-41 75
q-42 24 -157 31q-186 14 -264 79t-78 204t105 224q107 85 293 85z" />
    <glyph glyph-name="Scircumflex" unicode="&#x15c;" horiz-adv-x="1198" 
d="M446 1483h-208l256 346h211l256 -346h-209l-154 188zM642 1380q266 0 411 -108v-260h-13q-139 150 -424 149q-130 0 -206 -51t-76 -131t66 -119t235 -55q268 -27 382 -124q113 -97 113 -290t-140 -303t-392 -108q-340 0 -510 129v262h12q188 -172 492 -172q141 0 218 49
t77 134t-69 125t-247 60q-261 29 -371 120t-110 279t142 302q144 112 410 112z" />
    <glyph glyph-name="scircumflex" unicode="&#x15d;" horiz-adv-x="890" 
d="M291 1100h-209l256 346h211l256 -346h-209l-154 188zM478 981q186 0 294 -70v-223h-10q-98 102 -291 103q-78 0 -128 -32t-50 -79q0 -46 40 -66t144 -26q189 -10 273 -83t84 -217t-102 -226t-283 -82q-242 0 -365 94v227h10q121 -131 344 -131q84 0 133 31t49 82t-41 75
q-42 24 -157 31q-186 14 -264 79t-78 204t105 224q107 85 293 85z" />
    <glyph glyph-name="Scedilla" unicode="&#x15e;" horiz-adv-x="1198" 
d="M88 371h12q188 -172 492 -172q141 0 218 49t77 134t-69 125t-247 60q-261 29 -371 120t-110 279t142 302q142 112 409 112t412 -108v-260h-13q-139 150 -424 149q-130 0 -206 -51t-76 -131t66 -119t235 -55q268 -27 382 -124q113 -97 113 -283t-120 -294
q-121 -106 -340 -122l-47 -86v-5h4q193 0 192 -147q0 -154 -233 -154q-111 0 -178 31v131h8q76 -41 138 -41q106 0 103 53q0 51 -84 52q-37 0 -94 -15v27l86 152q-317 6 -477 129v262z" />
    <glyph glyph-name="scedilla" unicode="&#x15f;" horiz-adv-x="890" 
d="M84 301h10q121 -131 344 -131q84 0 133 31t49 82t-41 75q-42 24 -157 31q-186 14 -264 79t-78 204t105 224t292 85t295 -70v-223h-10q-98 102 -291 103q-78 0 -128 -32t-50 -79q0 -46 40 -66t144 -26q189 -10 273 -83t84 -210t-84 -216t-232 -95l-47 -88v-5h4
q193 0 193 -147q0 -154 -234 -154q-111 0 -178 31v131h8q76 -41 138 -41q104 0 104 52t-84 53q-37 0 -94 -15v27l86 152q-217 6 -330 94v227z" />
    <glyph glyph-name="Scaron" unicode="&#x160;" horiz-adv-x="1198" 
d="M705 1483h-211l-256 346h208l154 -193l152 193h209zM642 1380q266 0 411 -108v-260h-13q-139 150 -424 149q-130 0 -206 -51t-76 -131t66 -119t235 -55q268 -27 382 -124q113 -97 113 -290t-140 -303t-392 -108q-340 0 -510 129v262h12q188 -172 492 -172q141 0 218 49
t77 134t-69 125t-247 60q-261 29 -371 120t-110 279t142 302q144 112 410 112z" />
    <glyph glyph-name="scaron" unicode="&#x161;" horiz-adv-x="890" 
d="M549 1100h-211l-256 346h209l153 -193l152 193h209zM478 981q186 0 294 -70v-223h-10q-98 102 -291 103q-78 0 -128 -32t-50 -79q0 -46 40 -66t144 -26q189 -10 273 -83t84 -217t-102 -226t-283 -82q-242 0 -365 94v227h10q121 -131 344 -131q84 0 133 31t49 82t-41 75
q-42 24 -157 31q-186 14 -264 79t-78 204t105 224q107 85 293 85z" />
    <glyph glyph-name="uni0162" unicode="&#x162;" horiz-adv-x="1206" 
d="M606 -109h10q193 0 193 -147q0 -154 -234 -154q-111 0 -178 31v131h9q76 -41 137 -41q106 0 104 53q0 51 -84 52q-37 0 -94 -15v27l88 172h-76v1141h-428v219h1100v-219h-426v-1141h-65l-56 -104v-5z" />
    <glyph glyph-name="uni0163" unicode="&#x163;" horiz-adv-x="778" 
d="M424 -109h4q193 0 193 -147q0 -154 -234 -154q-111 0 -178 31v131h8q75 -41 137 -41q104 0 105 52q0 52 -84 53q-37 0 -94 -15v27l100 176q-186 68 -186 326v442h-170v189h176l30 264h181v-264h293v-189h-293v-434q0 -78 40 -122t118 -44t128 57h11v-215
q-70 -35 -181 -34q-39 0 -57 2l-47 -86v-5z" />
    <glyph glyph-name="Tcaron" unicode="&#x164;" horiz-adv-x="1206" 
d="M707 1483h-211l-256 346h209l153 -193l152 193h209zM727 0h-246v1141h-428v219h1100v-219h-426v-1141z" />
    <glyph glyph-name="tcaron" unicode="&#x165;" horiz-adv-x="778" 
d="M526 1032l64 402h219l-115 -402h-168zM709 229v-215q-70 -35 -181 -34q-162 0 -248 90t-85 260v442h-170v189h176l30 264h181v-264h293v-189h-293v-434q0 -78 40 -122t118 -44t128 57h11z" />
    <glyph glyph-name="Tbar" unicode="&#x166;" horiz-adv-x="1206" 
d="M727 791h244v-183h-244v-608h-246v608h-245v183h245v350h-428v219h1100v-219h-426v-350z" />
    <glyph glyph-name="tbar" unicode="&#x167;" horiz-adv-x="800" 
d="M713 229v-215q-70 -35 -181 -34q-162 0 -248 90t-85 260v119h-150v159h150v164h-170v189h176l31 264h180v-264h293v-189h-293v-164h252v-159h-252v-111q0 -78 40 -122t118 -44t128 57h11z" />
    <glyph glyph-name="Utilde" unicode="&#x168;" horiz-adv-x="1417" 
d="M1040 1798v-178q-59 -113 -182 -113q-78 1 -164 51t-141 50q-109 0 -168 -119h-8v178q59 113 182 113q78 0 164 -50t141 -51q109 0 168 119h8zM1294 1360v-785q0 -596 -587 -595q-584 0 -584 595v785h246v-768q0 -193 87 -293t256 -100t257 100t88 293v768h237z" />
    <glyph glyph-name="utilde" unicode="&#x169;" horiz-adv-x="1136" 
d="M889 1415v-178q-59 -113 -182 -113q-78 0 -164 50t-142 51q-109 0 -168 -119h-8v178q59 113 183 113q78 -1 164 -51t141 -50q109 0 168 119h8zM1008 0h-183l-8 145h-4q-96 -166 -321 -165q-180 0 -283 110q-102 111 -103 307v564h218v-539q0 -116 58 -182t169 -66t175 75
t65 208v504h217v-961z" />
    <glyph glyph-name="Umacron" unicode="&#x16a;" horiz-adv-x="1417" 
d="M377 1552v177h663v-177h-663zM1294 1360v-785q0 -596 -587 -595q-584 0 -584 595v785h246v-768q0 -193 87 -293t256 -100t257 100t88 293v768h237z" />
    <glyph glyph-name="umacron" unicode="&#x16b;" horiz-adv-x="1136" 
d="M225 1169v177h664v-177h-664zM1008 0h-183l-8 145h-4q-96 -166 -321 -165q-180 0 -283 110q-102 111 -103 307v564h218v-539q0 -116 58 -182t169 -66t175 75t65 208v504h217v-961z" />
    <glyph glyph-name="Ubreve" unicode="&#x16c;" horiz-adv-x="1417" 
d="M708 1493q-158 0 -246 83q-89 83 -102 239h160q28 -147 188 -147t189 147h160q-11 -156 -101 -239t-248 -83zM1294 1360v-785q0 -596 -587 -595q-584 0 -584 595v785h246v-768q0 -193 87 -293t256 -100t257 100t88 293v768h237z" />
    <glyph glyph-name="ubreve" unicode="&#x16d;" horiz-adv-x="1136" 
d="M557 1110q-158 0 -247 83t-101 239h160q29 -147 188 -147t188 147h160q-12 -156 -101 -239t-247 -83zM1008 0h-183l-8 145h-4q-96 -166 -321 -165q-180 0 -283 110q-102 111 -103 307v564h218v-539q0 -116 58 -182t169 -66t175 75t65 208v504h217v-961z" />
    <glyph glyph-name="Uring" unicode="&#x16e;" horiz-adv-x="1417" 
d="M709 1745q-39 0 -64 -25q-25 -26 -25 -64t26 -63q24 -25 63 -25t63 26q24 24 25 63q-1 39 -25 63t-63 25zM709 1870q92 0 152 -60q61 -60 61 -153t-60 -153t-153 -60q-92 0 -153 60q-60 60 -60 152t60 154q60 60 153 60zM1294 1360v-785q0 -596 -587 -595
q-584 0 -584 595v785h246v-768q0 -193 87 -293t256 -100t257 100t88 293v768h237z" />
    <glyph glyph-name="uring" unicode="&#x16f;" horiz-adv-x="1136" 
d="M557 1362q-39 0 -63 -25t-25 -63q0 -38 25 -64q26 -24 64 -24t63 24t24 64t-25 64t-63 24zM557 1487q93 -1 153 -61t60 -152t-60 -152t-152 -61q-92 0 -154 60q-60 61 -60 153t60 152t153 61zM1008 0h-183l-8 145h-4q-96 -166 -321 -165q-180 0 -283 110
q-102 111 -103 307v564h218v-539q0 -116 58 -182t169 -66t175 75t65 208v504h217v-961z" />
    <glyph glyph-name="Uhungarumlaut" unicode="&#x170;" horiz-adv-x="1417" 
d="M780 1483l236 346h229l-266 -346h-199zM391 1483l236 346h229l-266 -346h-199zM1294 1360v-785q0 -596 -587 -595q-584 0 -584 595v785h246v-768q0 -193 87 -293t256 -100t257 100t88 293v768h237z" />
    <glyph glyph-name="uhungarumlaut" unicode="&#x171;" horiz-adv-x="1136" 
d="M629 1100l235 346h230l-267 -346h-198zM240 1100l235 346h230l-267 -346h-198zM1008 0h-183l-8 145h-4q-96 -166 -321 -165q-180 0 -283 110q-102 111 -103 307v564h218v-539q0 -116 58 -182t169 -66t175 75t65 208v504h217v-961z" />
    <glyph glyph-name="Uogonek" unicode="&#x172;" horiz-adv-x="1417" 
d="M1294 1360v-785q0 -387 -256 -528q-184 -102 -184 -227q0 -37 25 -61t63 -23q74 0 135 55h8v-164q-74 -37 -175 -37t-159 50q-59 50 -59 154q0 102 90 183v5q-25 -2 -75 -2q-584 0 -584 595v785h246v-768q0 -193 87 -293t256 -100t257 100t88 293v768h237z" />
    <glyph glyph-name="uogonek" unicode="&#x173;" horiz-adv-x="1136" 
d="M1008 0h-62q-168 -70 -168 -184q0 -37 25 -59t61 -21q74 0 135 55h9v-164q-74 -37 -176 -37t-158 48q-57 48 -58 135q0 166 207 268l-6 104h-4q-96 -166 -321 -165q-180 0 -283 110q-102 111 -103 307v564h218v-539q0 -116 58 -182t169 -66t175 75t65 208v504h217v-961z
" />
    <glyph glyph-name="Wcircumflex" unicode="&#x174;" horiz-adv-x="2062" 
d="M879 1483h-209l256 346h211l256 -346h-209l-154 188zM2023 1360l-434 -1360h-248l-309 952h-4l-311 -952h-246l-432 1360h258l303 -991h4l324 991h213l321 -993h4l306 993h251z" />
    <glyph glyph-name="wcircumflex" unicode="&#x175;" horiz-adv-x="1560" 
d="M627 1100h-209l256 346h211l256 -346h-209l-154 188zM1217 0h-213l-222 647h-4l-223 -647h-209l-332 961h232l211 -682h4l237 682h174l238 -682h4l211 682h221z" />
    <glyph glyph-name="Ycircumflex" unicode="&#x176;" horiz-adv-x="1404" 
d="M549 1483h-209l256 346h211l256 -346h-209l-154 188zM582 0v575l-570 785h299l398 -572l397 572h287l-566 -780v-580h-245z" />
    <glyph glyph-name="ycircumflex" unicode="&#x177;" horiz-adv-x="1028" 
d="M360 1100h-208l256 346h210l256 -346h-208l-154 188zM438 -389h-223l186 420l-387 930h234l268 -697h4l271 697h223z" />
    <glyph glyph-name="Ydieresis" unicode="&#x178;" horiz-adv-x="1404" 
d="M784 1642q0 56 36 94t94 38t94 -37t36 -95t-36 -93q-36 -36 -94 -36t-94 36t-36 93zM360 1642q0 56 36 94t94 38t94 -37t37 -95q0 -58 -36 -93q-37 -36 -95 -36t-94 36t-36 93zM582 0v575l-570 785h299l398 -572l397 572h287l-566 -780v-580h-245z" />
    <glyph glyph-name="Zacute" unicode="&#x179;" horiz-adv-x="1316" 
d="M547 1483l235 346h242l-266 -346h-211zM96 0v207l787 934h-746v219h1073v-207l-786 -934h797v-219h-1125z" />
    <glyph glyph-name="zacute" unicode="&#x17a;" horiz-adv-x="1009" 
d="M391 1100l236 346h241l-266 -346h-211zM84 0v174l539 598h-508v189h800v-175l-538 -598h549v-188h-842z" />
    <glyph glyph-name="Zdotaccent" unicode="&#x17b;" horiz-adv-x="1316" 
d="M668 1784q63 0 101 -39t38 -103t-38 -101q-38 -38 -101 -38t-102 38q-38 38 -38 101t38 103q39 39 102 39zM96 0v207l787 934h-746v219h1073v-207l-786 -934h797v-219h-1125z" />
    <glyph glyph-name="zdotaccent" unicode="&#x17c;" horiz-adv-x="1009" 
d="M512 1401q63 0 101 -39t38 -102q0 -64 -38 -102t-101 -38t-101 38t-38 102t38 102q38 39 101 39zM84 0v174l539 598h-508v189h800v-175l-538 -598h549v-188h-842z" />
    <glyph glyph-name="Zcaron" unicode="&#x17d;" horiz-adv-x="1316" 
d="M772 1483h-211l-256 346h209l154 -193l151 193h209zM96 0v207l787 934h-746v219h1073v-207l-786 -934h797v-219h-1125z" />
    <glyph glyph-name="zcaron" unicode="&#x17e;" horiz-adv-x="1009" 
d="M616 1100h-210l-256 346h208l154 -193l152 193h208zM84 0v174l539 598h-508v189h800v-175l-538 -598h549v-188h-842z" />
    <glyph glyph-name="florin" unicode="&#x192;" horiz-adv-x="1331" 
d="M956 1380q144 0 211 -37l-14 -198h-12q-53 41 -140 41q-166 0 -192 -174l-21 -140h299v-188h-325l-68 -477q-26 -172 -116 -261t-230 -89t-207 37l15 198h12q53 -41 139 -41q147 0 172 174l66 459h-262v188h288l23 158q25 170 121 260q97 90 241 90z" />
    <glyph glyph-name="AEacute" unicode="&#x1fc;" horiz-adv-x="2140" 
d="M983 1483l236 346h241l-266 -346h-211zM1036 1116h-4l-428 -645h432v645zM1282 791h612v-213h-612v-359h760v-219h-1006v256h-575l-170 -256h-279l924 1360h1106v-219h-760v-350z" />
    <glyph glyph-name="aeacute" unicode="&#x1fd;" horiz-adv-x="1929" 
d="M856 1100l236 346h241l-266 -346h-211zM1087 575h574q-18 99 -94 157t-191 58q-116 0 -190 -57q-74 -58 -99 -158zM580 174q129 0 210 86q80 86 80 221t-80 220q-81 85 -210 85t-210 -85t-81 -220t81 -221t210 -86zM1862 414h-775q23 -115 115 -180t240 -64
q221 0 350 125h10v-215q-131 -100 -338 -100q-276 0 -397 153h-4l-4 -133h-164l-4 133h-4q-111 -153 -330 -153t-353 141t-134 358t134 359t353 143q219 0 330 -154h4l4 134h164l4 -134h4q109 154 333 154t343 -122t119 -339v-106z" />
    <glyph glyph-name="Oslashacute" unicode="&#x1fe;" horiz-adv-x="1560" 
d="M657 1483l236 346h242l-267 -346h-211zM1243 680q0 166 -84 293l-612 -717q102 -57 233 -57q205 0 334 134t129 347zM317 680q0 -168 84 -293l613 717q-102 57 -234 57q-205 0 -334 -134t-129 -347zM1491 670q0 -297 -199 -494t-512 -196q-217 0 -385 98l-67 -78h-258
l174 203q-174 190 -174 487t198 494q199 197 512 196q217 0 385 -98l68 78h258l-174 -203q174 -190 174 -487z" />
    <glyph glyph-name="oslashacute" unicode="&#x1ff;" horiz-adv-x="1159" 
d="M475 1100l236 346h241l-266 -346h-211zM872 479q0 96 -41 168l-370 -450q55 -23 119 -23q129 0 211 85q81 85 81 220zM289 479q0 -94 41 -166l370 451q-55 23 -120 22q-129 0 -210 -85t-81 -222zM1092 471q0 -211 -144 -351t-368 -140q-141 0 -252 57l-31 -37h-227
l118 143q-118 137 -118 347t142 350t368 141q139 0 254 -57l30 37h228l-121 -146q121 -133 121 -344z" />
    <glyph glyph-name="uni0218" unicode="&#x218;" horiz-adv-x="1198" 
d="M297 -430l205 303h229l-235 -303h-199zM642 1380q266 0 411 -108v-260h-13q-139 150 -424 149q-130 0 -206 -51t-76 -131t66 -119t235 -55q268 -27 382 -124q113 -97 113 -290t-140 -303t-392 -108q-340 0 -510 129v262h12q188 -172 492 -172q141 0 218 49t77 134
t-69 125t-247 60q-261 29 -371 120t-110 279t142 302q144 112 410 112z" />
    <glyph glyph-name="uni0219" unicode="&#x219;" horiz-adv-x="890" 
d="M145 -430l205 303h230l-236 -303h-199zM478 981q186 0 294 -70v-223h-10q-98 102 -291 103q-78 0 -128 -32t-50 -79q0 -46 40 -66t144 -26q189 -10 273 -83t84 -217t-102 -226t-283 -82q-242 0 -365 94v227h10q121 -131 344 -131q84 0 133 31t49 82t-41 75
q-42 24 -157 31q-186 14 -264 79t-78 204t105 224q107 85 293 85z" />
    <glyph glyph-name="uni021A" unicode="&#x21a;" horiz-adv-x="1206" 
d="M287 -430l205 303h229l-236 -303h-198zM727 0h-246v1141h-428v219h1100v-219h-426v-1141z" />
    <glyph glyph-name="uni021B" unicode="&#x21b;" horiz-adv-x="778" 
d="M98 -430l205 303h229l-235 -303h-199zM709 229v-215q-70 -35 -181 -34q-162 0 -248 90t-85 260v442h-170v189h176l30 264h181v-264h293v-189h-293v-434q0 -78 40 -122t118 -44t128 57h11z" />
    <glyph glyph-name="uni0237" unicode="&#x237;" horiz-adv-x="473" 
d="M344 961v-1076q0 -295 -264 -295q-70 0 -129 21v199h10q35 -25 80 -25t65 28t21 89v1059h217z" />
    <glyph glyph-name="circumflex" unicode="&#x2c6;" horiz-adv-x="1024" 
d="M360 1100h-208l256 346h210l256 -346h-208l-154 188z" />
    <glyph glyph-name="caron" unicode="&#x2c7;" horiz-adv-x="1024" 
d="M618 1100h-210l-256 346h208l154 -193l152 193h208z" />
    <glyph glyph-name="breve" unicode="&#x2d8;" horiz-adv-x="1024" 
d="M512 1110q-158 0 -247 83t-101 239h160q29 -147 188 -147t188 147h160q-12 -156 -101 -239t-247 -83z" />
    <glyph glyph-name="dotaccent" unicode="&#x2d9;" horiz-adv-x="1024" 
d="M512 1401q63 0 101 -39t38 -102q0 -64 -38 -102t-101 -38t-101 38t-38 102t38 102q38 39 101 39z" />
    <glyph glyph-name="ring" unicode="&#x2da;" horiz-adv-x="1024" 
d="M512 1362q-40 0 -64 -25t-24 -63t25 -64q25 -24 63 -24t64 24q24 24 24 64t-24 64t-64 24zM512 1487q92 -1 152 -61t61 -152q0 -92 -60 -152q-61 -60 -153 -61q-92 0 -153 60q-60 61 -60 153q1 92 61 152t152 61z" />
    <glyph glyph-name="ogonek" unicode="&#x2db;" horiz-adv-x="1024" 
d="M520 -184q0 -37 25 -59t61 -21q74 0 135 55h9v-164q-74 -37 -176 -37t-158 48q-57 48 -58 135q0 201 295 305l35 -78q-168 -70 -168 -184z" />
    <glyph glyph-name="tilde" unicode="&#x2dc;" horiz-adv-x="1024" 
d="M844 1415v-178q-59 -113 -182 -113q-78 0 -164 50t-142 51q-109 0 -168 -119h-8v178q59 113 182 113q78 -1 164 -51t142 -50q109 0 168 119h8z" />
    <glyph glyph-name="hungarumlaut" unicode="&#x2dd;" horiz-adv-x="1024" 
d="M578 1100l235 346h229l-266 -346h-198zM188 1100l236 346h229l-266 -346h-199z" />
    <glyph glyph-name="uni0394" unicode="&#x394;" horiz-adv-x="1495" 
d="M1108 219l-363 862h-4l-362 -862h729zM31 0l598 1360h235l600 -1360h-1433z" />
    <glyph glyph-name="uni03A9" unicode="&#x3a9;" horiz-adv-x="1585" 
d="M1479 219v-219h-535v207q311 166 311 491q0 205 -129 334q-130 129 -334 129t-333 -129t-129 -334q0 -326 311 -491v-207h-535v219h254v4q-279 156 -278 512q0 287 198 466t513 179t513 -179t197 -466q0 -356 -278 -512v-4h254z" />
    <glyph glyph-name="uni03BC" unicode="&#x3bc;" horiz-adv-x="1169" 
d="M1036 0h-180l-8 145h-4q-96 -166 -326 -165q-94 0 -168 34v-403h-217v1350h217v-539q0 -116 60 -182t170 -66t175 75t64 208v504h217v-961z" />
    <glyph glyph-name="pi" unicode="&#x3c0;" horiz-adv-x="1226" 
d="M1038 772v-772h-217v772h-415v-772h-218v772h-157v189h1163v-189h-156z" />
    <glyph glyph-name="uni1E02" unicode="&#x1e02;" horiz-adv-x="1316" 
d="M641 1784q63 0 101 -39t38 -103t-38 -101q-38 -38 -101 -38t-101 38t-38 101q0 62 38 102t101 40zM399 219h369q236 0 236 180t-250 181h-355v-361zM399 793h306q252 0 251 176q0 172 -235 172h-322v-348zM1251 375q0 -375 -477 -375h-620v1360h569q479 0 479 -369
q0 -215 -184 -295v-4q233 -72 233 -317z" />
    <glyph glyph-name="uni1E03" unicode="&#x1e03;" horiz-adv-x="1210" 
d="M236 1847q63 0 101 -39t38 -102t-38 -101t-101 -38t-102 38q-38 38 -38 101t38 102q39 39 102 39zM630 174q128 0 210 86t82 221t-82 220t-210 85t-210 -85t-82 -220t82 -221t210 -86zM667 981q206 0 340 -142q134 -141 134 -359t-134 -359t-354 -141t-334 157h-4
l-6 -137h-182v1434h217v-576h4q113 123 319 123z" />
    <glyph glyph-name="uni1E0A" unicode="&#x1e0a;" horiz-adv-x="1482" 
d="M700 1784q64 0 102 -39t38 -103t-38 -101q-38 -38 -102 -38t-101 38q-38 38 -38 101q0 62 38 102t101 40zM399 219h279q236 0 362 120t125 341q0 221 -126 341t-361 120h-279v-922zM154 1360h536q344 0 534 -179t189 -501q0 -322 -189 -501t-534 -179h-536v1360z" />
    <glyph glyph-name="uni1E0B" unicode="&#x1e0b;" horiz-adv-x="1208" 
d="M973 1847q63 0 101 -39t38 -102t-38 -101t-101 -38t-102 38q-38 38 -37 101q0 63 37 102q39 39 102 39zM580 174q129 0 210 86q80 86 80 221t-80 220q-81 85 -210 85t-210 -85t-81 -220t81 -221t210 -86zM1081 0h-180l-6 137h-4q-113 -157 -333 -157t-354 141t-134 358
t134 359t338 143q204 0 318 -121h4v574h217v-1434z" />
    <glyph glyph-name="uni1E1E" unicode="&#x1e1e;" horiz-adv-x="1220" 
d="M641 1784q63 0 101 -39t38 -103t-38 -101q-38 -38 -101 -38t-101 38t-38 101q0 62 38 102t101 40zM399 772h613v-219h-613v-553h-245v1360h1005v-219h-760v-369z" />
    <glyph glyph-name="uni1E1F" unicode="&#x1e1f;" horiz-adv-x="731" 
d="M416 1847q63 0 101 -39t38 -102t-38 -101t-101 -38t-102 38q-38 38 -38 101t38 102q39 39 102 39zM537 1454q125 0 194 -35v-202h-10q-61 43 -152 43q-158 0 -157 -173v-126h293v-189h-293v-772h-217v772h-170v189h170v137q0 172 88 264t254 92z" />
    <glyph glyph-name="uni1E40" unicode="&#x1e40;" horiz-adv-x="1929" 
d="M965 1784q63 0 101 -39t38 -103t-38 -101q-38 -38 -101 -38t-102 38q-38 38 -38 101t38 103q39 39 102 39zM1776 0h-246v1096h-4l-459 -1096h-223l-449 1075h-4v-1075h-237v1360h368l436 -1038h5l436 1038h377v-1360z" />
    <glyph glyph-name="uni1E41" unicode="&#x1e41;" horiz-adv-x="1728" 
d="M877 1401q63 0 101 -39t38 -102q0 -64 -38 -102t-101 -38t-102 38q-38 38 -38 102t38 102q39 39 102 39zM1262 981q174 0 267 -108t93 -306v-567h-217v545q0 242 -199 241q-221 0 -221 -290v-496h-217v545q0 242 -201 241q-219 0 -219 -274v-512h-217v961h180l6 -140h5
q88 160 300 160t300 -172h4q90 172 336 172z" />
    <glyph glyph-name="uni1E56" unicode="&#x1e56;" horiz-adv-x="1304" 
d="M662 1784q63 0 101 -39t38 -103t-38 -101q-38 -38 -101 -38t-102 38q-38 38 -38 101t38 103q39 39 102 39zM399 700h336q262 0 262 220t-262 221h-336v-441zM154 1360h591q500 0 500 -439t-500 -440h-346v-481h-245v1360z" />
    <glyph glyph-name="uni1E57" unicode="&#x1e57;" horiz-adv-x="1210" 
d="M635 1399q63 0 101 -39q38 -38 38 -102t-38 -102t-101 -38t-101 38t-38 101t38 103t101 39zM630 174q128 0 210 86t82 221t-82 220t-210 85t-210 -85t-82 -220t82 -221t210 -86zM653 981q220 0 354 -142q134 -141 134 -359t-134 -359t-340 -141t-319 122h-4v-491h-217
v1350h182l6 -138h4q114 158 334 158z" />
    <glyph glyph-name="uni1E60" unicode="&#x1e60;" horiz-adv-x="1198" 
d="M600 1784q63 0 101 -39t38 -103t-38 -101q-38 -38 -101 -38t-101 38t-38 101q0 62 38 102t101 40zM642 1380q266 0 411 -108v-260h-13q-139 150 -424 149q-130 0 -206 -51t-76 -131t66 -119t235 -55q268 -27 382 -124q113 -97 113 -290t-140 -303t-392 -108
q-340 0 -510 129v262h12q188 -172 492 -172q141 0 218 49t77 134t-69 125t-247 60q-261 29 -371 120t-110 279t142 302q144 112 410 112z" />
    <glyph glyph-name="uni1E61" unicode="&#x1e61;" horiz-adv-x="890" 
d="M444 1401q64 0 102 -39t38 -102q0 -64 -38 -102t-102 -38t-101 38q-38 38 -38 102t38 102q38 39 101 39zM478 981q186 0 294 -70v-223h-10q-98 102 -291 103q-78 0 -128 -32t-50 -79q0 -46 40 -66t144 -26q189 -10 273 -83t84 -217t-102 -226t-283 -82q-242 0 -365 94
v227h10q121 -131 344 -131q84 0 133 31t49 82t-41 75q-42 24 -157 31q-186 14 -264 79t-78 204t105 224q107 85 293 85z" />
    <glyph glyph-name="uni1E6A" unicode="&#x1e6a;" horiz-adv-x="1206" 
d="M602 1784q63 0 101 -39t38 -103t-38 -101q-38 -38 -101 -38t-101 38t-38 101q0 62 38 102t101 40zM727 0h-246v1141h-428v219h1100v-219h-426v-1141z" />
    <glyph glyph-name="uni1E6B" unicode="&#x1e6b;" horiz-adv-x="778" 
d="M317 1653q63 0 101 -39q38 -38 39 -102q0 -64 -38 -102q-37 -38 -101 -38t-102 38t-38 101t38 103t101 39zM709 229v-215q-70 -35 -181 -34q-162 0 -248 90t-85 260v442h-170v189h176l30 264h181v-264h293v-189h-293v-434q0 -78 40 -122t118 -44t128 57h11z" />
    <glyph glyph-name="Wgrave" unicode="&#x1e80;" horiz-adv-x="2062" 
d="M940 1483l-266 346h241l236 -346h-211zM2023 1360l-434 -1360h-248l-309 952h-4l-311 -952h-246l-432 1360h258l303 -991h4l324 991h213l321 -993h4l306 993h251z" />
    <glyph glyph-name="wgrave" unicode="&#x1e81;" horiz-adv-x="1560" 
d="M688 1100l-266 346h242l235 -346h-211zM1217 0h-213l-222 647h-4l-223 -647h-209l-332 961h232l211 -682h4l237 682h174l238 -682h4l211 682h221z" />
    <glyph glyph-name="Wacute" unicode="&#x1e82;" horiz-adv-x="2062" 
d="M911 1483l236 346h242l-267 -346h-211zM2023 1360l-434 -1360h-248l-309 952h-4l-311 -952h-246l-432 1360h258l303 -991h4l324 991h213l321 -993h4l306 993h251z" />
    <glyph glyph-name="wacute" unicode="&#x1e83;" horiz-adv-x="1560" 
d="M659 1100l236 346h242l-267 -346h-211zM1217 0h-213l-222 647h-4l-223 -647h-209l-332 961h232l211 -682h4l237 682h174l238 -682h4l211 682h221z" />
    <glyph glyph-name="Wdieresis" unicode="&#x1e84;" horiz-adv-x="2062" 
d="M1114 1642q0 56 36 94t94 38t94 -37t36 -95t-36 -93q-36 -36 -94 -36t-94 36t-36 93zM690 1642q0 56 36 94t94 38t94 -37t36 -95t-36 -93q-36 -36 -94 -36t-94 36t-36 93zM2023 1360l-434 -1360h-248l-309 952h-4l-311 -952h-246l-432 1360h258l303 -991h4l324 991h213
l321 -993h4l306 993h251z" />
    <glyph glyph-name="wdieresis" unicode="&#x1e85;" horiz-adv-x="1560" 
d="M992 1391q58 0 94 -37t36 -94q0 -58 -36 -94t-94 -36t-94 36t-36 94t36 94q36 37 94 37zM568 1391q58 0 94 -37t36 -94t-35 -94q-37 -36 -95 -36t-94 36t-36 94t36 94q36 37 94 37zM1217 0h-213l-222 647h-4l-223 -647h-209l-332 961h232l211 -682h4l237 682h174
l238 -682h4l211 682h221z" />
    <glyph glyph-name="Ygrave" unicode="&#x1ef2;" horiz-adv-x="1404" 
d="M610 1483l-266 346h242l235 -346h-211zM582 0v575l-570 785h299l398 -572l397 572h287l-566 -780v-580h-245z" />
    <glyph glyph-name="ygrave" unicode="&#x1ef3;" horiz-adv-x="1028" 
d="M422 1100l-266 346h241l236 -346h-211zM438 -389h-223l186 420l-387 930h234l268 -697h4l271 697h223z" />
    <glyph glyph-name="uni2007" unicode="&#x2007;" horiz-adv-x="1331" 
 />
    <glyph glyph-name="figuredash" unicode="&#x2012;" horiz-adv-x="1331" 
d="M102 582v194h1127v-194h-1127z" />
    <glyph glyph-name="endash" unicode="&#x2013;" horiz-adv-x="1024" 
d="M102 463v194h820v-194h-820z" />
    <glyph glyph-name="emdash" unicode="&#x2014;" horiz-adv-x="2048" 
d="M102 463v194h1844v-194h-1844z" />
    <glyph glyph-name="quoteleft" unicode="&#x2018;" horiz-adv-x="536" 
d="M471 1360l-174 -481h-223l219 481h178z" />
    <glyph glyph-name="quoteright" unicode="&#x2019;" horiz-adv-x="536" 
d="M66 879l174 481h223l-219 -481h-178z" />
    <glyph glyph-name="quotesinglbase" unicode="&#x201a;" horiz-adv-x="536" 
d="M10 -240l174 482h224l-220 -482h-178z" />
    <glyph glyph-name="quotedblleft" unicode="&#x201c;" horiz-adv-x="933" 
d="M868 1360l-174 -481h-223l219 481h178zM471 1360l-174 -481h-223l219 481h178z" />
    <glyph glyph-name="quotedblright" unicode="&#x201d;" horiz-adv-x="933" 
d="M463 879l174 481h223l-219 -481h-178zM66 879l174 481h223l-219 -481h-178z" />
    <glyph glyph-name="quotedblbase" unicode="&#x201e;" horiz-adv-x="933" 
d="M10 -240l174 482h224l-220 -482h-178zM408 -240l174 482h223l-219 -482h-178z" />
    <glyph glyph-name="dagger" unicode="&#x2020;" horiz-adv-x="999" 
d="M590 952v-768h-178v768h-310v156h310v326h178v-326h307v-156h-307z" />
    <glyph glyph-name="daggerdbl" unicode="&#x2021;" horiz-adv-x="999" 
d="M590 666h307v-156h-307v-326h-178v326h-310v156h310v286h-310v156h310v326h178v-326h307v-156h-307v-286z" />
    <glyph glyph-name="bullet" unicode="&#x2022;" horiz-adv-x="1024" 
d="M512 862q131 0 217 -86t86 -217t-86 -216t-217 -85t-217 85t-86 216t86 217t217 86z" />
    <glyph glyph-name="ellipsis" unicode="&#x2026;" horiz-adv-x="2048" 
d="M378 262q60 0 100 -41t40 -100t-40 -101t-100 -40q-60 0 -102 40q-40 40 -40 100t40 101q42 41 102 41zM1025 262q60 0 100 -41t40 -100t-40 -101t-100 -40q-60 0 -101 40t-41 100t41 101t101 41zM1672 262q60 0 100 -41t40 -100t-39 -101q-41 -40 -101 -40t-101 40
t-41 100t41 101t101 41z" />
    <glyph glyph-name="perthousand" unicode="&#x2030;" horiz-adv-x="2265" 
d="M1176 512q-70 0 -110 -52t-40 -144t40 -144q40 -51 110 -51t110 51t39 143q1 93 -39 145t-110 52zM1176 653q143 0 225 -92t82 -246q0 -155 -82 -245t-225 -90t-226 91q-82 91 -82 245t82 245q83 92 226 92zM379 1239q-70 0 -110 -52q-40 -53 -40 -145t40 -143t110 -51
q69 0 109 51t40 143t-40 144t-109 53zM252 0l870 1360h181l-871 -1360h-180zM379 1380q143 0 225 -92t82 -246t-82 -244t-225 -91q-143 0 -225 91q-82 90 -82 244t82 246t225 92zM1886 512q-70 0 -110 -52t-39 -144q0 -92 40 -144q39 -51 109 -51t110 51t40 143
q0 93 -40 145t-110 52zM1886 653q143 0 225 -92t82 -246q0 -155 -82 -245t-225 -90t-225 91t-82 245t82 245q82 92 225 92z" />
    <glyph glyph-name="guilsinglleft" unicode="&#x2039;" horiz-adv-x="591" 
d="M489 260v-227l-430 440v14l430 441v-228l-227 -221z" />
    <glyph glyph-name="guilsinglright" unicode="&#x203a;" horiz-adv-x="591" 
d="M102 700v228l430 -441v-14l-430 -440v227l228 221z" />
    <glyph glyph-name="fraction" unicode="&#x2044;" horiz-adv-x="315" 
d="M-197 0h-172l881 1360h172z" />
    <glyph glyph-name="zerosuperior" unicode="&#x2070;" 
d="M420 1501q-176 0 -176 -287t176 -286q176 0 176 286t-176 287zM420 1647q162 0 250 -113t88 -320q0 -208 -88 -320t-250 -112t-250 113t-88 319t88 320q88 113 250 113z" />
    <glyph glyph-name="foursuperior" unicode="&#x2074;" 
d="M520 1096v327h-2l-262 -327h264zM680 795h-160v155h-438v137l440 547h158v-538h106v-146h-106v-155z" />
    <glyph glyph-name="fivesuperior" unicode="&#x2075;" 
d="M440 1339q143 0 223 -72q79 -73 79 -203t-89 -206t-257 -76t-269 68v166h10q94 -88 266 -88q84 0 131 36q46 36 46 101q0 135 -207 135q-113 0 -211 -39h-10v473h536v-145h-399v-164q63 14 151 14z" />
    <glyph glyph-name="sixsuperior" unicode="&#x2076;" 
d="M439 928q75 0 115 38t40 102t-40 101t-110 37q-125 0 -184 -98q8 -84 56 -132t123 -48zM472 1346q130 0 207 -75t77 -203t-84 -207t-236 -79t-247 108q-93 108 -93 312t100 325q100 120 263 120q164 0 233 -56v-164h-10q-78 74 -193 74q-199 0 -227 -219h4q76 64 206 64z
" />
    <glyph glyph-name="sevensuperior" unicode="&#x2077;" 
d="M121 1489v145h641v-151l-416 -688h-188l430 694h-467z" />
    <glyph glyph-name="eightsuperior" unicode="&#x2078;" 
d="M420 928q182 0 182 112t-182 111q-182 1 -182 -111t182 -112zM420 1501q-160 0 -160 -105q0 -106 160 -106t160 106t-160 105zM764 1022q0 -113 -92 -176q-92 -64 -253 -64t-252 64t-91 176q0 143 143 197v4q-119 55 -119 177t84 184t235 62t235 -62t86 -182
q0 -120 -119 -173v-4q143 -53 143 -203z" />
    <glyph glyph-name="ninesuperior" unicode="&#x2079;" 
d="M395 1223q125 0 185 98q-8 84 -56 132t-124 48q-74 0 -114 -38t-40 -102t40 -101t109 -37zM404 1647q152 0 246 -108q93 -109 93 -313t-99 -324t-263 -120t-234 56v163h11q78 -74 192 -73q199 0 228 219h-5q-75 -63 -205 -63t-207 74q-77 75 -77 203t84 207t236 79z" />
    <glyph glyph-name="zeroinferior" unicode="&#x2080;" 
d="M420 317q-176 -1 -176 -287t176 -286t176 286t-176 287zM420 463q162 0 250 -113q88 -114 88 -320t-88 -319t-250 -113t-250 114q-88 112 -88 319t88 319t250 113z" />
    <glyph glyph-name="oneinferior" unicode="&#x2081;" 
d="M625 -389h-160v651l-215 -135v162l248 162h127v-840z" />
    <glyph glyph-name="twoinferior" unicode="&#x2082;" 
d="M711 -244v-145h-582v153l193 150q133 106 180 164t47 115q0 125 -160 124q-133 0 -237 -104h-11v174q102 76 254 76t234 -66t82 -175q-1 -109 -57 -186t-220 -204l-90 -72v-4h367z" />
    <glyph glyph-name="threeinferior" unicode="&#x2083;" 
d="M406 463q318 0 317 -243q0 -120 -113 -179v-4q127 -57 127 -197q0 -115 -86 -178q-87 -63 -257 -63t-263 82v174h10q87 -111 261 -111t173 115q0 109 -169 108h-115v139h100q170 0 170 103q-1 109 -153 109t-248 -103h-10v172q98 76 256 76z" />
    <glyph glyph-name="fourinferior" unicode="&#x2084;" 
d="M520 -88v328h-2l-262 -328h264zM680 -389h-160v156h-438v137l440 547h158v-539h106v-145h-106v-156z" />
    <glyph glyph-name="fiveinferior" unicode="&#x2085;" 
d="M440 156q142 0 222 -73t80 -203t-89 -206t-257 -76t-269 68v166h10q94 -88 266 -88q84 0 131 36q46 36 46 101q0 135 -207 135q-113 0 -211 -39h-10v474h536v-146h-399v-164q63 15 151 15z" />
    <glyph glyph-name="sixinferior" unicode="&#x2086;" 
d="M439 -256q75 0 115 38t40 102t-40 102t-110 37q-125 0 -184 -99q8 -84 56 -132t123 -48zM472 162q130 0 207 -75t77 -203t-84 -207t-236 -79t-247 108q-93 108 -93 312t100 325q100 120 263 120q164 0 233 -55v-164h-10q-78 74 -193 73q-199 0 -227 -219h4q76 64 206 64z
" />
    <glyph glyph-name="seveninferior" unicode="&#x2087;" 
d="M121 305v146h641v-152l-416 -688h-188l430 694h-467z" />
    <glyph glyph-name="eightinferior" unicode="&#x2088;" 
d="M420 -256q182 0 182 112t-182 112t-182 -112t182 -112zM420 317q-160 0 -160 -105q0 -106 160 -106t160 106t-160 105zM764 -162q0 -113 -92 -176t-253 -63t-252 63t-91 176q0 143 143 197v4q-119 55 -119 177t84 184t235 62t235 -62t86 -182q0 -120 -119 -173v-4
q143 -53 143 -203z" />
    <glyph glyph-name="nineinferior" unicode="&#x2089;" 
d="M395 39q125 0 185 98q-8 84 -56 132t-124 48q-74 1 -114 -37t-40 -102t40 -102q40 -37 109 -37zM404 463q152 0 246 -108q93 -109 93 -313t-99 -324t-263 -120t-234 56v164h11q78 -74 192 -74q199 0 228 219h-5q-75 -63 -205 -63t-207 74t-77 203q0 128 84 207t236 79z
" />
    <glyph glyph-name="Euro" unicode="&#x20ac;" horiz-adv-x="1331" 
d="M887 1174q-285 0 -377 -265h553v-141h-582q-4 -57 -4 -88t4 -80h582v-141h-555q90 -272 379 -273q188 0 311 119h12v-233q-121 -92 -349 -92t-384 126t-209 353h-155v141h135q-2 27 -2 69t4 99h-137v141h157q53 223 209 347t383 124t348 -92v-233h-12q-123 119 -311 119z
" />
    <glyph glyph-name="uni20B9" unicode="&#x20b9;" horiz-adv-x="1331" 
d="M946 1210v-4q66 -68 80 -172h180v-151h-178q-41 -317 -440 -330v-4l598 -549h-303l-619 588v127h223q268 0 306 168h-668v151h668q-41 164 -306 164h-362v162h1081v-150h-260z" />
    <glyph glyph-name="uni2113" unicode="&#x2113;" horiz-adv-x="1009" 
d="M467 1036v-385q219 199 219 410q0 57 -27 91t-77 34q-115 0 -115 -150zM467 399q-1 -225 209 -225q106 0 190 90h11v-231q-86 -53 -237 -53t-252 78t-128 225q-63 -37 -135 -74v215q98 53 127 72v546q0 158 87 248t237 90t231 -85q82 -85 82 -234q0 -346 -422 -647v-15z
" />
    <glyph glyph-name="uni2117" unicode="&#x2117;" horiz-adv-x="1603" 
d="M709 694h157q123 0 123 104t-123 105h-157v-209zM559 1038h313q268 0 269 -239q0 -240 -269 -240h-163v-237h-150v716zM803 111q241 -1 399 161t158 408t-159 408t-399 161q-240 0 -399 -162q-159 -161 -159 -407t159 -408q160 -161 400 -161zM803 1380q301 0 501 -200
t200 -500q0 -301 -200 -501q-200 -199 -501 -199t-501 200t-200 500t200 500t501 200z" />
    <glyph glyph-name="trademark" unicode="&#x2122;" horiz-adv-x="1579" 
d="M1470 670h-139v514h-4l-197 -514h-122l-199 516h-4v-516h-131v690h207l188 -494h4l187 494h210v-690zM569 1360v-121h-194v-569h-139v569h-197v121h530z" />
    <glyph glyph-name="uni2126" unicode="&#x2126;" horiz-adv-x="1585" 
d="M1479 219v-219h-535v207q311 166 311 491q0 205 -129 334q-130 129 -334 129t-333 -129t-129 -334q0 -326 311 -491v-207h-535v219h254v4q-279 156 -278 512q0 287 198 466t513 179t513 -179t197 -466q0 -356 -278 -512v-4h254z" />
    <glyph glyph-name="estimated" unicode="&#x212e;" horiz-adv-x="1646" 
d="M823 1339q-260 0 -450 -204q-16 -25 -17 -45v-377q0 -12 9 -13h917q12 0 12 13v385q0 25 -20 45q-191 196 -451 196zM823 1380q305 0 522 -204q216 -205 216 -496v-16h-1196q-8 0 -9 -9v-385q0 -16 17 -41q182 -209 454 -209q137 0 261 62t215 172h108
q-104 -127 -259 -201t-329 -73q-305 0 -521 204t-216 496t216 496t521 204z" />
    <glyph glyph-name="onethird" unicode="&#x2153;" horiz-adv-x="1994" 
d="M625 520h-160v651l-215 -135v162l248 162h127v-840zM1560 852q318 0 318 -242q0 -120 -113 -180v-4q127 -57 127 -197q0 -115 -86 -178t-256 -63t-264 82v174h10q88 -111 262 -111t173 115q0 109 -170 108h-115v140h100q170 0 170 102q0 109 -152 109t-249 -103h-10v172
q97 76 255 76zM643 0h-172l881 1360h172z" />
    <glyph glyph-name="twothirds" unicode="&#x2154;" horiz-adv-x="1994" 
d="M711 666v-146h-582v154l193 149q133 105 180 163t47 116q0 125 -160 125q-133 0 -237 -105h-11v174q102 76 254 76t234 -66t82 -174q-1 -110 -57 -187t-220 -204l-90 -71v-4h367zM1560 852q318 0 318 -242q0 -120 -113 -180v-4q127 -57 127 -197q0 -115 -86 -178
t-256 -63t-264 82v174h10q88 -111 262 -111t173 115q0 109 -170 108h-115v140h100q170 0 170 102q0 109 -152 109t-249 -103h-10v172q97 76 255 76zM674 0h-172l880 1360h172z" />
    <glyph glyph-name="oneeighth" unicode="&#x215b;" horiz-adv-x="1994" 
d="M625 520h-160v651l-215 -135v162l248 162h127v-840zM1575 133q182 0 182 112q0 111 -182 111t-182 -112t182 -111zM1575 707q-160 1 -160 -105t160 -106t160 106t-160 105zM1919 227q0 -113 -92 -176t-253 -63t-252 63t-91 176q0 143 143 197v4q-119 55 -119 177
q0 123 84 185t235 62q152 0 236 -62t84 -182t-118 -174v-4q143 -53 143 -203zM643 0h-172l881 1360h172z" />
    <glyph glyph-name="threeeighths" unicode="&#x215c;" horiz-adv-x="1994" 
d="M406 1372q318 0 317 -242q0 -120 -113 -180v-4q127 -57 127 -196q0 -114 -86 -178q-87 -64 -257 -64t-263 82v174h10q87 -111 261 -111t173 115q0 109 -169 109h-115v139h100q170 0 170 102q-1 109 -153 109t-248 -103h-10v172q98 76 256 76zM1575 133q182 0 182 112
q0 111 -182 111t-182 -112t182 -111zM1575 707q-160 1 -160 -105t160 -106t160 106t-160 105zM1919 227q0 -113 -92 -176t-253 -63t-252 63t-91 176q0 143 143 197v4q-119 55 -119 177q0 123 84 185t235 62q152 0 236 -62t84 -182t-118 -174v-4q143 -53 143 -203zM647 0
h-172l881 1360h172z" />
    <glyph glyph-name="fiveeighths" unicode="&#x215d;" horiz-adv-x="1994" 
d="M440 1065q142 0 222 -73q80 -72 80 -202t-89 -206t-257 -76t-269 67v166h10q94 -88 266 -88q84 0 131 36q46 36 46 102q0 135 -207 135q-113 0 -211 -39h-10v473h536v-146h-399v-163q63 14 151 14zM1575 133q182 0 182 112q0 111 -182 111t-182 -112t182 -111zM1575 707
q-160 1 -160 -105t160 -106t160 106t-160 105zM1919 227q0 -113 -92 -176t-253 -63t-252 63t-91 176q0 143 143 197v4q-119 55 -119 177q0 123 84 185t235 62q152 0 236 -62t84 -182t-118 -174v-4q143 -53 143 -203zM647 0h-172l881 1360h172z" />
    <glyph glyph-name="seveneighths" unicode="&#x215e;" horiz-adv-x="1994" 
d="M121 1214v146h641v-152l-416 -688h-188l430 694h-467zM1575 133q182 0 182 112q0 111 -182 111t-182 -112t182 -111zM1575 707q-160 1 -160 -105t160 -106t160 106t-160 105zM1919 227q0 -113 -92 -176t-253 -63t-252 63t-91 176q0 143 143 197v4q-119 55 -119 177
q0 123 84 185t235 62q152 0 236 -62t84 -182t-118 -174v-4q143 -53 143 -203zM555 0h-172l881 1360h172z" />
    <glyph glyph-name="partialdiff" unicode="&#x2202;" horiz-adv-x="1210" 
d="M504 186q113 0 202 104t134 279q-29 82 -91 131t-137 50q-125 0 -209 -100t-84 -257q-1 -91 51 -149t134 -58zM642 1454q210 0 338 -159t128 -433q0 -383 -178 -633t-449 -249q-177 0 -285 112t-108 297q0 233 141 401t342 166q201 0 299 -145h4q2 20 3 59q0 182 -78 280
t-230 97q-152 0 -260 -106h-12v227q135 86 345 86z" />
    <glyph glyph-name="uni2206" unicode="&#x2206;" horiz-adv-x="1495" 
d="M1108 219l-363 862h-4l-362 -862h729zM31 0l598 1360h235l600 -1360h-1433z" />
    <glyph glyph-name="product" unicode="&#x220f;" horiz-adv-x="1413" 
d="M1264 -266h-246v1407h-625v-1407h-246v1626h1117v-1626z" />
    <glyph glyph-name="summation" unicode="&#x2211;" horiz-adv-x="1189" 
d="M1143 -47v-219h-1051v207l504 606l-504 604v207h1051v-219h-715l496 -592l-496 -594h715z" />
    <glyph glyph-name="minus" unicode="&#x2212;" horiz-adv-x="1331" 
d="M100 518v193h1131v-193h-1131z" />
    <glyph glyph-name="uni2219" unicode="&#x2219;" horiz-adv-x="536" 
d="M269 821q61 0 101 -41t40 -100t-40 -100t-100 -41t-102 41q-41 41 -41 100t41 100t101 41z" />
    <glyph glyph-name="radical" unicode="&#x221a;" horiz-adv-x="1095" 
d="M84 291v192h315l131 -329h5l321 1247h223l-411 -1544h-232l-182 434h-170z" />
    <glyph glyph-name="infinity" unicode="&#x221e;" horiz-adv-x="1429" 
d="M1023 508q67 0 107 47t39 125q0 78 -44 125t-117 47q-115 0 -211 -147q57 -109 108 -153t118 -44zM422 508q117 0 209 145q-57 109 -107 154t-118 45q-66 0 -106 -47t-40 -125t44 -125t118 -47zM1022 1012q143 0 227 -90t84 -242t-85 -242t-230 -90q-201 0 -318 182h-4
q-117 -182 -288 -182q-143 0 -229 90q-85 90 -85 242t86 242t232 90q193 0 315 -185h4q119 185 291 185z" />
    <glyph glyph-name="integral" unicode="&#x222b;" horiz-adv-x="782" 
d="M561 1454q102 0 174 -41v-205h-10q-39 53 -119 54q-106 0 -106 -132v-1236q0 -303 -279 -304q-102 0 -174 41v205h10q39 -53 119 -53q106 0 107 131v1237q-1 303 278 303z" />
    <glyph glyph-name="approxequal" unicode="&#x2248;" horiz-adv-x="1331" 
d="M901 154q-127 0 -265 98t-202 98q-102 0 -215 -196l-158 94q156 295 369 295q131 0 287 -115q111 -82 180 -82q102 0 215 197l158 -94q-156 -295 -369 -295zM901 686q-127 0 -265 98t-202 99q-102 0 -215 -197l-158 94q156 295 369 295q131 0 287 -114q111 -82 180 -82
q102 -1 215 196l158 -94q-156 -295 -369 -295z" />
    <glyph glyph-name="notequal" unicode="&#x2260;" horiz-adv-x="1331" 
d="M1210 455v-193h-622l-142 -254h-194l141 254h-272v193h379l178 319h-557v193h663l142 254h194l-141 -254h231v-193h-338l-178 -319h516z" />
    <glyph glyph-name="lessequal" unicode="&#x2264;" horiz-adv-x="1331" 
d="M1190 193v-193h-1049v193h1049zM444 756l746 -262v-211l-1049 393v164l1049 393v-209l-746 -264v-4z" />
    <glyph glyph-name="greaterequal" unicode="&#x2265;" horiz-adv-x="1331" 
d="M1190 193v-193h-1049v193h1049zM1190 676l-1049 -393v211l746 262v4l-746 264v209l1049 -393v-164z" />
    <glyph glyph-name="lozenge" unicode="&#x25ca;" horiz-adv-x="1263" 
d="M319 680l314 -469l311 469l-311 469zM547 0l-459 680l459 680h172l459 -680l-459 -680h-172z" />
    <glyph glyph-name="uniE069" unicode="&#xe069;" horiz-adv-x="473" 
d="M127 961h217v-961h-217v961zM237 1399q62 0 100 -39t38 -100q0 -62 -38 -100t-100 -38t-101 38q-38 38 -38 100t38 100q39 39 101 39z" />
    <glyph glyph-name="uniEF01" unicode="&#xef01;" horiz-adv-x="1024" 
d="M199 -430l204 303h230l-236 -303h-198z" />
    <glyph glyph-name="uniEF02" unicode="&#xef02;" horiz-adv-x="1024" 
d="M371 1032l63 402h219l-114 -402h-168z" />
    <glyph glyph-name="uniF8FF" unicode="&#xf8ff;" horiz-adv-x="2048" 
d="M1950 682v-10h-19v-51h-12v51h-16v10h47zM2021 682v-61h-12v51h-2l-14 -41h-8l-15 41h-2v-51h-10v61h20l11 -33h2l10 33h20zM588 596h-15q-10 0 -12 -10l-26 -117h36l25 115q2 12 -8 12zM1155 596h-14q-10 0 -13 -10l-26 -117h37l24 115q2 12 -8 12zM764 596h-25
l-28 -127h26q11 0 13 8l22 107q2 12 -8 12zM1673 596h-24l-29 -127h27q10 0 12 8l22 107q2 12 -8 12zM190 416q8 0 13 10l35 158q2 12 -7 12h-26l-41 -180h26zM1374 596l-49 -219h-49l49 219h-39l8 39h125l-8 -39h-37zM1845 496l-8 -39h-53l-8 -41h67l-10 -39h-115l58 258
h116l-10 -39h-65l-23 -100h51zM1462 469h15q10 0 12 8l35 158h49l-35 -160q-8 -45 -49 -45l-29 -53h-49l29 53q-37 0 -37 31q0 10 2 20l35 154h49l-35 -154q-2 -12 8 -12zM477 635l-57 -258h-49l12 53h-37l-12 -53h-49l57 258h49l-37 -166h37l37 166h49zM1657 430h-45
l-13 -53h-49l58 258h88q37 0 37 -31q0 -8 -2 -20l-25 -109q-8 -45 -49 -45zM786 635q37 0 37 -31q0 -8 -2 -20l-22 -107q-8 -35 -27 -41l12 -59h-47l-8 53h-27l-12 -53h-49l57 258h88zM1133 635h45q37 0 36 -31q0 -8 -2 -20l-45 -207h-49l12 53h-34l-15 -53h-49l47 211
q10 47 54 47zM565 635h45q37 0 37 -31q0 -8 -2 -20l-45 -207h-49l12 53h-35l-14 -53h-49l47 211q10 47 53 47zM201 377h-95l58 258h88q37 0 37 -31q0 -8 -2 -20l-35 -158q-14 -49 -51 -49zM899 430v107h-2l-35 -160h-47l57 258h56v-135h2l57 135h64l-58 -258h-49l35 160h-2
l-45 -107h-33z" />
    <glyph glyph-name="zero.numr" 
d="M420 1227q-176 0 -176 -287t176 -287t176 287t-176 287zM420 1372q162 0 250 -112t88 -320t-88 -320t-250 -112t-250 113t-88 319t88 320q88 112 250 112z" />
    <glyph glyph-name="one.numr" 
d="M625 520h-160v651l-215 -135v162l248 162h127v-840z" />
    <glyph glyph-name="two.numr" 
d="M711 666v-146h-582v154l193 149q133 105 180 163t47 116q0 125 -160 125q-133 0 -237 -105h-11v174q102 76 254 76t234 -66t82 -174q-1 -110 -57 -187t-220 -204l-90 -71v-4h367z" />
    <glyph glyph-name="three.numr" 
d="M406 1372q318 0 317 -242q0 -120 -113 -180v-4q127 -57 127 -196q0 -114 -86 -178q-87 -64 -257 -64t-263 82v174h10q87 -111 261 -111t173 115q0 109 -169 109h-115v139h100q170 0 170 102q-1 109 -153 109t-248 -103h-10v172q98 76 256 76z" />
    <glyph glyph-name="four.numr" 
d="M520 821v328h-2l-262 -328h264zM680 520h-160v156h-438v137l440 547h158v-539h106v-145h-106v-156z" />
    <glyph glyph-name="five.numr" 
d="M440 1065q142 0 222 -73q80 -72 80 -202t-89 -206t-257 -76t-269 67v166h10q94 -88 266 -88q84 0 131 36q46 36 46 102q0 135 -207 135q-113 0 -211 -39h-10v473h536v-146h-399v-163q63 14 151 14z" />
    <glyph glyph-name="six.numr" 
d="M439 653q75 0 115 38q40 39 40 103t-40 101t-110 37q-125 0 -184 -98q8 -84 56 -132t123 -49zM472 1071q130 0 207 -75q77 -74 77 -202t-84 -207t-236 -79t-247 107q-93 108 -93 313q0 204 100 324t263 120q164 0 233 -55v-164h-10q-78 74 -193 74q-199 0 -227 -219h4
q76 63 206 63z" />
    <glyph glyph-name="seven.numr" 
d="M121 1214v146h641v-152l-416 -688h-188l430 694h-467z" />
    <glyph glyph-name="eight.numr" 
d="M420 653q182 0 182 112t-182 112t-182 -112t182 -112zM420 1227q-160 1 -160 -105t160 -106t160 106t-160 105zM764 748q0 -112 -92 -176t-253 -64t-252 63t-91 177q0 143 143 196v4q-119 56 -119 178t84 184t235 62t235 -62t86 -182q0 -120 -119 -174v-4
q143 -53 143 -202z" />
    <glyph glyph-name="nine.numr" 
d="M395 948q125 0 185 99q-8 84 -56 132t-124 48q-74 0 -114 -38q-40 -39 -40 -103t40 -101t109 -37zM404 1372q152 0 246 -108q93 -108 93 -312t-99 -324t-263 -120t-234 55v164h11q78 -74 192 -74q199 0 228 219h-5q-75 -63 -205 -63t-207 75q-77 74 -77 202t84 207
t236 79z" />
    <glyph glyph-name="zero.dnom" 
d="M420 707q-176 0 -176 -287t176 -287t176 287t-176 287zM420 852q162 0 250 -113t88 -319t-88 -320q-88 -112 -250 -112t-250 112t-88 320t88 320t250 112z" />
    <glyph glyph-name="one.dnom" 
d="M625 0h-160v651l-215 -135v162l248 162h127v-840z" />
    <glyph glyph-name="two.dnom" 
d="M711 145v-145h-582v154l193 149q133 105 180 163t47 116q0 125 -160 125q-133 0 -237 -105h-11v174q102 76 254 76t234 -66t82 -175q-1 -109 -57 -186t-220 -204l-90 -71v-5h367z" />
    <glyph glyph-name="three.dnom" 
d="M406 852q318 0 317 -242q0 -120 -113 -180v-4q127 -57 127 -197q0 -115 -86 -178q-87 -63 -257 -63t-263 82v174h10q87 -111 261 -111t173 115q0 109 -169 108h-115v140h100q170 0 170 102q-1 109 -153 109t-248 -103h-10v172q98 76 256 76z" />
    <glyph glyph-name="four.dnom" 
d="M520 301v328h-2l-262 -328h264zM680 0h-160v156h-438v137l440 547h158v-539h106v-145h-106v-156z" />
    <glyph glyph-name="five.dnom" 
d="M440 545q142 0 222 -73t80 -203t-89 -206q-89 -75 -257 -75t-269 67v166h10q94 -88 266 -88q84 0 131 36q46 36 46 101q0 135 -207 136q-113 0 -211 -39h-10v473h536v-146h-399v-164q63 15 151 15z" />
    <glyph glyph-name="six.dnom" 
d="M439 133q75 0 115 38t40 102q0 63 -40 101t-110 38q-125 0 -184 -99q8 -84 56 -132t123 -48zM472 551q130 0 207 -75t77 -203q0 -129 -84 -207t-236 -78t-247 107q-93 109 -93 313t100 324t263 120q164 0 233 -55v-164h-10q-78 74 -193 74q-199 0 -227 -220h4
q76 64 206 64z" />
    <glyph glyph-name="seven.dnom" 
d="M121 694v146h641v-152l-416 -688h-188l430 694h-467z" />
    <glyph glyph-name="eight.dnom" 
d="M420 133q182 0 182 112q0 111 -182 111t-182 -112t182 -111zM420 707q-160 1 -160 -105t160 -106t160 106t-160 105zM764 227q0 -113 -92 -176t-253 -63t-252 63t-91 176q0 143 143 197v4q-119 55 -119 177q0 123 84 185t235 62t235 -62t86 -182q0 -120 -119 -174v-4
q143 -53 143 -203z" />
    <glyph glyph-name="nine.dnom" 
d="M395 428q125 0 185 98q-8 84 -56 132t-124 48q-74 0 -114 -37q-40 -39 -40 -103t40 -101t109 -37zM404 852q152 0 246 -108q93 -108 93 -312t-99 -324t-263 -120t-234 55v164h11q78 -74 192 -74q199 0 228 219h-5q-75 -63 -205 -63t-207 75q-77 74 -77 202t84 207t236 79
z" />
    </font>
</defs>
</svg>
